<?xml version="1.0" encoding="UTF-8" standalone="no"?>
<!-- Created with Inkscape (http://www.inkscape.org/) -->

<svg
   xmlns:dc="http://purl.org/dc/elements/1.1/"
   xmlns:cc="http://creativecommons.org/ns#"
   xmlns:rdf="http://www.w3.org/1999/02/22-rdf-syntax-ns#"
   xmlns:svg="http://www.w3.org/2000/svg"
   xmlns="http://www.w3.org/2000/svg"
   xmlns:sodipodi="http://sodipodi.sourceforge.net/DTD/sodipodi-0.dtd"
   xmlns:inkscape="http://www.inkscape.org/namespaces/inkscape"
   width="285.86768mm"
   height="279.15768mm"
   viewBox="0 0 1012.917 989.1414"
   id="svg6325"
   version="1.1"
   inkscape:version="0.91 r13725"
   sodipodi:docname="ingredients.svg">
  <defs
     id="defs6327" />
  <sodipodi:namedview
     id="base"
     pagecolor="#ffffff"
     bordercolor="#666666"
     borderopacity="1.0"
     inkscape:pageopacity="0.0"
     inkscape:pageshadow="2"
     inkscape:zoom="0.58392443"
     inkscape:cx="1070.7415"
     inkscape:cy="293.60243"
     inkscape:document-units="px"
     inkscape:current-layer="layer1"
     showgrid="false"
     inkscape:window-width="1903"
     inkscape:window-height="1400"
     inkscape:window-x="25"
     inkscape:window-y="1"
     inkscape:window-maximized="0"
     fit-margin-top="0"
     fit-margin-left="0"
     fit-margin-right="0"
     fit-margin-bottom="0" />
  <metadata
     id="metadata6330">
    <rdf:RDF>
      <cc:Work
         rdf:about="">
        <dc:format>image/svg+xml</dc:format>
        <dc:type
           rdf:resource="http://purl.org/dc/dcmitype/StillImage" />
        <dc:title></dc:title>
      </cc:Work>
    </rdf:RDF>
  </metadata>
  <g
     inkscape:label="Layer 1"
     inkscape:groupmode="layer"
     id="layer1"
     transform="translate(698.69429,169.35783)">
    <g
       id="g7269"
       transform="translate(-684.1376,-148.10955)">
      <path
         id="path7223"
         d="m 287.362,48.83 c 4.516,-4.275 9.439,-8.586 14.928,-12.919 3.82,-3.01 9.382,-2.359 12.401,1.462 3.018,3.829 2.363,9.382 -1.466,12.405 -7.41,5.849 -13.674,11.608 -19.116,17.241 4.023,7.278 8.919,11.65 14.709,12.864 20.196,4.251 53.035,-25.741 73.809,-50.624 -20.084,-6.17 -45.463,-11.663 -65.211,-11.663 -11.728,0 -21.464,1.932 -26.94,6.808 -1.82,1.621 -7.347,6.541 -3.682,22.283 0.177,0.756 0.384,1.412 0.568,2.143 z"
         style="fill:#5ecc66"
         inkscape:connector-curvature="0" />
      <path
         id="path7225"
         d="m 322.229,141.118 c -21.567,0 -42.152,6.731 -61.175,20.007 -3.035,2.113 -7.071,2.113 -10.107,0 -19.024,-13.276 -39.608,-20.007 -61.176,-20.007 -49.465,0 -132.458,17.208 -132.458,132.458 0,99.374 61.124,220.763 132.458,220.763 21.567,0 42.152,-6.731 61.175,-20.007 1.518,-1.056 3.286,-1.587 5.053,-1.587 1.768,0 3.536,0.53 5.053,1.587 19.024,13.276 39.608,20.007 61.175,20.007 71.334,0 132.458,-121.389 132.458,-220.763 10e-4,-115.25 -82.992,-132.458 -132.456,-132.458 z m -191.96,276.764 c -1.397,0.806 -2.923,1.19 -4.424,1.19 -3.044,0 -6.011,-1.578 -7.649,-4.402 C 91.135,367.991 74.975,308.643 74.975,255.915 c 0,-4.877 3.95,-8.831 8.831,-8.831 4.881,0 8.831,3.954 8.831,8.831 0,49.754 15.264,105.789 40.841,149.899 2.448,4.217 1.007,9.619 -3.209,12.068 z"
         style="fill:#e65f58"
         inkscape:connector-curvature="0" />
      <g
         id="g7227">
        <path
           id="path7229"
           d="m 322.229,123.457 c -20.439,0 -40.698,5.431 -59.324,15.751 -1.165,-9.613 -0.643,-31.493 19.256,-58.15 6.149,8.709 13.81,14.173 23.036,16.11 2.458,0.517 4.959,0.759 7.485,0.759 39.806,0 86.305,-60.477 91.78,-67.781 1.673,-2.246 2.191,-5.153 1.389,-7.834 -0.811,-2.682 -2.837,-4.825 -5.476,-5.769 -9.322,-3.35 -91.798,-31.898 -121.635,-5.334 -6.933,6.166 -14.142,18.019 -9.141,39.483 1.086,4.663 2.399,8.859 3.814,12.84 -25.963,30.838 -29.285,58.177 -28.399,73.554 -17.491,-8.91 -36.283,-13.63 -55.243,-13.63 -95.402,0 -150.119,54.716 -150.119,150.119 0,107.994 66.962,238.425 150.119,238.425 22.99,0 45.765,-6.834 66.229,-19.817 C 276.463,505.165 299.238,512 322.229,512 405.386,512 472.348,381.569 472.348,273.576 472.347,178.174 417.631,123.457 322.229,123.457 Z M 290.477,24.403 c 5.476,-4.877 15.212,-6.808 26.94,-6.808 19.748,0 45.127,5.493 65.211,11.663 -20.774,24.883 -53.613,54.876 -73.809,50.624 -5.79,-1.214 -10.686,-5.586 -14.709,-12.864 5.442,-5.632 11.706,-11.392 19.116,-17.241 3.829,-3.022 4.484,-8.576 1.466,-12.405 -3.018,-3.82 -8.58,-4.471 -12.401,-1.462 -5.49,4.333 -10.413,8.644 -14.928,12.919 -0.184,-0.731 -0.392,-1.387 -0.568,-2.144 -3.665,-15.741 1.862,-20.661 3.682,-22.282 z m 31.752,469.936 c -21.567,0 -42.152,-6.731 -61.175,-20.007 -1.518,-1.056 -3.286,-1.587 -5.053,-1.587 -1.768,0 -3.536,0.53 -5.053,1.587 -19.024,13.276 -39.608,20.007 -61.175,20.007 -71.334,0 -132.458,-121.389 -132.458,-220.763 0,-115.249 82.993,-132.458 132.458,-132.458 21.567,0 42.152,6.731 61.175,20.007 3.035,2.113 7.071,2.113 10.107,0 19.024,-13.276 39.608,-20.007 61.175,-20.007 49.465,0 132.458,17.208 132.458,132.458 -0.002,99.373 -61.125,220.763 -132.459,220.763 z"
           style="fill:#314e55"
           inkscape:connector-curvature="0" />
        <path
           id="path7231"
           d="m 92.635,255.915 c 0,-4.877 -3.95,-8.831 -8.831,-8.831 -4.881,0 -8.831,3.954 -8.831,8.831 0,52.729 16.161,112.076 43.221,158.755 1.638,2.824 4.605,4.402 7.649,4.402 1.501,0 3.027,-0.384 4.424,-1.19 4.217,-2.449 5.657,-7.852 3.208,-12.069 -25.576,-44.109 -40.84,-100.145 -40.84,-149.898 z"
           style="fill:#314e55"
           inkscape:connector-curvature="0" />
      </g>
      <g
         id="g7233" />
      <g
         id="g7235" />
      <g
         id="g7237" />
      <g
         id="g7239" />
      <g
         id="g7241" />
      <g
         id="g7243" />
      <g
         id="g7245" />
      <g
         id="g7247" />
      <g
         id="g7249" />
      <g
         id="g7251" />
      <g
         id="g7253" />
      <g
         id="g7255" />
      <g
         id="g7257" />
      <g
         id="g7259" />
      <g
         id="g7261" />
    </g>
    <g
       id="g7338"
       transform="translate(-197.76928,-216.60783)">
      <polygon
         id="polygon7292"
         points="74.999,449.993 325.995,449.993 332.995,300.996 262.996,267.121 255.996,237.997 74.999,245.996 "
         style="fill:#ffe3ab" />
      <path
         id="path7294"
         d="m 127.498,88.999 c -1.5,-1.5 -58.999,-33.5 -58.999,-33.5 l -17.5,10.5 -17,18 8.25,37.249 52.749,34 160.998,78.749 20.5,-31 c 0,0 -147.498,-112.498 -148.998,-113.998 z"
         style="fill:#ed5564"
         inkscape:connector-curvature="0" />
      <polygon
         id="polygon7296"
         points="265.496,231.497 260.996,265.496 303.995,294.996 436.493,352.993 476.992,356.493 489.992,337.493 282.996,209.997 "
         style="fill:#e6e9ed" />
      <polygon
         id="polygon7298"
         points="438.665,449.993 433.337,241.34 332.995,241.34 327.995,455.337 "
         style="fill:#ffebbd" />
      <path
         id="path7300"
         d="m 501.336,443.399 -53.343,0 0,-76.03 c 6.047,0.906 11.438,1.328 16.249,1.328 42.891,0 38.812,-33.171 38.812,-33.171 l -55.062,-34.593 0,-60.187 c 0,-5.905 -4.781,-10.671 -10.656,-10.671 l -102.091,0 -60.218,-37.859 c 0,0 -135.428,-109.623 -180.373,-137.873 -7.188,-4.531 -15.609,-7.093 -24.226,-7.093 -14.32,0 -29.179,7.077 -39.773,23.937 -16.976,27 -6.578,52.937 12.562,64.968 39.796,25.031 131.678,69.171 184.341,93.921 l -152.895,0 c -5.891,0 -10.664,4.766 -10.664,10.671 l 0,202.653 -53.335,0 0,0 0,0 C 4.773,443.4 0,448.181 0,454.072 c 0,5.891 4.773,10.671 10.664,10.671 l 0,0 0,0 319.987,0 170.685,0 c 5.875,0 10.656,-4.78 10.656,-10.671 0,-5.891 -4.781,-10.673 -10.656,-10.673 z m -23.422,-98.467 c -2.953,1.547 -7.797,2.438 -13.672,2.438 -4.062,0 -9.405,-0.406 -16.249,-1.656 l 0,-19.593 29.921,18.811 z m -196.199,-123.294 38.28,24.046 0,45.609 c -15.781,-8.891 -32.468,-18.766 -50.038,-29.672 l -2.273,-17.656 14.031,-22.327 z M 48.718,82.53 C 54.452,73.405 61.96,68.592 70.429,68.592 l 0,0 c 4.461,0 8.914,1.312 12.875,3.797 44.507,27.984 142.178,107.389 179.99,138.482 l -6,9.547 C 212.904,199.776 99.093,146.09 54.57,118.09 45.242,112.232 38.109,99.405 48.718,82.53 Z m 36.616,168.872 21.328,0 0,21.344 c 0,5.875 4.781,10.656 10.671,10.656 5.891,0 10.664,-4.781 10.664,-10.656 l 0,-21.344 42.664,0 0,53.343 c 0,5.875 4.781,10.656 10.671,10.656 5.891,0 10.664,-4.781 10.664,-10.656 l 0,-53.343 55.132,0 2.961,22.969 c 25.844,16.25 49.062,29.905 69.905,41.343 l 0,127.686 -234.66,0 0,-191.998 z m 330.66,191.997 0,-31.999 0,0 c 0,-5.891 -4.781,-10.656 -10.656,-10.656 -5.906,0 -10.688,4.766 -10.688,10.656 l 0,0 0,31.999 -53.312,0 0,-191.997 21.312,0 0,21.344 c 0,5.875 4.781,10.656 10.688,10.656 5.875,0 10.656,-4.781 10.656,-10.656 l 0,-21.344 42.656,0 0,191.997 -10.656,0 z"
         inkscape:connector-curvature="0" />
      <g
         id="g7302" />
      <g
         id="g7304" />
      <g
         id="g7306" />
      <g
         id="g7308" />
      <g
         id="g7310" />
      <g
         id="g7312" />
      <g
         id="g7314" />
      <g
         id="g7316" />
      <g
         id="g7318" />
      <g
         id="g7320" />
      <g
         id="g7322" />
      <g
         id="g7324" />
      <g
         id="g7326" />
      <g
         id="g7328" />
      <g
         id="g7330" />
    </g>
    <g
       id="g7405"
       transform="translate(-212.32614,307.43308)">
      <polygon
         id="polygon7361"
         points="90.67,502.008 159.333,479.336 346.01,478.008 413.338,498.664 451.993,494.664 426.01,414.01 431.338,376.01 435.337,225.996 422.666,93.342 451.993,9.344 357.338,30.015 157.997,30.015 60.671,6.672 84.006,93.342 76.671,166.013 78.007,327.339 90.67,414.666 76.671,452.009 60.671,499.336 "
         style="fill:#ffebbd" />
      <rect
         id="rect7363"
         height="250.5"
         width="192.5"
         style="fill:#ffce54"
         y="141.996"
         x="161.496" />
      <path
         id="path7365"
         d="m 434.556,96.342 c 0,0 42.405,-76.624 23.156,-92.139 C 453.993,1.219 447.853,0 440.368,0 409.01,0 353.947,21.156 353.947,21.156 l -195.903,0 C 158.044,21.156 102.99,0 71.632,0 64.14,0 57.999,1.219 54.28,4.203 35.03,19.718 77.444,96.342 77.444,96.342 c -17.742,31.062 -17.742,288.277 0,319.339 0,0 -42.414,76.623 -23.164,92.139 3.688,2.969 9.758,4.172 17.172,4.172 31.335,0 86.592,-21.438 86.592,-21.438 l 195.903,0 c 0,0 55.266,21.438 86.593,21.438 7.406,0 13.484,-1.203 17.172,-4.172 19.249,-15.516 -23.172,-92.139 -23.172,-92.139 17.75,-31.062 17.75,-288.277 0.016,-319.339 z m 6.625,394.306 c -0.203,0 -0.422,0 -0.641,0 -22.358,0 -64.53,-14.438 -78.874,-20 l -3.734,-1.438 -3.984,0 -195.904,0 -3.992,0 -3.727,1.438 c -14.327,5.562 -56.444,20 -78.873,20 -0.219,0 -0.43,0 -0.641,0 0.609,-5.312 2.844,-15.625 10.335,-33.468 7.031,-16.781 14.883,-31.046 14.961,-31.187 l 5.812,-10.5 -5.875,-10.25 c -0.406,-0.922 -4.414,-10.719 -7.453,-51.688 -2.016,-27.187 -3.125,-61.842 -3.125,-97.545 0,-35.703 1.109,-70.358 3.125,-97.545 3.039,-40.968 7.047,-50.765 7.453,-51.687 L 101.919,96.512 96.107,86.028 C 96.029,85.872 88.326,71.919 81.287,55.185 73.671,37.092 71.413,26.685 70.811,21.342 c 0.258,0 0.531,0 0.82,0 22.405,0 64.46,14.25 78.764,19.734 l 3.695,1.422 3.953,0 195.903,0 3.953,0 3.688,-1.422 c 14.312,-5.484 56.375,-19.734 78.78,-19.734 0.281,0 0.547,0 0.812,0 -0.609,5.312 -2.828,15.625 -10.327,33.5 -7.047,16.781 -14.891,31.046 -14.969,31.187 l -5.812,10.484 5.875,10.266 c 0.406,0.906 4.422,10.703 7.453,51.687 2.016,27.187 3.125,61.843 3.125,97.545 0,35.703 -1.109,70.358 -3.125,97.545 -3.047,40.984 -7.047,50.781 -7.453,51.688 l -5.875,10.25 5.812,10.5 c 0.078,0.156 7.781,14.108 14.828,30.843 7.595,18.061 9.86,28.468 10.47,33.811 z"
         inkscape:connector-curvature="0" />
      <path
         id="path7367"
         d="m 149.333,405.322 213.317,0 0,-277.324 -213.317,0 0,277.324 z m 117.327,-106.67 0.023,0 21.313,-19.265 0,25.14 -21.336,18.969 0,-24.844 z m 21.336,-48.031 -21.336,19.297 0,-24.578 0.023,0 21.313,-19.281 0,24.562 z m -42.672,18.984 -21.328,-19.031 0,-24.734 21.328,19.031 0,24.734 z m -21.328,9.547 21.328,19.047 0,24.89 -21.328,-18.61 0,-25.327 z m -53.327,-129.811 170.653,0 0,234.653 -74.662,0 0,-32 0.055,0 42.608,-37.874 0,-132.779 0,0 c 0,-5.906 -4.766,-10.671 -10.655,-10.671 -5.891,0 -10.672,4.766 -10.672,10.671 l 0,0 0,15.938 -21.336,19.312 0,-24.593 0,0 0,0 0,-0.438 -0.023,0 c -0.234,-5.688 -4.898,-10.219 -10.641,-10.219 -5.743,0 -10.414,4.531 -10.648,10.219 l -0.023,0 0,0.438 0,0 0,0 0,24.281 -21.329,-19.032 0,-15.906 c 0,-5.906 -4.773,-10.671 -10.664,-10.671 -5.89,0 -10.671,4.766 -10.671,10.671 l 0,0 0,132.842 42.663,37.218 0,32.594 -74.655,0 0,-234.654 0,0 z"
         inkscape:connector-curvature="0" />
      <g
         id="g7369" />
      <g
         id="g7371" />
      <g
         id="g7373" />
      <g
         id="g7375" />
      <g
         id="g7377" />
      <g
         id="g7379" />
      <g
         id="g7381" />
      <g
         id="g7383" />
      <g
         id="g7385" />
      <g
         id="g7387" />
      <g
         id="g7389" />
      <g
         id="g7391" />
      <g
         id="g7393" />
      <g
         id="g7395" />
      <g
         id="g7397" />
    </g>
    <g
       id="g7491"
       transform="translate(-698.69429,357.09253)">
      <path
         id="path7427"
         d="m 499.033,56.952 -32.306,58.33 0,284.066 c 0,30.764 -24.939,55.703 -55.701,55.703 l -255.02,0 c -30.763,0 -55.702,-24.939 -55.702,-55.703 l 0,-342.396 398.729,0 z"
         style="fill:#fff6dd"
         inkscape:connector-curvature="0" />
      <path
         id="path7429"
         d="m 100.304,209.134 0,190.213 c 0,30.764 24.939,55.703 55.702,55.703 l 255.02,0 c 30.761,0 55.701,-24.939 55.701,-55.703 l 0,-190.213 -366.423,0 z"
         style="fill:#80d3cf"
         inkscape:connector-curvature="0" />
      <path
         id="path7431"
         d="m 38.207,281.511 0,-178.067 c 0,-8.783 7.145,-15.927 15.928,-15.927 l 46.169,0 0,-30.565 -46.169,0 c -25.678,0 -46.494,20.815 -46.494,46.493 l 0,178.067 30.566,0 z"
         style="fill:#ff6a5e"
         inkscape:connector-curvature="0" />
      <g
         id="g7433">
        <path
           id="path7435"
           d="m 354.174,49.31 0,15.283 131.891,0 -26.979,48.713 0,95.827 0,190.213 c 0,26.502 -21.559,48.062 -48.06,48.062 l -255.02,0 c -26.501,0 -48.061,-21.56 -48.061,-48.062 l 0,-190.212 0,-113.975 0,-30.566 225.602,0 0,-15.283 -225.602,0 -15.283,0 -38.527,0 C 24.284,49.31 0,73.595 0,103.444 l 0,185.708 45.849,0 0,-185.708 c 0,-4.569 3.717,-8.285 8.286,-8.285 l 38.527,0 0,113.975 0,190.213 c 0,34.929 28.416,63.344 63.343,63.344 l 255.02,0 c 34.926,0 63.342,-28.416 63.342,-63.344 l 0,-190.213 0,-91.878 L 512,49.31 l -157.826,0 0,0 z M 54.135,79.876 c -12.997,0 -23.569,10.573 -23.569,23.568 l 0,170.426 -15.283,0 0,-170.426 c 0,-21.423 17.429,-38.851 38.852,-38.851 l 38.527,0 0,15.283 -38.527,0 z"
           style="fill:#311363"
           inkscape:connector-curvature="0" />
        <rect
           id="rect7437"
           height="76.526001"
           width="15.283"
           style="fill:#311363"
           y="145.85001"
           x="428.522" />
        <path
           id="path7439"
           d="m 443.803,399.346 0,-156.59 -15.283,0 0,156.59 c 0,9.648 -7.847,17.496 -17.494,17.496 l -67.161,0 0,15.283 67.161,0 c 18.073,0 32.777,-14.704 32.777,-32.779 z"
           style="fill:#311363"
           inkscape:connector-curvature="0" />
        <rect
           id="rect7441"
           height="15.283"
           width="109.588"
           style="fill:#311363"
           y="111.189"
           x="135.44701" />
        <rect
           id="rect7443"
           height="15.283"
           width="79.980003"
           style="fill:#311363"
           y="147.287"
           x="135.44701" />
        <rect
           id="rect7445"
           height="15.283"
           width="109.588"
           style="fill:#311363"
           y="183.38499"
           x="135.44701" />
        <rect
           id="rect7447"
           height="15.283"
           width="79.980003"
           style="fill:#311363"
           y="219.483"
           x="135.44701" />
        <rect
           id="rect7449"
           height="15.283"
           width="79.980003"
           style="fill:#311363"
           y="291.67899"
           x="135.44701" />
        <rect
           id="rect7451"
           height="15.283"
           width="109.588"
           style="fill:#311363"
           y="255.58099"
           x="135.44701" />
        <rect
           id="rect7453"
           height="15.283"
           width="109.588"
           style="fill:#311363"
           y="327.77802"
           x="135.44701" />
      </g>
      <g
         id="g7455" />
      <g
         id="g7457" />
      <g
         id="g7459" />
      <g
         id="g7461" />
      <g
         id="g7463" />
      <g
         id="g7465" />
      <g
         id="g7467" />
      <g
         id="g7469" />
      <g
         id="g7471" />
      <g
         id="g7473" />
      <g
         id="g7475" />
      <g
         id="g7477" />
      <g
         id="g7479" />
      <g
         id="g7481" />
      <g
         id="g7483" />
    </g>
  </g>
</svg>
