<?xml version="1.0" encoding="iso-8859-1"?>
<!-- Generator: Adobe Illustrator 19.0.0, SVG Export Plug-In . SVG Version: 6.00 Build 0)  -->
<svg version="1.1" id="Layer_1" xmlns="http://www.w3.org/2000/svg" xmlns:xlink="http://www.w3.org/1999/xlink" x="0px" y="0px"
	 viewBox="0 0 511.998 511.998" style="enable-background:new 0 0 511.998 511.998;" xml:space="preserve">
<polygon style="fill:#DD7128;" points="477.601,392.334 448.816,453.793 62.624,453.793 33.852,392.334 "/>
<polygon style="fill:#F77D2B;" points="434.639,418.803 420.436,453.793 91.006,453.793 76.814,418.803 "/>
<path style="fill:#B27214;" d="M502.769,374.898c0,9.631-7.805,17.435-17.435,17.435h-7.733H33.852h-7.733
	c-4.821,0-9.189-1.957-12.34-5.108c-3.151-3.151-5.108-7.518-5.108-12.328c0-11.003,4.463-20.968,11.671-28.176
	s17.161-11.671,28.164-11.671c25.908,0,25.908,19.094,51.805,19.094s25.896-19.094,51.793-19.094s25.896,19.094,51.805,19.094
	c25.896,0,25.896-19.094,51.805-19.094c25.896,0,25.896,19.094,51.793,19.094c25.908,0,25.908-19.094,51.805-19.094
	c25.908,0,25.908,19.094,51.817,19.094c25.897,0,25.897-19.094,51.805-19.094c11.003,0,20.968,4.463,28.176,11.671
	S502.769,363.895,502.769,374.898z"/>
<path style="fill:#E09B2D;" d="M462.934,335.051c-25.908,0-25.908,19.094-51.805,19.094c-25.908,0-25.908-19.094-51.817-19.094
	c-25.897,0-25.897,19.094-51.805,19.094c-25.897,0-25.897-19.094-51.793-19.094c-25.908,0-25.908,19.094-51.805,19.094
	c-25.908,0-25.908-19.094-51.805-19.094s-25.896,19.094-51.793,19.094s-25.896-19.094-51.805-19.094
	c8.831-29.691,25.467-56.555,47.855-78.716c39.227-38.857,96.092-63.285,159.365-63.285c63.261,0,120.114,24.429,159.353,63.285
	C437.467,278.496,454.103,305.36,462.934,335.051z"/>
<path style="fill:#F7B239;" d="M415.079,256.335c-39.239,38.857-96.103,63.285-159.365,63.285s-120.126-24.429-159.353-63.285
	c39.227-38.857,96.092-63.285,159.365-63.285C318.988,193.05,375.841,217.479,415.079,256.335z"/>
<g>
	<path style="fill:#333333;" d="M469.914,326.382c-28.152-84.191-115.138-142.463-213.915-142.463S70.238,242.191,42.086,326.382
		C18.345,329.661,0,350.084,0,374.713c0,14.552,11.838,26.391,26.391,26.391h2.041l26.368,56.308
		c1.473,3.146,4.633,5.154,8.105,5.154h386.188c3.473,0,6.633-2.01,8.105-5.154l26.368-56.308h2.041
		c14.552,0,26.391-11.838,26.391-26.391C512,350.084,493.655,329.661,469.914,326.382z M255.999,201.819
		c89.226,0,167.873,51.09,195.258,125.48c-8.654,2.121-14.392,6.326-19.262,9.917c-6.144,4.529-10.584,7.801-20.593,7.801
		c-10.01,0-14.45-3.272-20.594-7.801c-6.826-5.031-15.321-11.293-31.215-11.293c-15.894,0-24.388,6.262-31.212,11.293
		c-6.144,4.529-10.582,7.801-20.59,7.801c-10.009,0-14.447-3.272-20.591-7.801c-6.825-5.031-15.32-11.293-31.213-11.293
		c-15.892,0-24.387,6.262-31.211,11.293c-6.144,4.529-10.582,7.801-20.59,7.801c-10.008,0-14.446-3.272-20.588-7.801
		c-6.825-5.031-15.318-11.293-31.212-11.293c-15.891,0-24.384,6.262-31.208,11.293c-6.142,4.529-10.581,7.801-20.586,7.801
		c-10.008,0-14.446-3.272-20.588-7.801c-4.87-3.591-10.607-7.795-19.259-9.917C88.127,252.91,166.773,201.819,255.999,201.819z
		 M443.402,444.665H68.597l-20.4-43.561H463.8L443.402,444.665z M485.609,383.203h-7.732H34.124h-7.732
		c-4.682,0-8.49-3.808-8.49-8.49c0-17.032,13.856-30.888,30.888-30.888c10.008,0,14.446,3.272,20.588,7.801
		c6.825,5.031,15.318,11.293,31.212,11.293c15.891,0,24.384-6.262,31.208-11.293c6.142-4.529,10.581-7.801,20.586-7.801
		c10.008,0,14.446,3.272,20.588,7.801c6.825,5.031,15.318,11.293,31.212,11.293s24.387-6.262,31.212-11.293
		c6.142-4.529,10.582-7.801,20.588-7.801c10.009,0,14.447,3.272,20.591,7.801c6.825,5.031,15.32,11.293,31.213,11.293
		c15.892,0,24.387-6.262,31.212-11.293c6.144-4.529,10.583-7.801,20.591-7.801c10.01,0,14.45,3.272,20.593,7.801
		c6.826,5.031,15.321,11.293,31.215,11.293c15.895,0,24.389-6.262,31.214-11.293c6.145-4.529,10.584-7.801,20.594-7.801
		c17.032,0,30.888,13.856,30.888,30.888C494.099,379.395,490.29,383.203,485.609,383.203z"/>
	<path style="fill:#333333;" d="M255.999,286.545c4.943,0,8.95-4.007,8.95-8.95v-25.657c0-4.943-4.007-8.95-8.95-8.95
		c-4.943,0-8.95,4.007-8.95,8.95v25.657C247.049,282.537,251.056,286.545,255.999,286.545z"/>
	<path style="fill:#333333;" d="M180.527,275.866c2.29,0,4.581-0.874,6.329-2.622l24.048-24.048c3.495-3.495,3.495-9.163,0-12.657
		c-3.495-3.495-9.163-3.495-12.657,0l-24.048,24.048c-3.495,3.495-3.495,9.163,0,12.657
		C175.946,274.992,178.237,275.866,180.527,275.866z"/>
	<path style="fill:#333333;" d="M325.144,273.244c1.747,1.747,4.038,2.622,6.329,2.622c2.29,0,4.581-0.874,6.329-2.622
		c3.495-3.495,3.495-9.163,0-12.657l-24.048-24.048c-3.495-3.495-9.163-3.495-12.657,0c-3.495,3.495-3.495,9.163,0,12.657
		L325.144,273.244z"/>
	<path style="fill:#333333;" d="M245.371,150.653c-2.357,4.345-0.745,9.777,3.6,12.134c1.356,0.735,2.818,1.085,4.259,1.085
		c3.177,0,6.255-1.696,7.876-4.685c12.121-22.346,7.566-39.598,3.548-54.819c-3.628-13.742-6.762-25.609,1.975-41.716
		c2.357-4.345,0.745-9.777-3.6-12.134s-9.779-0.746-12.134,3.6c-12.121,22.346-7.566,39.598-3.548,54.819
		C250.974,122.678,254.107,134.547,245.371,150.653z"/>
	<path style="fill:#333333;" d="M198.1,150.653c-2.357,4.345-0.745,9.777,3.6,12.134c1.356,0.735,2.818,1.085,4.259,1.085
		c3.178,0,6.255-1.696,7.876-4.685c12.12-22.346,7.566-39.598,3.547-54.819c-3.628-13.742-6.762-25.609,1.975-41.716
		c2.357-4.345,0.745-9.777-3.6-12.134c-4.345-2.357-9.779-0.746-12.134,3.6c-12.121,22.346-7.566,39.599-3.548,54.819
		C203.702,122.678,206.835,134.547,198.1,150.653z"/>
	<path style="fill:#333333;" d="M292.642,150.653c-2.357,4.345-0.745,9.777,3.6,12.134c1.356,0.735,2.818,1.085,4.259,1.085
		c3.177,0,6.255-1.696,7.876-4.685c12.121-22.346,7.566-39.599,3.548-54.819c-3.628-13.742-6.762-25.609,1.975-41.716
		c2.357-4.345,0.745-9.777-3.6-12.134c-4.345-2.356-9.779-0.745-12.134,3.6c-12.12,22.346-7.566,39.598-3.547,54.819
		C298.246,122.678,301.379,134.545,292.642,150.653z"/>
</g>
<g>
</g>
<g>
</g>
<g>
</g>
<g>
</g>
<g>
</g>
<g>
</g>
<g>
</g>
<g>
</g>
<g>
</g>
<g>
</g>
<g>
</g>
<g>
</g>
<g>
</g>
<g>
</g>
<g>
</g>
</svg>
