<?xml version="1.0" encoding="UTF-8" standalone="no"?>
<!-- Created with Inkscape (http://www.inkscape.org/) -->

<svg
   xmlns:dc="http://purl.org/dc/elements/1.1/"
   xmlns:cc="http://creativecommons.org/ns#"
   xmlns:rdf="http://www.w3.org/1999/02/22-rdf-syntax-ns#"
   xmlns:svg="http://www.w3.org/2000/svg"
   xmlns="http://www.w3.org/2000/svg"
   xmlns:sodipodi="http://sodipodi.sourceforge.net/DTD/sodipodi-0.dtd"
   xmlns:inkscape="http://www.inkscape.org/namespaces/inkscape"
   id="svg4136"
   version="1.1"
   inkscape:version="0.91 r13725"
   xml:space="preserve"
   width="173.5"
   height="128.75002"
   viewBox="0 0 173.5 128.75002"
   sodipodi:docname="topmed_logo_all.pdf"><metadata
     id="metadata4142"><rdf:RDF><cc:Work
         rdf:about=""><dc:format>image/svg+xml</dc:format><dc:type
           rdf:resource="http://purl.org/dc/dcmitype/StillImage" /><dc:title></dc:title></cc:Work></rdf:RDF></metadata><defs
     id="defs4140"><clipPath
       clipPathUnits="userSpaceOnUse"
       id="clipPath4150"><path
         d="M 0,756 576,756 576,0 0,0 0,756 Z"
         id="path4152"
         inkscape:connector-curvature="0" /></clipPath><clipPath
       clipPathUnits="userSpaceOnUse"
       id="clipPath4166"><path
         d="m 97.2656,658.822 165.3644,0 0,-72.892 -165.3644,0 0,72.892 z"
         id="path4168"
         inkscape:connector-curvature="0" /></clipPath><clipPath
       clipPathUnits="userSpaceOnUse"
       id="clipPath4312"><path
         d="M 0,756 576,756 576,0 0,0 0,756 Z"
         id="path4314"
         inkscape:connector-curvature="0" /></clipPath><clipPath
       clipPathUnits="userSpaceOnUse"
       id="clipPath4328"><path
         d="m 97.2656,658.822 165.3644,0 0,-72.892 -165.3644,0 0,72.892 z"
         id="path4330"
         inkscape:connector-curvature="0" /></clipPath><clipPath
       clipPathUnits="userSpaceOnUse"
       id="clipPath4474"><path
         d="M 0,756 576,756 576,0 0,0 0,756 Z"
         id="path4476"
         inkscape:connector-curvature="0" /></clipPath><clipPath
       clipPathUnits="userSpaceOnUse"
       id="clipPath4624"><path
         d="M 0,756 576,756 576,0 0,0 0,756 Z"
         id="path4626"
         inkscape:connector-curvature="0" /></clipPath><clipPath
       clipPathUnits="userSpaceOnUse"
       id="clipPath4770"><path
         d="M 0,756 576,756 576,0 0,0 0,756 Z"
         id="path4772"
         inkscape:connector-curvature="0" /></clipPath><clipPath
       clipPathUnits="userSpaceOnUse"
       id="clipPath4794"><path
         d="M 0,756 576,756 576,0 0,0 0,756 Z"
         id="path4796"
         inkscape:connector-curvature="0" /></clipPath><clipPath
       clipPathUnits="userSpaceOnUse"
       id="clipPath4934"><path
         d="M 0,756 576,756 576,0 0,0 0,756 Z"
         id="path4936"
         inkscape:connector-curvature="0" /></clipPath><clipPath
       clipPathUnits="userSpaceOnUse"
       id="clipPath5084"><path
         d="M 0,756 576,756 576,0 0,0 0,756 Z"
         id="path5086"
         inkscape:connector-curvature="0" /></clipPath><clipPath
       clipPathUnits="userSpaceOnUse"
       id="clipPath5230"><path
         d="M 0,756 576,756 576,0 0,0 0,756 Z"
         id="path5232"
         inkscape:connector-curvature="0" /></clipPath><clipPath
       clipPathUnits="userSpaceOnUse"
       id="clipPath5374"><path
         d="M 0,756 576,756 576,0 0,0 0,756 Z"
         id="path5376"
         inkscape:connector-curvature="0" /></clipPath><clipPath
       clipPathUnits="userSpaceOnUse"
       id="clipPath5514"><path
         d="M 0,756 576,756 576,0 0,0 0,756 Z"
         id="path5516"
         inkscape:connector-curvature="0" /></clipPath></defs><sodipodi:namedview
     pagecolor="#ffffff"
     bordercolor="#666666"
     borderopacity="1"
     objecttolerance="10"
     gridtolerance="10"
     guidetolerance="10"
     inkscape:pageopacity="0"
     inkscape:pageshadow="2"
     inkscape:window-width="1857"
     inkscape:window-height="1403"
     id="namedview4138"
     showgrid="false"
     inkscape:zoom="1.3089947"
     inkscape:cx="221.8145"
     inkscape:cy="186.18901"
     inkscape:window-x="65"
     inkscape:window-y="0"
     inkscape:window-maximized="0"
     inkscape:current-layer="g4144"
     fit-margin-top="0"
     fit-margin-left="0"
     fit-margin-right="0"
     fit-margin-bottom="0" /><g
     id="g4144"
     inkscape:groupmode="layer"
     inkscape:label="topmed_logo_all"
     transform="matrix(1.25,0,0,-1.25,-138.1855,415.06101)"><path
       inkscape:connector-curvature="0"
       id="path5356"
       style="fill:#ffffff;fill-opacity:1;fill-rule:nonzero;stroke:none"
       d="m 121.6284,331.0488 c 0,0 -10.08,0 -10.08,-7.922 l 0,-85.155 c 0,0 0,-7.923 10.08,-7.923 l 116.64,0 c 0,0 10.08,0 10.08,7.923 l 0,85.155 c 0,0 0,7.922 -10.08,7.922 l -116.64,0 z" /><path
       inkscape:connector-curvature="0"
       id="path5360"
       style="fill:none;stroke:#bdbcbc;stroke-width:2;stroke-linecap:butt;stroke-linejoin:miter;stroke-miterlimit:4;stroke-dasharray:none;stroke-opacity:1"
       d="m 121.6284,331.0488 c 0,0 -10.08,0 -10.08,-7.922 l 0,-85.155 c 0,0 0,-7.923 10.08,-7.923 l 116.64,0 c 0,0 10.08,0 10.08,7.923 l 0,85.155 c 0,0 0,7.922 -10.08,7.922 l -116.64,0 z" /><text
       transform="matrix(1,0,0,-1,133.6108,234.7593)"
       style="font-variant:normal;font-weight:bold;font-stretch:normal;font-size:21px;font-family:Rockwell;-inkscape-font-specification:Rockwell-Bold;writing-mode:lr-tb;fill:#231f20;fill-opacity:1;fill-rule:nonzero;stroke:none"
       id="text5362"><tspan
         x="0 13.692 31.625999 45.632999 67.514999 79.547997"
         y="0"
         sodipodi:role="line"
         id="tspan5364">TOPMed</tspan></text>
<text
       transform="matrix(1,0,0,-1,152.9282,313.0161)"
       style="font-variant:normal;font-weight:normal;font-stretch:normal;font-size:19px;font-family:Rockwell;-inkscape-font-specification:Rockwell;writing-mode:lr-tb;fill:#231f20;fill-opacity:1;fill-rule:nonzero;stroke:none"
       id="text5366"><tspan
         x="0 13.661 27.113001 37.012001 48.089001"
         y="0"
         sodipodi:role="line"
         id="tspan5368">NHLBI</tspan></text>
<path
       inkscape:connector-curvature="0"
       id="path5380"
       style="fill:#6eb4e1;fill-opacity:1;fill-rule:nonzero;stroke:none"
       d="m 232.0132,310.4395 c 0,0 -3.243,-1.742 -3.729,-2.471 -0.486,-0.728 -0.471,-2.826 -0.24,-3.968 0.233,-1.141 2.625,-8.088 5.32,-14.079 2.394,-6.666 3.107,-11.31 1.836,-12.052 1.614,1.166 2.494,1.562 3.178,2.242 0.224,0.223 0.601,1.56 0.1,4.23 -0.5,2.67 -7.14,19.346 -7.439,20.588 -0.297,1.242 -0.149,4.162 0.974,5.51" /><path
       inkscape:connector-curvature="0"
       id="path5384"
       style="fill:none;stroke:#3b87cb;stroke-width:0.23999999;stroke-linecap:butt;stroke-linejoin:miter;stroke-miterlimit:10;stroke-dasharray:none;stroke-opacity:1"
       d="m 232.0132,310.4395 c 0,0 -3.243,-1.742 -3.729,-2.471 -0.486,-0.728 -0.471,-2.826 -0.24,-3.968 0.233,-1.141 2.625,-8.088 5.32,-14.079 2.394,-6.666 3.107,-11.31 1.836,-12.052 1.614,1.166 2.494,1.562 3.178,2.242 0.224,0.223 0.601,1.56 0.1,4.23 -0.5,2.67 -7.14,19.346 -7.439,20.588 -0.297,1.242 -0.149,4.162 0.974,5.51 z" /><path
       inkscape:connector-curvature="0"
       id="path5388"
       style="fill:#6eb4e1;fill-opacity:1;fill-rule:nonzero;stroke:#3b87cb;stroke-width:0.23999999;stroke-linecap:butt;stroke-linejoin:miter;stroke-miterlimit:10;stroke-dasharray:none;stroke-opacity:1"
       d="m 179.2397,252.1797 c 18.868,-0.709 34.193,14.43 33.637,31.15 0,0 -0.595,6.883 0.01,10.825 0.499,3.242 2.415,4.589 2.415,4.589 0,0 -3.948,-2.394 -4.706,-2.98 -1.644,-1.275 -1.659,-2.301 -1.642,-10.596 0.506,-16.951 -14.059,-28.675 -29.954,-28.675" /><path
       inkscape:connector-curvature="0"
       id="path5392"
       style="fill:#f57716;fill-opacity:1;fill-rule:nonzero;stroke:none"
       d="m 113.5796,286.4766 c 0,0 1.647,-0.449 3.221,0.523 1.572,0.975 13.602,15.473 14.527,16.403 1.386,1.387 2.959,2.31 4.105,1.736 1.347,-0.824 4.208,-2.787 4.057,-2.711 -0.149,0.074 -2.845,0.748 -4.717,-0.224 -1.872,-0.975 -11.083,-13.331 -11.083,-13.331 0,0 -3.968,-4.027 -5.692,-4.478 -1.722,-0.449 -4.418,2.082 -4.418,2.082" /><path
       inkscape:connector-curvature="0"
       id="path5396"
       style="fill:none;stroke:#d71d29;stroke-width:0.23999999;stroke-linecap:butt;stroke-linejoin:miter;stroke-miterlimit:10;stroke-dasharray:none;stroke-opacity:1"
       d="m 113.5796,286.4766 c 0,0 1.647,-0.449 3.221,0.523 1.572,0.975 13.602,15.473 14.527,16.403 1.386,1.387 2.959,2.31 4.105,1.736 1.347,-0.824 4.208,-2.787 4.057,-2.711 -0.149,0.074 -2.845,0.748 -4.717,-0.224 -1.872,-0.975 -11.083,-13.331 -11.083,-13.331 0,0 -3.968,-4.027 -5.692,-4.478 -1.722,-0.449 -4.418,2.082 -4.418,2.082 z" /><path
       inkscape:connector-curvature="0"
       id="path5400"
       style="fill:#6eb4e1;fill-opacity:1;fill-rule:nonzero;stroke:none"
       d="m 121.8257,279.9414 c 0,0 2.666,-0.166 4.576,0.619 2.371,0.975 10.892,12.94 12.661,14.436 1.77,1.498 4.112,4.572 5.532,3.988 1.059,-0.436 4.706,-3.221 4.706,-3.221 0,0 -2.547,1.348 -4.269,0 -1.722,-1.349 -9.166,-10.215 -11.433,-13.414 -2.219,-3.133 -6.043,-5.517 -8.733,-4.611 -2.576,1.861 -3.04,2.203 -3.04,2.203" /><path
       inkscape:connector-curvature="0"
       id="path5404"
       style="fill:none;stroke:#3b87cb;stroke-width:0.23999999;stroke-linecap:butt;stroke-linejoin:miter;stroke-miterlimit:10;stroke-dasharray:none;stroke-opacity:1"
       d="m 121.8257,279.9414 c 0,0 2.666,-0.166 4.576,0.619 2.371,0.975 10.892,12.94 12.661,14.436 1.77,1.498 4.112,4.572 5.532,3.988 1.059,-0.436 4.706,-3.221 4.706,-3.221 0,0 -2.547,1.348 -4.269,0 -1.722,-1.349 -9.166,-10.215 -11.433,-13.414 -2.219,-3.133 -6.043,-5.517 -8.733,-4.611 -2.576,1.861 -3.04,2.203 -3.04,2.203 z" /><path
       inkscape:connector-curvature="0"
       id="path5408"
       style="fill:#f57716;fill-opacity:1;fill-rule:nonzero;stroke:none"
       d="m 139.4897,302.4277 c 0.751,-0.611 0.644,-4.527 -0.649,-7.602 -0.984,-2.336 -8.92,-18.144 -6.832,-22.412 -2.78,2.395 -2.924,2.287 -3.377,2.756 -1.072,1.106 1.589,8.612 3.454,13.328 1.863,4.719 4.743,9.762 4.778,13.426 0.014,1.348 -1.193,2.975 -1.193,2.975 0,0 3.068,-1.862 3.819,-2.471" /><path
       inkscape:connector-curvature="0"
       id="path5412"
       style="fill:none;stroke:#d71d29;stroke-width:0.23999999;stroke-linecap:butt;stroke-linejoin:miter;stroke-miterlimit:10;stroke-dasharray:none;stroke-opacity:1"
       d="m 139.4897,302.4277 c 0.751,-0.611 0.644,-4.527 -0.649,-7.602 -0.984,-2.336 -8.92,-18.144 -6.832,-22.412 -2.78,2.395 -2.924,2.287 -3.377,2.756 -1.072,1.106 1.589,8.612 3.454,13.328 1.863,4.719 4.743,9.762 4.778,13.426 0.014,1.348 -1.193,2.975 -1.193,2.975 0,0 3.068,-1.862 3.819,-2.471 z" /><path
       inkscape:connector-curvature="0"
       id="path5416"
       style="fill:#6eb4e1;fill-opacity:1;fill-rule:nonzero;stroke:none"
       d="m 127.8833,310.4395 c 0,0 3.243,-1.742 3.729,-2.471 0.486,-0.728 0.471,-2.826 0.24,-3.968 -0.233,-1.141 -2.625,-8.088 -5.321,-14.079 -2.393,-6.666 -3.107,-11.31 -1.835,-12.052 -1.615,1.166 -2.495,1.562 -3.178,2.242 -0.225,0.223 -0.601,1.56 -0.1,4.23 0.499,2.67 7.139,19.346 7.439,20.588 0.297,1.242 0.149,4.162 -0.974,5.51" /><path
       inkscape:connector-curvature="0"
       id="path5420"
       style="fill:none;stroke:#3b87cb;stroke-width:0.23999999;stroke-linecap:butt;stroke-linejoin:miter;stroke-miterlimit:10;stroke-dasharray:none;stroke-opacity:1"
       d="m 127.8833,310.4395 c 0,0 3.243,-1.742 3.729,-2.471 0.486,-0.728 0.471,-2.826 0.24,-3.968 -0.233,-1.141 -2.625,-8.088 -5.321,-14.079 -2.393,-6.666 -3.107,-11.31 -1.835,-12.052 -1.615,1.166 -2.495,1.562 -3.178,2.242 -0.225,0.223 -0.601,1.56 -0.1,4.23 0.499,2.67 7.139,19.346 7.439,20.588 0.297,1.242 0.149,4.162 -0.974,5.51 z" /><path
       inkscape:connector-curvature="0"
       id="path5424"
       style="fill:#6eb4e1;fill-opacity:1;fill-rule:nonzero;stroke:#3b87cb;stroke-width:0.23999999;stroke-linecap:butt;stroke-linejoin:miter;stroke-miterlimit:10;stroke-dasharray:none;stroke-opacity:1"
       d="m 180.6567,252.1797 c -18.869,-0.709 -34.193,14.43 -33.637,31.15 0,0 0.056,7.557 -0.551,11.496 -0.498,3.241 -1.875,4.159 -1.875,4.159 0,0 3.948,-2.635 4.707,-3.221 1.663,-1.289 1.403,-11.074 1.403,-11.074 -0.507,-16.953 14.298,-28.197 30.193,-28.197" /><path
       inkscape:connector-curvature="0"
       id="path5428"
       style="fill:#f57716;fill-opacity:1;fill-rule:nonzero;stroke:none"
       d="m 246.3169,286.4766 c 0,0 -1.775,-0.629 -3.221,0.523 -2.585,2.065 -13.599,15.838 -14.352,16.581 -1.398,1.376 -3.135,2.132 -4.28,1.558 -1.348,-0.824 -4.208,-2.787 -4.058,-2.711 0.15,0.074 2.846,0.748 4.718,-0.224 1.872,-0.975 5.98,-6.897 5.98,-6.897 0,0 9.071,-10.461 10.795,-10.912 1.722,-0.449 4.418,2.082 4.418,2.082" /><path
       inkscape:connector-curvature="0"
       id="path5432"
       style="fill:none;stroke:#d71d29;stroke-width:0.23999999;stroke-linecap:butt;stroke-linejoin:miter;stroke-miterlimit:10;stroke-dasharray:none;stroke-opacity:1"
       d="m 246.3169,286.4766 c 0,0 -1.775,-0.629 -3.221,0.523 -2.585,2.065 -13.599,15.838 -14.352,16.581 -1.398,1.376 -3.135,2.132 -4.28,1.558 -1.348,-0.824 -4.208,-2.787 -4.058,-2.711 0.15,0.074 2.846,0.748 4.718,-0.224 1.872,-0.975 5.98,-6.897 5.98,-6.897 0,0 9.071,-10.461 10.795,-10.912 1.722,-0.449 4.418,2.082 4.418,2.082 z" /><path
       inkscape:connector-curvature="0"
       id="path5436"
       style="fill:#f57716;fill-opacity:1;fill-rule:nonzero;stroke:none"
       d="m 206.2378,298.1094 c 8.423,-5.496 16.372,-20.98 19.344,-22.656 1.781,-1.004 5.187,-0.778 5.187,-0.778 l -3.197,-2.74 c 0,0 -1.4,-0.721 -3.621,0.477 -2.775,1.498 -9.966,13.476 -14.268,18.242 -4.304,4.769 -11.192,8.342 -17.972,10.275 -6.78,1.932 -16.745,1.932 -23.525,0 -6.779,-1.933 -13.669,-5.537 -17.972,-10.304 -1.513,-1.676 -2.837,-3.528 -4.152,-5.362 -2.007,-2.799 -3.936,-5.656 -5.998,-8.418 -0.841,-1.125 -2.52,-3.285 -4.619,-4.433 -1.8,-0.983 -2.997,-0.426 -3.155,-0.289 -0.403,0.345 -3.285,2.814 -3.419,2.826 0.875,-0.072 1.934,-0.205 2.805,-0.106 3.123,0.348 4.675,3.149 6.284,5.471 1.962,2.834 3.952,5.65 6.092,8.352 2.229,2.812 4.614,5.572 7.401,7.845 0.703,0.575 1.434,1.116 2.206,1.598 4.641,2.889 9.825,7.676 25.101,8.297 15.072,0.611 24.738,-6.508 27.478,-8.297" /><path
       inkscape:connector-curvature="0"
       id="path5440"
       style="fill:none;stroke:#d71d29;stroke-width:0.23999999;stroke-linecap:butt;stroke-linejoin:miter;stroke-miterlimit:10;stroke-dasharray:none;stroke-opacity:1"
       d="m 206.2378,298.1094 c 8.423,-5.496 16.372,-20.98 19.344,-22.656 1.781,-1.004 5.187,-0.778 5.187,-0.778 l -3.197,-2.74 c 0,0 -1.4,-0.721 -3.621,0.477 -2.775,1.498 -9.966,13.476 -14.268,18.242 -4.304,4.769 -11.192,8.342 -17.972,10.275 -6.78,1.932 -16.745,1.932 -23.525,0 -6.779,-1.933 -13.669,-5.537 -17.972,-10.304 -1.513,-1.676 -2.837,-3.528 -4.152,-5.362 -2.007,-2.799 -3.936,-5.656 -5.998,-8.418 -0.841,-1.125 -2.52,-3.285 -4.619,-4.433 -1.8,-0.983 -2.997,-0.426 -3.155,-0.289 -0.403,0.345 -3.285,2.814 -3.419,2.826 0.875,-0.072 1.934,-0.205 2.805,-0.106 3.123,0.348 4.675,3.149 6.284,5.471 1.962,2.834 3.952,5.65 6.092,8.352 2.229,2.812 4.614,5.572 7.401,7.845 0.703,0.575 1.434,1.116 2.206,1.598 4.641,2.889 9.825,7.676 25.101,8.297 15.072,0.611 24.738,-6.508 27.478,-8.297 z" /><path
       inkscape:connector-curvature="0"
       id="path5444"
       style="fill:#f57716;fill-opacity:1;fill-rule:nonzero;stroke:none"
       d="m 220.4067,302.4277 c -0.752,-0.611 -0.644,-4.527 0.649,-7.602 0.984,-2.336 8.872,-18.326 6.782,-22.595 2.78,2.396 2.974,2.47 3.427,2.939 1.072,1.106 -1.59,8.612 -3.454,13.328 -1.864,4.719 -4.743,9.762 -4.779,13.426 -0.013,1.348 1.194,2.975 1.194,2.975 0,0 -3.068,-1.862 -3.819,-2.471" /><path
       inkscape:connector-curvature="0"
       id="path5448"
       style="fill:none;stroke:#d71d29;stroke-width:0.23999999;stroke-linecap:butt;stroke-linejoin:miter;stroke-miterlimit:10;stroke-dasharray:none;stroke-opacity:1"
       d="m 220.4067,302.4277 c -0.752,-0.611 -0.644,-4.527 0.649,-7.602 0.984,-2.336 8.872,-18.326 6.782,-22.595 2.78,2.396 2.974,2.47 3.427,2.939 1.072,1.106 -1.59,8.612 -3.454,13.328 -1.864,4.719 -4.743,9.762 -4.779,13.426 -0.013,1.348 1.194,2.975 1.194,2.975 0,0 -3.068,-1.862 -3.819,-2.471 z" /><path
       inkscape:connector-curvature="0"
       id="path5452"
       style="fill:#6eb4e1;fill-opacity:1;fill-rule:nonzero;stroke:none"
       d="m 238.0708,279.9414 c 0,0 -1.919,-0.559 -4.576,0.619 -4.022,1.783 -9.993,11.512 -14.536,16.27 -2.517,2.636 -3.725,2.084 -4.083,1.935 -1.061,-0.437 -4.281,-3.002 -4.281,-3.002 0,0 2.467,1.241 4.27,0 1.697,-1.17 3.042,-3.422 6.716,-7.814 2.58,-3.084 5.483,-6.619 7.961,-8.811 2.566,-2.267 4.647,-1.683 5.489,-1.4 2.576,1.861 3.04,2.203 3.04,2.203" /><path
       inkscape:connector-curvature="0"
       id="path5456"
       style="fill:none;stroke:#3b87cb;stroke-width:0.23999999;stroke-linecap:butt;stroke-linejoin:miter;stroke-miterlimit:10;stroke-dasharray:none;stroke-opacity:1"
       d="m 238.0708,279.9414 c 0,0 -1.919,-0.559 -4.576,0.619 -4.022,1.783 -9.993,11.512 -14.536,16.27 -2.517,2.636 -3.725,2.084 -4.083,1.935 -1.061,-0.437 -4.281,-3.002 -4.281,-3.002 0,0 2.467,1.241 4.27,0 1.697,-1.17 3.042,-3.422 6.716,-7.814 2.58,-3.084 5.483,-6.619 7.961,-8.811 2.566,-2.267 4.647,-1.683 5.489,-1.4 2.576,1.861 3.04,2.203 3.04,2.203 z" /><path
       inkscape:connector-curvature="0"
       id="path5460"
       style="fill:#f57716;fill-opacity:1;fill-rule:nonzero;stroke:#d71d29;stroke-width:0.23999999;stroke-linecap:butt;stroke-linejoin:miter;stroke-miterlimit:10;stroke-dasharray:none;stroke-opacity:1"
       d="m 227.5718,271.9336 c 0,0 -1.406,-0.727 -3.621,0.48 -3.428,1.868 -9.964,13.473 -14.268,18.241" /><path
       inkscape:connector-curvature="0"
       id="path5464"
       style="fill:#6eb4e1;fill-opacity:1;fill-rule:nonzero;stroke:none"
       d="m 198.2427,277.1582 c -0.242,6.922 -3.214,11.688 -4.909,14.334 -1.783,2.779 -4.603,7.178 -7.07,6.676 -2.025,-0.412 -5.169,-4.408 -7.264,-7.071 l 0,-0.125 c -2.095,2.661 -5.239,6.657 -7.265,7.069 -2.466,0.502 -5.286,-3.897 -7.068,-6.676 -1.696,-2.644 -4.666,-7.41 -4.909,-14.334 -0.15,-4.232 -0.349,-9.932 3.337,-12.566 4.516,-1.731 14.444,2.767 14.334,3.336 -0.059,0.306 0.305,8.75 1.571,8.712 1.265,-0.037 1.63,-8.279 1.571,-8.585 -0.11,-0.571 9.818,-5.069 14.333,-3.338 3.688,2.634 3.486,8.336 3.339,12.568" /><path
       inkscape:connector-curvature="0"
       id="path5468"
       style="fill:none;stroke:#f36730;stroke-width:0.23999999;stroke-linecap:butt;stroke-linejoin:miter;stroke-miterlimit:10;stroke-dasharray:none;stroke-opacity:1"
       d="m 198.2427,277.1582 c -0.242,6.922 -3.214,11.688 -4.909,14.334 -1.783,2.779 -4.603,7.178 -7.07,6.676 -2.025,-0.412 -5.169,-4.408 -7.264,-7.071 l 0,-0.125 c -2.095,2.661 -5.239,6.657 -7.265,7.069 -2.466,0.502 -5.286,-3.897 -7.068,-6.676 -1.696,-2.644 -4.666,-7.41 -4.909,-14.334 -0.15,-4.232 -0.349,-9.932 3.337,-12.566 4.516,-1.731 14.444,2.767 14.334,3.336 -0.059,0.306 0.305,8.75 1.571,8.712 1.265,-0.037 1.63,-8.279 1.571,-8.585 -0.11,-0.571 9.818,-5.069 14.333,-3.338 3.688,2.634 3.486,8.336 3.339,12.568 z" /><path
       inkscape:connector-curvature="0"
       id="path5472"
       style="fill:none;stroke:#f36730;stroke-width:0.47999999;stroke-linecap:round;stroke-linejoin:miter;stroke-miterlimit:10;stroke-dasharray:none;stroke-opacity:1"
       d="m 179.688,277.4824 c -0.932,-0.711 -1.766,-0.955 -4.192,-1.291 -3.134,-0.432 -5.951,0.451 -7.822,1.352 -3.409,1.636 -5.596,4.537 -6.935,6.269" /><path
       inkscape:connector-curvature="0"
       id="path5476"
       style="fill:none;stroke:#f57716;stroke-width:0.47999999;stroke-linecap:round;stroke-linejoin:miter;stroke-miterlimit:10;stroke-dasharray:none;stroke-opacity:1"
       d="m 160.1743,282.2402 c 0.875,-2.039 2.347,-4.844 4.798,-7.701 2.684,-3.129 5.503,-5.108 7.5,-6.289" /><path
       inkscape:connector-curvature="0"
       id="path5480"
       style="fill:none;stroke:#f57716;stroke-width:0.47999999;stroke-linecap:round;stroke-linejoin:miter;stroke-miterlimit:10;stroke-dasharray:none;stroke-opacity:1"
       d="m 169.6899,264.7422 c 0.498,0.951 1.498,2.561 3.306,3.99 1.734,1.375 3.451,1.981 4.475,2.26" /><path
       inkscape:connector-curvature="0"
       id="path5484"
       style="fill:none;stroke:#f36730;stroke-width:0.47999999;stroke-linecap:round;stroke-linejoin:miter;stroke-miterlimit:10;stroke-dasharray:none;stroke-opacity:1"
       d="m 179.0229,279.0156 c 3.712,-4.66 6.447,-5.605 8.361,-5.441 0.934,0.08 2.374,0.484 2.83,-0.122 0.613,-0.816 -1.275,-2.525 -0.6,-3.587 0.476,-0.754 1.93,-0.696 2.142,-0.686 3.718,0.15 6.252,6.752 6.561,7.578" /><path
       inkscape:connector-curvature="0"
       id="path5488"
       style="fill:#d71d29;fill-opacity:1;fill-rule:nonzero;stroke:none"
       d="m 172.3159,291.9473 c 0.267,-0.074 1.263,-0.131 1.039,-0.602 0.063,-0.457 -0.356,-0.648 -0.358,-0.648 -11.788,-7.855 9.409,-18.311 12.696,-14.422 1.265,1.494 -0.865,6.434 -2.382,10.248 -0.615,1.545 -0.263,2.119 -0.355,2.932 -0.331,2.887 -3.413,4.51 -5.907,3.482 -0.67,-0.277 -1.03,0.188 -1.63,0.442 -0.818,0.345 -1.637,0.115 -2.342,-0.536 -0.188,-0.171 -0.356,-0.369 -0.522,-0.566 -0.09,-0.105 -0.185,-0.213 -0.268,-0.322 0.008,-0.002 0.017,-0.006 0.029,-0.008" /><path
       inkscape:connector-curvature="0"
       id="path5492"
       style="fill:none;stroke:#f36730;stroke-width:0.23999999;stroke-linecap:butt;stroke-linejoin:miter;stroke-miterlimit:10;stroke-dasharray:none;stroke-opacity:1"
       d="m 172.3159,291.9473 c 0.267,-0.074 1.263,-0.131 1.039,-0.602 0.063,-0.457 -0.356,-0.648 -0.358,-0.648 -11.788,-7.855 9.409,-18.311 12.696,-14.422 1.265,1.494 -0.865,6.434 -2.382,10.248 -0.615,1.545 -0.263,2.119 -0.355,2.932 -0.331,2.887 -3.413,4.51 -5.907,3.482 -0.67,-0.277 -1.03,0.188 -1.63,0.442 -0.818,0.345 -1.637,0.115 -2.342,-0.536 -0.188,-0.171 -0.356,-0.369 -0.522,-0.566 -0.09,-0.105 -0.185,-0.213 -0.268,-0.322 0.008,-0.002 0.017,-0.006 0.029,-0.008 z" /><path
       inkscape:connector-curvature="0"
       id="path5496"
       style="fill:none;stroke:#f36730;stroke-width:0.47999999;stroke-linecap:round;stroke-linejoin:miter;stroke-miterlimit:10;stroke-dasharray:none;stroke-opacity:1"
       d="m 190.0024,269.4727 c 0.654,-0.322 1.919,-1.061 2.916,-2.516 0.669,-0.98 0.973,-1.925 1.118,-2.556" /></g></svg>