<?xml version="1.0" encoding="UTF-8" standalone="no"?>
<!-- Created with Inkscape (http://www.inkscape.org/) -->

<svg
   xmlns:dc="http://purl.org/dc/elements/1.1/"
   xmlns:cc="http://creativecommons.org/ns#"
   xmlns:rdf="http://www.w3.org/1999/02/22-rdf-syntax-ns#"
   xmlns:svg="http://www.w3.org/2000/svg"
   xmlns="http://www.w3.org/2000/svg"
   xmlns:sodipodi="http://sodipodi.sourceforge.net/DTD/sodipodi-0.dtd"
   xmlns:inkscape="http://www.inkscape.org/namespaces/inkscape"
   id="svg4136"
   version="1.1"
   inkscape:version="0.91 r13725"
   xml:space="preserve"
   width="223.4375"
   height="160.9075"
   viewBox="0 0 223.4375 160.9075"
   sodipodi:docname="topmed_logo_all.pdf"><metadata
     id="metadata4142"><rdf:RDF><cc:Work
         rdf:about=""><dc:format>image/svg+xml</dc:format><dc:type
           rdf:resource="http://purl.org/dc/dcmitype/StillImage" /><dc:title></dc:title></cc:Work></rdf:RDF></metadata><defs
     id="defs4140"><clipPath
       clipPathUnits="userSpaceOnUse"
       id="clipPath4150"><path
         d="M 0,756 576,756 576,0 0,0 0,756 Z"
         id="path4152"
         inkscape:connector-curvature="0" /></clipPath><clipPath
       clipPathUnits="userSpaceOnUse"
       id="clipPath4166"><path
         d="m 97.2656,658.822 165.3644,0 0,-72.892 -165.3644,0 0,72.892 z"
         id="path4168"
         inkscape:connector-curvature="0" /></clipPath><clipPath
       clipPathUnits="userSpaceOnUse"
       id="clipPath4312"><path
         d="M 0,756 576,756 576,0 0,0 0,756 Z"
         id="path4314"
         inkscape:connector-curvature="0" /></clipPath><clipPath
       clipPathUnits="userSpaceOnUse"
       id="clipPath4328"><path
         d="m 97.2656,658.822 165.3644,0 0,-72.892 -165.3644,0 0,72.892 z"
         id="path4330"
         inkscape:connector-curvature="0" /></clipPath><clipPath
       clipPathUnits="userSpaceOnUse"
       id="clipPath4474"><path
         d="M 0,756 576,756 576,0 0,0 0,756 Z"
         id="path4476"
         inkscape:connector-curvature="0" /></clipPath><clipPath
       clipPathUnits="userSpaceOnUse"
       id="clipPath4624"><path
         d="M 0,756 576,756 576,0 0,0 0,756 Z"
         id="path4626"
         inkscape:connector-curvature="0" /></clipPath><clipPath
       clipPathUnits="userSpaceOnUse"
       id="clipPath4770"><path
         d="M 0,756 576,756 576,0 0,0 0,756 Z"
         id="path4772"
         inkscape:connector-curvature="0" /></clipPath><clipPath
       clipPathUnits="userSpaceOnUse"
       id="clipPath4794"><path
         d="M 0,756 576,756 576,0 0,0 0,756 Z"
         id="path4796"
         inkscape:connector-curvature="0" /></clipPath><clipPath
       clipPathUnits="userSpaceOnUse"
       id="clipPath4934"><path
         d="M 0,756 576,756 576,0 0,0 0,756 Z"
         id="path4936"
         inkscape:connector-curvature="0" /></clipPath><clipPath
       clipPathUnits="userSpaceOnUse"
       id="clipPath5084"><path
         d="M 0,756 576,756 576,0 0,0 0,756 Z"
         id="path5086"
         inkscape:connector-curvature="0" /></clipPath><clipPath
       clipPathUnits="userSpaceOnUse"
       id="clipPath5230"><path
         d="M 0,756 576,756 576,0 0,0 0,756 Z"
         id="path5232"
         inkscape:connector-curvature="0" /></clipPath><clipPath
       clipPathUnits="userSpaceOnUse"
       id="clipPath5374"><path
         d="M 0,756 576,756 576,0 0,0 0,756 Z"
         id="path5376"
         inkscape:connector-curvature="0" /></clipPath><clipPath
       clipPathUnits="userSpaceOnUse"
       id="clipPath5514"><path
         d="M 0,756 576,756 576,0 0,0 0,756 Z"
         id="path5516"
         inkscape:connector-curvature="0" /></clipPath></defs><sodipodi:namedview
     pagecolor="#ffffff"
     bordercolor="#666666"
     borderopacity="1"
     objecttolerance="10"
     gridtolerance="10"
     guidetolerance="10"
     inkscape:pageopacity="0"
     inkscape:pageshadow="2"
     inkscape:window-width="1857"
     inkscape:window-height="1403"
     id="namedview4138"
     showgrid="false"
     inkscape:zoom="1.3089947"
     inkscape:cx="-152.0245"
     inkscape:cy="317.5855"
     inkscape:window-x="65"
     inkscape:window-y="0"
     inkscape:window-maximized="0"
     inkscape:current-layer="g4144"
     fit-margin-top="0"
     fit-margin-left="0"
     fit-margin-right="0"
     fit-margin-bottom="0" /><g
     id="g4144"
     inkscape:groupmode="layer"
     inkscape:label="topmed_logo_all"
     transform="matrix(1.25,0,0,-1.25,-397.558,237.73975)"><path
       inkscape:connector-curvature="0"
       id="path4776"
       style="fill:#ffffff;fill-opacity:1;fill-rule:nonzero;stroke:none"
       d="m 407.4214,62.4658 c 48.809,0 88.375,28.369 88.375,63.362 0,34.995 -39.566,63.364 -88.375,63.364 -48.809,0 -88.375,-28.369 -88.375,-63.364 0,-34.993 39.566,-63.362 88.375,-63.362" /><path
       inkscape:connector-curvature="0"
       id="path4780"
       style="fill:none;stroke:#bdbcbc;stroke-width:2;stroke-linecap:butt;stroke-linejoin:miter;stroke-miterlimit:4;stroke-dasharray:none;stroke-opacity:1"
       d="m 407.4214,62.4658 c 48.809,0 88.375,28.369 88.375,63.362 0,34.995 -39.566,63.364 -88.375,63.364 -48.809,0 -88.375,-28.369 -88.375,-63.364 0,-34.993 39.566,-63.362 88.375,-63.362 z" /><text
       transform="matrix(1,0,0,-1,361.0845,75.1265)"
       style="font-variant:normal;font-weight:bold;font-stretch:normal;font-size:21px;font-family:Rockwell;-inkscape-font-specification:Rockwell-Bold;writing-mode:lr-tb;fill:#231f20;fill-opacity:1;fill-rule:nonzero;stroke:none"
       id="text4782"><tspan
         x="0 13.692 31.625999 45.632999 67.514999 79.547997"
         y="0"
         sodipodi:role="line"
         id="tspan4784">TOPMed</tspan></text>
<text
       transform="matrix(1,0,0,-1,380.4014,166.3833)"
       style="font-variant:normal;font-weight:normal;font-stretch:normal;font-size:19px;font-family:Rockwell;-inkscape-font-specification:Rockwell;writing-mode:lr-tb;fill:#231f20;fill-opacity:1;fill-rule:nonzero;stroke:none"
       id="text4786"><tspan
         x="0 13.661 27.113001 37.012001 48.089001"
         y="0"
         sodipodi:role="line"
         id="tspan4788">NHLBI</tspan></text>
<path
       inkscape:connector-curvature="0"
       id="path4800"
       style="fill:#6eb4e1;fill-opacity:1;fill-rule:nonzero;stroke:none"
       d="m 469.9761,162.5527 c 0,0 -3.896,-2.094 -4.48,-2.967 -0.584,-0.877 -0.567,-3.398 -0.29,-4.769 0.28,-1.371 3.155,-9.717 6.391,-16.914 2.877,-8.008 3.734,-13.588 2.207,-14.481 1.94,1.401 2.996,1.877 3.818,2.693 0.27,0.268 0.723,1.875 0.122,5.083 -0.602,3.207 -8.579,23.244 -8.938,24.736 -0.359,1.492 -0.18,5 1.17,6.619" /><path
       inkscape:connector-curvature="0"
       id="path4804"
       style="fill:none;stroke:#3b87cb;stroke-width:0.23999999;stroke-linecap:butt;stroke-linejoin:miter;stroke-miterlimit:10;stroke-dasharray:none;stroke-opacity:1"
       d="m 469.9761,162.5527 c 0,0 -3.896,-2.094 -4.48,-2.967 -0.584,-0.877 -0.567,-3.398 -0.29,-4.769 0.28,-1.371 3.155,-9.717 6.391,-16.914 2.877,-8.008 3.734,-13.588 2.207,-14.481 1.94,1.401 2.996,1.877 3.818,2.693 0.27,0.268 0.723,1.875 0.122,5.083 -0.602,3.207 -8.579,23.244 -8.938,24.736 -0.359,1.492 -0.18,5 1.17,6.619 z" /><path
       inkscape:connector-curvature="0"
       id="path4808"
       style="fill:#6eb4e1;fill-opacity:1;fill-rule:nonzero;stroke:#3b87cb;stroke-width:0.23999999;stroke-linecap:butt;stroke-linejoin:miter;stroke-miterlimit:10;stroke-dasharray:none;stroke-opacity:1"
       d="m 406.5698,92.5566 c 22.67,-0.852 41.082,17.336 40.414,37.426 0,0 -0.715,8.269 0.014,13.006 0.597,3.894 2.9,5.513 2.9,5.513 0,0 -4.744,-2.877 -5.654,-3.582 -1.977,-1.533 -1.994,-2.763 -1.973,-12.728 0.608,-20.367 -16.89,-34.453 -35.988,-34.453" /><path
       inkscape:connector-curvature="0"
       id="path4812"
       style="fill:#f57716;fill-opacity:1;fill-rule:nonzero;stroke:none"
       d="m 327.6836,133.7637 c 0,0 1.979,-0.541 3.869,0.629 1.889,1.17 16.343,18.59 17.454,19.705 1.665,1.668 3.555,2.777 4.93,2.086 1.622,-0.99 5.057,-3.348 4.877,-3.258 -0.179,0.092 -3.418,0.901 -5.668,-0.269 -2.249,-1.17 -13.316,-16.016 -13.316,-16.016 0,0 -4.768,-4.838 -6.838,-5.379 -2.069,-0.539 -5.308,2.502 -5.308,2.502" /><path
       inkscape:connector-curvature="0"
       id="path4816"
       style="fill:none;stroke:#d71d29;stroke-width:0.23999999;stroke-linecap:butt;stroke-linejoin:miter;stroke-miterlimit:10;stroke-dasharray:none;stroke-opacity:1"
       d="m 327.6836,133.7637 c 0,0 1.979,-0.541 3.869,0.629 1.889,1.17 16.343,18.59 17.454,19.705 1.665,1.668 3.555,2.777 4.93,2.086 1.622,-0.99 5.057,-3.348 4.877,-3.258 -0.179,0.092 -3.418,0.901 -5.668,-0.269 -2.249,-1.17 -13.316,-16.016 -13.316,-16.016 0,0 -4.768,-4.838 -6.838,-5.379 -2.069,-0.539 -5.308,2.502 -5.308,2.502 z" /><path
       inkscape:connector-curvature="0"
       id="path4820"
       style="fill:#6eb4e1;fill-opacity:1;fill-rule:nonzero;stroke:none"
       d="m 337.5908,125.9121 c 0,0 3.202,-0.199 5.498,0.742 2.849,1.17 13.086,15.547 15.211,17.346 2.127,1.799 4.94,5.492 6.645,4.789 1.273,-0.523 5.654,-3.869 5.654,-3.869 0,0 -3.058,1.619 -5.127,0 -2.07,-1.621 -11.013,-12.274 -13.736,-16.117 -2.667,-3.762 -7.26,-6.627 -10.493,-5.539 -3.095,2.236 -3.652,2.648 -3.652,2.648" /><path
       inkscape:connector-curvature="0"
       id="path4824"
       style="fill:none;stroke:#3b87cb;stroke-width:0.23999999;stroke-linecap:butt;stroke-linejoin:miter;stroke-miterlimit:10;stroke-dasharray:none;stroke-opacity:1"
       d="m 337.5908,125.9121 c 0,0 3.202,-0.199 5.498,0.742 2.849,1.17 13.086,15.547 15.211,17.346 2.127,1.799 4.94,5.492 6.645,4.789 1.273,-0.523 5.654,-3.869 5.654,-3.869 0,0 -3.058,1.619 -5.127,0 -2.07,-1.621 -11.013,-12.274 -13.736,-16.117 -2.667,-3.762 -7.26,-6.627 -10.493,-5.539 -3.095,2.236 -3.652,2.648 -3.652,2.648 z" /><path
       inkscape:connector-curvature="0"
       id="path4828"
       style="fill:#f57716;fill-opacity:1;fill-rule:nonzero;stroke:none"
       d="m 358.814,152.9258 c 0.902,-0.732 0.771,-5.438 -0.781,-9.131 -1.182,-2.807 -10.718,-21.801 -8.209,-26.928 -3.339,2.877 -3.512,2.748 -4.056,3.311 -1.287,1.33 1.91,10.346 4.149,16.014 2.239,5.67 5.7,11.728 5.741,16.13 0.017,1.62 -1.434,3.573 -1.434,3.573 0,0 3.688,-2.235 4.59,-2.969" /><path
       inkscape:connector-curvature="0"
       id="path4832"
       style="fill:none;stroke:#d71d29;stroke-width:0.23999999;stroke-linecap:butt;stroke-linejoin:miter;stroke-miterlimit:10;stroke-dasharray:none;stroke-opacity:1"
       d="m 358.814,152.9258 c 0.902,-0.732 0.771,-5.438 -0.781,-9.131 -1.182,-2.807 -10.718,-21.801 -8.209,-26.928 -3.339,2.877 -3.512,2.748 -4.056,3.311 -1.287,1.33 1.91,10.346 4.149,16.014 2.239,5.67 5.7,11.728 5.741,16.13 0.017,1.62 -1.434,3.573 -1.434,3.573 0,0 3.688,-2.235 4.59,-2.969 z" /><path
       inkscape:connector-curvature="0"
       id="path4836"
       style="fill:#6eb4e1;fill-opacity:1;fill-rule:nonzero;stroke:none"
       d="m 344.8682,162.5527 c 0,0 3.896,-2.094 4.48,-2.967 0.584,-0.877 0.567,-3.398 0.289,-4.769 -0.28,-1.371 -3.155,-9.717 -6.392,-16.914 -2.876,-8.008 -3.733,-13.588 -2.205,-14.481 -1.941,1.401 -2.998,1.877 -3.819,2.693 -0.27,0.268 -0.722,1.875 -0.121,5.083 0.601,3.207 8.578,23.244 8.938,24.736 0.358,1.492 0.18,5 -1.17,6.619" /><path
       inkscape:connector-curvature="0"
       id="path4840"
       style="fill:none;stroke:#3b87cb;stroke-width:0.23999999;stroke-linecap:butt;stroke-linejoin:miter;stroke-miterlimit:10;stroke-dasharray:none;stroke-opacity:1"
       d="m 344.8682,162.5527 c 0,0 3.896,-2.094 4.48,-2.967 0.584,-0.877 0.567,-3.398 0.289,-4.769 -0.28,-1.371 -3.155,-9.717 -6.392,-16.914 -2.876,-8.008 -3.733,-13.588 -2.205,-14.481 -1.941,1.401 -2.998,1.877 -3.819,2.693 -0.27,0.268 -0.722,1.875 -0.121,5.083 0.601,3.207 8.578,23.244 8.938,24.736 0.358,1.492 0.18,5 -1.17,6.619 z" /><path
       inkscape:connector-curvature="0"
       id="path4844"
       style="fill:#6eb4e1;fill-opacity:1;fill-rule:nonzero;stroke:#3b87cb;stroke-width:0.23999999;stroke-linecap:butt;stroke-linejoin:miter;stroke-miterlimit:10;stroke-dasharray:none;stroke-opacity:1"
       d="m 408.2729,92.5566 c -22.67,-0.852 -41.082,17.336 -40.412,37.426 0,0 0.066,9.078 -0.662,13.812 -0.6,3.893 -2.252,4.994 -2.252,4.994 0,0 4.742,-3.164 5.652,-3.869 1.998,-1.547 1.688,-13.304 1.688,-13.304 -0.61,-20.368 17.177,-33.877 36.275,-33.877" /><path
       inkscape:connector-curvature="0"
       id="path4848"
       style="fill:#f57716;fill-opacity:1;fill-rule:nonzero;stroke:none"
       d="m 487.1597,133.7637 c 0,0 -2.133,-0.756 -3.869,0.629 -3.106,2.478 -16.338,19.027 -17.244,19.92 -1.678,1.654 -3.766,2.562 -5.141,1.871 -1.619,-0.99 -5.057,-3.348 -4.877,-3.258 0.182,0.092 3.42,0.901 5.67,-0.269 2.248,-1.17 7.184,-8.286 7.184,-8.286 0,0 10.9,-12.568 12.97,-13.109 2.069,-0.539 5.307,2.502 5.307,2.502" /><path
       inkscape:connector-curvature="0"
       id="path4852"
       style="fill:none;stroke:#d71d29;stroke-width:0.23999999;stroke-linecap:butt;stroke-linejoin:miter;stroke-miterlimit:10;stroke-dasharray:none;stroke-opacity:1"
       d="m 487.1597,133.7637 c 0,0 -2.133,-0.756 -3.869,0.629 -3.106,2.478 -16.338,19.027 -17.244,19.92 -1.678,1.654 -3.766,2.562 -5.141,1.871 -1.619,-0.99 -5.057,-3.348 -4.877,-3.258 0.182,0.092 3.42,0.901 5.67,-0.269 2.248,-1.17 7.184,-8.286 7.184,-8.286 0,0 10.9,-12.568 12.97,-13.109 2.069,-0.539 5.307,2.502 5.307,2.502 z" /><path
       inkscape:connector-curvature="0"
       id="path4856"
       style="fill:#f57716;fill-opacity:1;fill-rule:nonzero;stroke:none"
       d="m 439.0073,147.7383 c 10.119,-6.604 19.67,-25.207 23.24,-27.221 2.141,-1.205 6.233,-0.933 6.233,-0.933 l -3.84,-3.293 c 0,0 -1.684,-0.864 -4.352,0.574 -3.334,1.799 -11.972,16.189 -17.142,21.918 -5.17,5.728 -13.448,10.021 -21.592,12.344 -8.147,2.322 -20.119,2.322 -28.264,0 -8.144,-2.323 -16.422,-6.653 -21.594,-12.381 -1.818,-2.012 -3.408,-4.237 -4.988,-6.44 -2.41,-3.365 -4.728,-6.797 -7.205,-10.115 -1.01,-1.351 -3.029,-3.947 -5.551,-5.326 -2.161,-1.182 -3.6,-0.512 -3.79,-0.348 -0.484,0.416 -3.947,3.383 -4.108,3.395 1.051,-0.086 2.325,-0.244 3.371,-0.127 3.752,0.42 5.617,3.785 7.549,6.574 2.357,3.404 4.748,6.789 7.32,10.035 2.678,3.377 5.543,6.694 8.891,9.426 0.845,0.689 1.724,1.34 2.65,1.918 5.576,3.471 11.805,9.223 30.158,9.969 18.11,0.734 29.721,-7.819 33.014,-9.969" /><path
       inkscape:connector-curvature="0"
       id="path4860"
       style="fill:none;stroke:#d71d29;stroke-width:0.23999999;stroke-linecap:butt;stroke-linejoin:miter;stroke-miterlimit:10;stroke-dasharray:none;stroke-opacity:1"
       d="m 439.0073,147.7383 c 10.119,-6.604 19.67,-25.207 23.24,-27.221 2.141,-1.205 6.233,-0.933 6.233,-0.933 l -3.84,-3.293 c 0,0 -1.684,-0.864 -4.352,0.574 -3.334,1.799 -11.972,16.189 -17.142,21.918 -5.17,5.728 -13.448,10.021 -21.592,12.344 -8.147,2.322 -20.119,2.322 -28.264,0 -8.144,-2.323 -16.422,-6.653 -21.594,-12.381 -1.818,-2.012 -3.408,-4.237 -4.988,-6.44 -2.41,-3.365 -4.728,-6.797 -7.205,-10.115 -1.01,-1.351 -3.029,-3.947 -5.551,-5.326 -2.161,-1.182 -3.6,-0.512 -3.79,-0.348 -0.484,0.416 -3.947,3.383 -4.108,3.395 1.051,-0.086 2.325,-0.244 3.371,-0.127 3.752,0.42 5.617,3.785 7.549,6.574 2.357,3.404 4.748,6.789 7.32,10.035 2.678,3.377 5.543,6.694 8.891,9.426 0.845,0.689 1.724,1.34 2.65,1.918 5.576,3.471 11.805,9.223 30.158,9.969 18.11,0.734 29.721,-7.819 33.014,-9.969 z" /><path
       inkscape:connector-curvature="0"
       id="path4864"
       style="fill:#f57716;fill-opacity:1;fill-rule:nonzero;stroke:none"
       d="m 456.0308,152.9258 c -0.904,-0.732 -0.773,-5.438 0.781,-9.131 1.18,-2.807 10.657,-22.019 8.147,-27.148 3.34,2.879 3.574,2.968 4.117,3.531 1.287,1.33 -1.91,10.346 -4.149,16.014 -2.24,5.67 -5.699,11.728 -5.742,16.13 -0.015,1.62 1.434,3.573 1.434,3.573 0,0 -3.686,-2.235 -4.588,-2.969" /><path
       inkscape:connector-curvature="0"
       id="path4868"
       style="fill:none;stroke:#d71d29;stroke-width:0.23999999;stroke-linecap:butt;stroke-linejoin:miter;stroke-miterlimit:10;stroke-dasharray:none;stroke-opacity:1"
       d="m 456.0308,152.9258 c -0.904,-0.732 -0.773,-5.438 0.781,-9.131 1.18,-2.807 10.657,-22.019 8.147,-27.148 3.34,2.879 3.574,2.968 4.117,3.531 1.287,1.33 -1.91,10.346 -4.149,16.014 -2.24,5.67 -5.699,11.728 -5.742,16.13 -0.015,1.62 1.434,3.573 1.434,3.573 0,0 -3.686,-2.235 -4.588,-2.969 z" /><path
       inkscape:connector-curvature="0"
       id="path4872"
       style="fill:#6eb4e1;fill-opacity:1;fill-rule:nonzero;stroke:none"
       d="m 477.2534,125.9121 c 0,0 -2.305,-0.672 -5.498,0.742 -4.832,2.143 -12.006,13.832 -17.465,19.549 -3.023,3.166 -4.475,2.502 -4.906,2.324 -1.274,-0.525 -5.141,-3.607 -5.141,-3.607 0,0 2.963,1.49 5.129,0 2.039,-1.404 3.654,-4.112 8.068,-9.389 3.1,-3.705 6.588,-7.953 9.565,-10.586 3.084,-2.724 5.584,-2.021 6.596,-1.681 3.095,2.236 3.652,2.648 3.652,2.648" /><path
       inkscape:connector-curvature="0"
       id="path4876"
       style="fill:none;stroke:#3b87cb;stroke-width:0.23999999;stroke-linecap:butt;stroke-linejoin:miter;stroke-miterlimit:10;stroke-dasharray:none;stroke-opacity:1"
       d="m 477.2534,125.9121 c 0,0 -2.305,-0.672 -5.498,0.742 -4.832,2.143 -12.006,13.832 -17.465,19.549 -3.023,3.166 -4.475,2.502 -4.906,2.324 -1.274,-0.525 -5.141,-3.607 -5.141,-3.607 0,0 2.963,1.49 5.129,0 2.039,-1.404 3.654,-4.112 8.068,-9.389 3.1,-3.705 6.588,-7.953 9.565,-10.586 3.084,-2.724 5.584,-2.021 6.596,-1.681 3.095,2.236 3.652,2.648 3.652,2.648 z" /><path
       inkscape:connector-curvature="0"
       id="path4880"
       style="fill:#f57716;fill-opacity:1;fill-rule:nonzero;stroke:#d71d29;stroke-width:0.23999999;stroke-linecap:butt;stroke-linejoin:miter;stroke-miterlimit:10;stroke-dasharray:none;stroke-opacity:1"
       d="m 464.6401,116.291 c 0,0 -1.691,-0.873 -4.352,0.576 -4.117,2.244 -11.97,16.188 -17.142,21.916" /><path
       inkscape:connector-curvature="0"
       id="path4884"
       style="fill:#6eb4e1;fill-opacity:1;fill-rule:nonzero;stroke:none"
       d="m 429.4019,122.5664 c -0.291,8.316 -3.861,14.043 -5.898,17.221 -2.143,3.342 -5.53,8.625 -8.493,8.021 -2.433,-0.496 -6.213,-5.295 -8.728,-8.494 l 0,-0.15 c -2.518,3.197 -6.295,7.996 -8.729,8.492 -2.963,0.603 -6.351,-4.68 -8.492,-8.02 -2.039,-3.177 -5.607,-8.902 -5.898,-17.222 -0.18,-5.084 -0.42,-11.934 4.009,-15.098 5.426,-2.08 17.354,3.326 17.221,4.008 -0.07,0.369 0.367,10.513 1.889,10.469 1.519,-0.045 1.957,-9.948 1.887,-10.317 -0.133,-0.683 11.794,-6.088 17.22,-4.01 4.43,3.166 4.19,10.016 4.012,15.1" /><path
       inkscape:connector-curvature="0"
       id="path4888"
       style="fill:none;stroke:#f36730;stroke-width:0.23999999;stroke-linecap:butt;stroke-linejoin:miter;stroke-miterlimit:10;stroke-dasharray:none;stroke-opacity:1"
       d="m 429.4019,122.5664 c -0.291,8.316 -3.861,14.043 -5.898,17.221 -2.143,3.342 -5.53,8.625 -8.493,8.021 -2.433,-0.496 -6.213,-5.295 -8.728,-8.494 l 0,-0.15 c -2.518,3.197 -6.295,7.996 -8.729,8.492 -2.963,0.603 -6.351,-4.68 -8.492,-8.02 -2.039,-3.177 -5.607,-8.902 -5.898,-17.222 -0.18,-5.084 -0.42,-11.934 4.009,-15.098 5.426,-2.08 17.354,3.326 17.221,4.008 -0.07,0.369 0.367,10.513 1.889,10.469 1.519,-0.045 1.957,-9.948 1.887,-10.317 -0.133,-0.683 11.794,-6.088 17.22,-4.01 4.43,3.166 4.19,10.016 4.012,15.1 z" /><path
       inkscape:connector-curvature="0"
       id="path4892"
       style="fill:none;stroke:#f36730;stroke-width:0.47999999;stroke-linecap:round;stroke-linejoin:miter;stroke-miterlimit:10;stroke-dasharray:none;stroke-opacity:1"
       d="m 407.1089,122.9551 c -1.119,-0.852 -2.121,-1.146 -5.037,-1.549 -3.764,-0.519 -7.149,0.541 -9.397,1.623 -4.095,1.967 -6.724,5.451 -8.332,7.533" /><path
       inkscape:connector-curvature="0"
       id="path4896"
       style="fill:none;stroke:#f57716;stroke-width:0.47999999;stroke-linecap:round;stroke-linejoin:miter;stroke-miterlimit:10;stroke-dasharray:none;stroke-opacity:1"
       d="m 383.6655,128.6719 c 1.051,-2.447 2.818,-5.818 5.764,-9.252 3.224,-3.76 6.611,-6.137 9.009,-7.557" /><path
       inkscape:connector-curvature="0"
       id="path4900"
       style="fill:none;stroke:#f57716;stroke-width:0.47999999;stroke-linecap:round;stroke-linejoin:miter;stroke-miterlimit:10;stroke-dasharray:none;stroke-opacity:1"
       d="m 395.0972,107.6504 c 0.598,1.143 1.799,3.074 3.971,4.795 2.084,1.65 4.146,2.377 5.377,2.713" /><path
       inkscape:connector-curvature="0"
       id="path4904"
       style="fill:none;stroke:#f36730;stroke-width:0.47999999;stroke-linecap:round;stroke-linejoin:miter;stroke-miterlimit:10;stroke-dasharray:none;stroke-opacity:1"
       d="m 406.3101,124.7988 c 4.461,-5.6 7.746,-6.734 10.045,-6.537 1.123,0.096 2.853,0.58 3.4,-0.147 0.737,-0.98 -1.531,-3.035 -0.72,-4.31 0.572,-0.906 2.318,-0.834 2.574,-0.824 4.467,0.181 7.512,8.111 7.883,9.105" /><path
       inkscape:connector-curvature="0"
       id="path4908"
       style="fill:#d71d29;fill-opacity:1;fill-rule:nonzero;stroke:none"
       d="m 398.2515,140.334 c 0.32,-0.088 1.518,-0.154 1.25,-0.723 0.074,-0.547 -0.43,-0.777 -0.432,-0.777 -14.162,-9.438 11.305,-22 15.254,-17.328 1.52,1.797 -1.039,7.73 -2.861,12.312 -0.74,1.858 -0.316,2.547 -0.428,3.524 -0.396,3.469 -4.099,5.418 -7.095,4.183 -0.807,-0.332 -1.239,0.227 -1.959,0.532 -0.983,0.414 -1.967,0.136 -2.815,-0.643 -0.225,-0.207 -0.426,-0.445 -0.627,-0.682 -0.107,-0.127 -0.223,-0.255 -0.322,-0.386 0.012,-0.004 0.021,-0.008 0.035,-0.012" /><path
       inkscape:connector-curvature="0"
       id="path4912"
       style="fill:none;stroke:#f36730;stroke-width:0.23999999;stroke-linecap:butt;stroke-linejoin:miter;stroke-miterlimit:10;stroke-dasharray:none;stroke-opacity:1"
       d="m 398.2515,140.334 c 0.32,-0.088 1.518,-0.154 1.25,-0.723 0.074,-0.547 -0.43,-0.777 -0.432,-0.777 -14.162,-9.438 11.305,-22 15.254,-17.328 1.52,1.797 -1.039,7.73 -2.861,12.312 -0.74,1.858 -0.316,2.547 -0.428,3.524 -0.396,3.469 -4.099,5.418 -7.095,4.183 -0.807,-0.332 -1.239,0.227 -1.959,0.532 -0.983,0.414 -1.967,0.136 -2.815,-0.643 -0.225,-0.207 -0.426,-0.445 -0.627,-0.682 -0.107,-0.127 -0.223,-0.255 -0.322,-0.386 0.012,-0.004 0.021,-0.008 0.035,-0.012 z" /><path
       inkscape:connector-curvature="0"
       id="path4916"
       style="fill:none;stroke:#f36730;stroke-width:0.47999999;stroke-linecap:round;stroke-linejoin:miter;stroke-miterlimit:10;stroke-dasharray:none;stroke-opacity:1"
       d="m 419.5015,113.334 c 0.787,-0.389 2.307,-1.273 3.504,-3.023 0.803,-1.178 1.168,-2.313 1.344,-3.071" /></g></svg>