<?xml version="1.0" encoding="UTF-8" standalone="no"?>
<!-- Created with Inkscape (http://www.inkscape.org/) -->

<svg
   xmlns:dc="http://purl.org/dc/elements/1.1/"
   xmlns:cc="http://creativecommons.org/ns#"
   xmlns:rdf="http://www.w3.org/1999/02/22-rdf-syntax-ns#"
   xmlns:svg="http://www.w3.org/2000/svg"
   xmlns="http://www.w3.org/2000/svg"
   xmlns:sodipodi="http://sodipodi.sourceforge.net/DTD/sodipodi-0.dtd"
   xmlns:inkscape="http://www.inkscape.org/namespaces/inkscape"
   id="svg4136"
   version="1.1"
   inkscape:version="0.91 r13725"
   xml:space="preserve"
   width="173.50002"
   height="163.13002"
   viewBox="0 0 173.50002 163.13002"
   sodipodi:docname="topmed_logo_all.pdf"><metadata
     id="metadata4142"><rdf:RDF><cc:Work
         rdf:about=""><dc:format>image/svg+xml</dc:format><dc:type
           rdf:resource="http://purl.org/dc/dcmitype/StillImage" /><dc:title></dc:title></cc:Work></rdf:RDF></metadata><defs
     id="defs4140"><clipPath
       clipPathUnits="userSpaceOnUse"
       id="clipPath4150"><path
         d="M 0,756 576,756 576,0 0,0 0,756 Z"
         id="path4152"
         inkscape:connector-curvature="0" /></clipPath><clipPath
       clipPathUnits="userSpaceOnUse"
       id="clipPath4166"><path
         d="m 97.2656,658.822 165.3644,0 0,-72.892 -165.3644,0 0,72.892 z"
         id="path4168"
         inkscape:connector-curvature="0" /></clipPath><clipPath
       clipPathUnits="userSpaceOnUse"
       id="clipPath4312"><path
         d="M 0,756 576,756 576,0 0,0 0,756 Z"
         id="path4314"
         inkscape:connector-curvature="0" /></clipPath><clipPath
       clipPathUnits="userSpaceOnUse"
       id="clipPath4328"><path
         d="m 97.2656,658.822 165.3644,0 0,-72.892 -165.3644,0 0,72.892 z"
         id="path4330"
         inkscape:connector-curvature="0" /></clipPath><clipPath
       clipPathUnits="userSpaceOnUse"
       id="clipPath4474"><path
         d="M 0,756 576,756 576,0 0,0 0,756 Z"
         id="path4476"
         inkscape:connector-curvature="0" /></clipPath><clipPath
       clipPathUnits="userSpaceOnUse"
       id="clipPath4624"><path
         d="M 0,756 576,756 576,0 0,0 0,756 Z"
         id="path4626"
         inkscape:connector-curvature="0" /></clipPath><clipPath
       clipPathUnits="userSpaceOnUse"
       id="clipPath4770"><path
         d="M 0,756 576,756 576,0 0,0 0,756 Z"
         id="path4772"
         inkscape:connector-curvature="0" /></clipPath><clipPath
       clipPathUnits="userSpaceOnUse"
       id="clipPath4794"><path
         d="M 0,756 576,756 576,0 0,0 0,756 Z"
         id="path4796"
         inkscape:connector-curvature="0" /></clipPath><clipPath
       clipPathUnits="userSpaceOnUse"
       id="clipPath4934"><path
         d="M 0,756 576,756 576,0 0,0 0,756 Z"
         id="path4936"
         inkscape:connector-curvature="0" /></clipPath><clipPath
       clipPathUnits="userSpaceOnUse"
       id="clipPath5084"><path
         d="M 0,756 576,756 576,0 0,0 0,756 Z"
         id="path5086"
         inkscape:connector-curvature="0" /></clipPath><clipPath
       clipPathUnits="userSpaceOnUse"
       id="clipPath5230"><path
         d="M 0,756 576,756 576,0 0,0 0,756 Z"
         id="path5232"
         inkscape:connector-curvature="0" /></clipPath><clipPath
       clipPathUnits="userSpaceOnUse"
       id="clipPath5374"><path
         d="M 0,756 576,756 576,0 0,0 0,756 Z"
         id="path5376"
         inkscape:connector-curvature="0" /></clipPath><clipPath
       clipPathUnits="userSpaceOnUse"
       id="clipPath5514"><path
         d="M 0,756 576,756 576,0 0,0 0,756 Z"
         id="path5516"
         inkscape:connector-curvature="0" /></clipPath></defs><sodipodi:namedview
     pagecolor="#ffffff"
     bordercolor="#666666"
     borderopacity="1"
     objecttolerance="10"
     gridtolerance="10"
     guidetolerance="10"
     inkscape:pageopacity="0"
     inkscape:pageshadow="2"
     inkscape:window-width="1857"
     inkscape:window-height="1403"
     id="namedview4138"
     showgrid="false"
     inkscape:zoom="1.3005291"
     inkscape:cx="-227.84303"
     inkscape:cy="303.83561"
     inkscape:window-x="65"
     inkscape:window-y="0"
     inkscape:window-maximized="0"
     inkscape:current-layer="g4144"
     fit-margin-top="0"
     fit-margin-left="0"
     fit-margin-right="0"
     fit-margin-bottom="0" /><g
     id="g4144"
     inkscape:groupmode="layer"
     inkscape:label="topmed_logo_all"
     transform="matrix(1.25,0,0,-1.25,-422.52762,651.00776)"><path
       inkscape:connector-curvature="0"
       id="path5060"
       style="fill:#ffffff;fill-opacity:1;fill-rule:nonzero;stroke:none"
       d="m 349.1021,519.8062 c 0,0 -10.08,0 -10.08,-10.08 l 0,-108.344 c 0,0 0,-10.08 10.08,-10.08 l 116.64,0 c 0,0 10.08,0 10.08,10.08 l 0,108.344 c 0,0 0,10.08 -10.08,10.08 l -116.64,0 z" /><path
       inkscape:connector-curvature="0"
       id="path5064"
       style="fill:none;stroke:#bdbcbc;stroke-width:2;stroke-linecap:butt;stroke-linejoin:miter;stroke-miterlimit:4;stroke-dasharray:none;stroke-opacity:1"
       d="m 349.1021,519.8062 c 0,0 -10.08,0 -10.08,-10.08 l 0,-108.344 c 0,0 0,-10.08 10.08,-10.08 l 116.64,0 c 0,0 10.08,0 10.08,10.08 l 0,108.344 c 0,0 0,10.08 -10.08,10.08 l -116.64,0 z" /><text
       transform="matrix(1,0,0,-1,384.6689,503.9878)"
       style="font-variant:normal;font-weight:normal;font-stretch:normal;font-size:16px;font-family:Rockwell;-inkscape-font-specification:Rockwell;writing-mode:lr-tb;fill:#231f20;fill-opacity:1;fill-rule:nonzero;stroke:none"
       id="text5066"><tspan
         x="0 11.504 22.832001 31.167999 40.495998"
         y="0"
         sodipodi:role="line"
         id="tspan5068">NHLBI</tspan></text>
<text
       transform="matrix(1,0,0,-1,361.0854,478.7876)"
       style="font-variant:normal;font-weight:bold;font-stretch:normal;font-size:21px;font-family:Rockwell;-inkscape-font-specification:Rockwell-Bold;writing-mode:lr-tb;fill:#231f20;fill-opacity:1;fill-rule:nonzero;stroke:none"
       id="text5070"><tspan
         x="0 13.692 31.625999 45.632999 67.514999 79.547997"
         y="0"
         sodipodi:role="line"
         id="tspan5072">TOPMed</tspan></text>
<text
       transform="matrix(1,0,0,-1,370.1665,409.9893)"
       style="font-variant:normal;font-weight:normal;font-stretch:normal;font-size:11px;font-family:Rockwell;-inkscape-font-specification:Rockwell;writing-mode:lr-tb;fill:#231f20;fill-opacity:1;fill-rule:nonzero;stroke:none"
       id="text5074"><tspan
         x="0 8.2609997 14.564 20.867001 24.079 30.382 33.132 39.798 46.101002 52.403999 58.707001 68.222"
         y="0"
         sodipodi:role="line"
         id="tspan5076">whole genome</tspan><tspan
         x="7.744 12.782 19.084999 25.85 32.042999 38.346001 44.648998 50.380001 53.591999 59.895"
         y="13.2"
         sodipodi:role="line"
         id="tspan5078">sequencing</tspan></text>
<path
       inkscape:connector-curvature="0"
       id="path5090"
       style="fill:#6eb4e1;fill-opacity:1;fill-rule:nonzero;stroke:none"
       d="m 459.4868,477.4751 c 0,0 -3.243,-1.743 -3.729,-2.471 -0.486,-0.728 -0.471,-2.827 -0.24,-3.97 0.233,-1.141 2.625,-8.086 5.32,-14.078 2.394,-6.664 3.107,-11.309 1.836,-12.051 1.614,1.164 2.494,1.563 3.178,2.24 0.224,0.223 0.601,1.561 0.1,4.233 -0.5,2.668 -7.14,19.346 -7.439,20.588 -0.297,1.24 -0.149,4.161 0.974,5.509" /><path
       inkscape:connector-curvature="0"
       id="path5094"
       style="fill:none;stroke:#3b87cb;stroke-width:0.23999999;stroke-linecap:butt;stroke-linejoin:miter;stroke-miterlimit:10;stroke-dasharray:none;stroke-opacity:1"
       d="m 459.4868,477.4751 c 0,0 -3.243,-1.743 -3.729,-2.471 -0.486,-0.728 -0.471,-2.827 -0.24,-3.97 0.233,-1.141 2.625,-8.086 5.32,-14.078 2.394,-6.664 3.107,-11.309 1.836,-12.051 1.614,1.164 2.494,1.563 3.178,2.24 0.224,0.223 0.601,1.561 0.1,4.233 -0.5,2.668 -7.14,19.346 -7.439,20.588 -0.297,1.24 -0.149,4.161 0.974,5.509 z" /><path
       inkscape:connector-curvature="0"
       id="path5098"
       style="fill:#6eb4e1;fill-opacity:1;fill-rule:nonzero;stroke:#3b87cb;stroke-width:0.23999999;stroke-linecap:butt;stroke-linejoin:miter;stroke-miterlimit:10;stroke-dasharray:none;stroke-opacity:1"
       d="m 406.7134,419.2139 c 18.868,-0.707 34.193,14.43 33.637,31.15 0,0 -0.595,6.883 0.01,10.827 0.499,3.242 2.415,4.589 2.415,4.589 0,0 -3.948,-2.396 -4.706,-2.982 -1.644,-1.275 -1.659,-2.301 -1.642,-10.594 0.506,-16.953 -14.059,-28.676 -29.954,-28.676" /><path
       inkscape:connector-curvature="0"
       id="path5102"
       style="fill:#f57716;fill-opacity:1;fill-rule:nonzero;stroke:none"
       d="m 341.0532,453.5127 c 0,0 1.648,-0.451 3.221,0.523 1.572,0.975 13.602,15.473 14.527,16.401 1.386,1.389 2.959,2.312 4.105,1.736 1.347,-0.824 4.208,-2.785 4.057,-2.711 -0.149,0.076 -2.845,0.75 -4.717,-0.224 -1.872,-0.975 -11.083,-13.33 -11.083,-13.33 0,0 -3.968,-4.028 -5.692,-4.477 -1.721,-0.449 -4.418,2.082 -4.418,2.082" /><path
       inkscape:connector-curvature="0"
       id="path5106"
       style="fill:none;stroke:#d71d29;stroke-width:0.23999999;stroke-linecap:butt;stroke-linejoin:miter;stroke-miterlimit:10;stroke-dasharray:none;stroke-opacity:1"
       d="m 341.0532,453.5127 c 0,0 1.648,-0.451 3.221,0.523 1.572,0.975 13.602,15.473 14.527,16.401 1.386,1.389 2.959,2.312 4.105,1.736 1.347,-0.824 4.208,-2.785 4.057,-2.711 -0.149,0.076 -2.845,0.75 -4.717,-0.224 -1.872,-0.975 -11.083,-13.33 -11.083,-13.33 0,0 -3.968,-4.028 -5.692,-4.477 -1.721,-0.449 -4.418,2.082 -4.418,2.082 z" /><path
       inkscape:connector-curvature="0"
       id="path5110"
       style="fill:#6eb4e1;fill-opacity:1;fill-rule:nonzero;stroke:none"
       d="m 349.2993,446.9775 c 0,0 2.666,-0.166 4.576,0.617 2.371,0.975 10.892,12.94 12.661,14.438 1.77,1.498 4.112,4.57 5.532,3.986 1.059,-0.436 4.706,-3.221 4.706,-3.221 0,0 -2.547,1.348 -4.269,0 -1.722,-1.347 -9.166,-10.215 -11.433,-13.414 -2.219,-3.131 -6.043,-5.515 -8.733,-4.611 -2.576,1.861 -3.04,2.205 -3.04,2.205" /><path
       inkscape:connector-curvature="0"
       id="path5114"
       style="fill:none;stroke:#3b87cb;stroke-width:0.23999999;stroke-linecap:butt;stroke-linejoin:miter;stroke-miterlimit:10;stroke-dasharray:none;stroke-opacity:1"
       d="m 349.2993,446.9775 c 0,0 2.666,-0.166 4.576,0.617 2.371,0.975 10.892,12.94 12.661,14.438 1.77,1.498 4.112,4.57 5.532,3.986 1.059,-0.436 4.706,-3.221 4.706,-3.221 0,0 -2.547,1.348 -4.269,0 -1.722,-1.347 -9.166,-10.215 -11.433,-13.414 -2.219,-3.131 -6.043,-5.515 -8.733,-4.611 -2.576,1.861 -3.04,2.205 -3.04,2.205 z" /><path
       inkscape:connector-curvature="0"
       id="path5118"
       style="fill:#f57716;fill-opacity:1;fill-rule:nonzero;stroke:none"
       d="m 366.9634,469.4619 c 0.751,-0.609 0.644,-4.525 -0.649,-7.6 -0.984,-2.336 -8.92,-18.146 -6.832,-22.414 -2.78,2.397 -2.924,2.287 -3.377,2.756 -1.072,1.108 1.589,8.612 3.454,13.33 1.863,4.719 4.743,9.762 4.778,13.426 0.014,1.348 -1.193,2.973 -1.193,2.973 0,0 3.068,-1.86 3.819,-2.471" /><path
       inkscape:connector-curvature="0"
       id="path5122"
       style="fill:none;stroke:#d71d29;stroke-width:0.23999999;stroke-linecap:butt;stroke-linejoin:miter;stroke-miterlimit:10;stroke-dasharray:none;stroke-opacity:1"
       d="m 366.9634,469.4619 c 0.751,-0.609 0.644,-4.525 -0.649,-7.6 -0.984,-2.336 -8.92,-18.146 -6.832,-22.414 -2.78,2.397 -2.924,2.287 -3.377,2.756 -1.072,1.108 1.589,8.612 3.454,13.33 1.863,4.719 4.743,9.762 4.778,13.426 0.014,1.348 -1.193,2.973 -1.193,2.973 0,0 3.068,-1.86 3.819,-2.471 z" /><path
       inkscape:connector-curvature="0"
       id="path5126"
       style="fill:#6eb4e1;fill-opacity:1;fill-rule:nonzero;stroke:none"
       d="m 355.3569,477.4751 c 0,0 3.243,-1.743 3.729,-2.471 0.486,-0.728 0.471,-2.827 0.24,-3.97 -0.233,-1.141 -2.625,-8.086 -5.321,-14.078 -2.393,-6.664 -3.107,-11.309 -1.835,-12.051 -1.615,1.164 -2.495,1.563 -3.178,2.24 -0.225,0.223 -0.601,1.561 -0.1,4.233 0.499,2.668 7.139,19.346 7.439,20.588 0.297,1.24 0.149,4.161 -0.974,5.509" /><path
       inkscape:connector-curvature="0"
       id="path5130"
       style="fill:none;stroke:#3b87cb;stroke-width:0.23999999;stroke-linecap:butt;stroke-linejoin:miter;stroke-miterlimit:10;stroke-dasharray:none;stroke-opacity:1"
       d="m 355.3569,477.4751 c 0,0 3.243,-1.743 3.729,-2.471 0.486,-0.728 0.471,-2.827 0.24,-3.97 -0.233,-1.141 -2.625,-8.086 -5.321,-14.078 -2.393,-6.664 -3.107,-11.309 -1.835,-12.051 -1.615,1.164 -2.495,1.563 -3.178,2.24 -0.225,0.223 -0.601,1.561 -0.1,4.233 0.499,2.668 7.139,19.346 7.439,20.588 0.297,1.24 0.149,4.161 -0.974,5.509 z" /><path
       inkscape:connector-curvature="0"
       id="path5134"
       style="fill:#6eb4e1;fill-opacity:1;fill-rule:nonzero;stroke:#3b87cb;stroke-width:0.23999999;stroke-linecap:butt;stroke-linejoin:miter;stroke-miterlimit:10;stroke-dasharray:none;stroke-opacity:1"
       d="m 408.1304,419.2139 c -18.869,-0.707 -34.193,14.43 -33.637,31.15 0,0 0.056,7.557 -0.551,11.498 -0.498,3.241 -1.875,4.157 -1.875,4.157 0,0 3.948,-2.635 4.707,-3.221 1.663,-1.287 1.403,-11.072 1.403,-11.072 -0.507,-16.953 14.298,-28.198 30.193,-28.198" /><path
       inkscape:connector-curvature="0"
       id="path5138"
       style="fill:#f57716;fill-opacity:1;fill-rule:nonzero;stroke:none"
       d="m 473.7905,453.5127 c 0,0 -1.775,-0.629 -3.221,0.523 -2.585,2.063 -13.599,15.836 -14.352,16.581 -1.398,1.376 -3.135,2.132 -4.28,1.556 -1.348,-0.824 -4.208,-2.785 -4.058,-2.711 0.15,0.076 2.846,0.75 4.718,-0.224 1.872,-0.975 5.98,-6.897 5.98,-6.897 0,0 9.071,-10.461 10.795,-10.91 1.722,-0.449 4.418,2.082 4.418,2.082" /><path
       inkscape:connector-curvature="0"
       id="path5142"
       style="fill:none;stroke:#d71d29;stroke-width:0.23999999;stroke-linecap:butt;stroke-linejoin:miter;stroke-miterlimit:10;stroke-dasharray:none;stroke-opacity:1"
       d="m 473.7905,453.5127 c 0,0 -1.775,-0.629 -3.221,0.523 -2.585,2.063 -13.599,15.836 -14.352,16.581 -1.398,1.376 -3.135,2.132 -4.28,1.556 -1.348,-0.824 -4.208,-2.785 -4.058,-2.711 0.15,0.076 2.846,0.75 4.718,-0.224 1.872,-0.975 5.98,-6.897 5.98,-6.897 0,0 9.071,-10.461 10.795,-10.91 1.722,-0.449 4.418,2.082 4.418,2.082 z" /><path
       inkscape:connector-curvature="0"
       id="path5146"
       style="fill:#f57716;fill-opacity:1;fill-rule:nonzero;stroke:none"
       d="m 433.7114,465.1436 c 8.423,-5.496 16.372,-20.98 19.344,-22.656 1.781,-1.004 5.187,-0.778 5.187,-0.778 l -3.197,-2.74 c 0,0 -1.4,-0.719 -3.621,0.479 -2.775,1.496 -9.966,13.474 -14.268,18.242 -4.304,4.767 -11.192,8.342 -17.972,10.273 -6.78,1.934 -16.745,1.934 -23.525,0 -6.779,-1.931 -13.669,-5.535 -17.972,-10.304 -1.513,-1.674 -2.837,-3.526 -4.152,-5.36 -2.007,-2.801 -3.936,-5.658 -5.998,-8.418 -0.841,-1.127 -2.52,-3.285 -4.619,-4.433 -1.8,-0.985 -2.997,-0.428 -3.155,-0.291 -0.403,0.347 -3.285,2.816 -3.419,2.826 0.875,-0.07 1.934,-0.203 2.805,-0.106 3.123,0.35 4.675,3.151 6.284,5.473 1.962,2.834 3.952,5.65 6.092,8.352 2.229,2.81 4.614,5.57 7.401,7.845 0.703,0.575 1.434,1.116 2.206,1.596 4.641,2.891 9.825,7.678 25.101,8.297 15.072,0.612 24.738,-6.508 27.478,-8.297" /><path
       inkscape:connector-curvature="0"
       id="path5150"
       style="fill:none;stroke:#d71d29;stroke-width:0.23999999;stroke-linecap:butt;stroke-linejoin:miter;stroke-miterlimit:10;stroke-dasharray:none;stroke-opacity:1"
       d="m 433.7114,465.1436 c 8.423,-5.496 16.372,-20.98 19.344,-22.656 1.781,-1.004 5.187,-0.778 5.187,-0.778 l -3.197,-2.74 c 0,0 -1.4,-0.719 -3.621,0.479 -2.775,1.496 -9.966,13.474 -14.268,18.242 -4.304,4.767 -11.192,8.342 -17.972,10.273 -6.78,1.934 -16.745,1.934 -23.525,0 -6.779,-1.931 -13.669,-5.535 -17.972,-10.304 -1.513,-1.674 -2.837,-3.526 -4.152,-5.36 -2.007,-2.801 -3.936,-5.658 -5.998,-8.418 -0.841,-1.127 -2.52,-3.285 -4.619,-4.433 -1.8,-0.985 -2.997,-0.428 -3.155,-0.291 -0.403,0.347 -3.285,2.816 -3.419,2.826 0.875,-0.07 1.934,-0.203 2.805,-0.106 3.123,0.35 4.675,3.151 6.284,5.473 1.962,2.834 3.952,5.65 6.092,8.352 2.229,2.81 4.614,5.57 7.401,7.845 0.703,0.575 1.434,1.116 2.206,1.596 4.641,2.891 9.825,7.678 25.101,8.297 15.072,0.612 24.738,-6.508 27.478,-8.297 z" /><path
       inkscape:connector-curvature="0"
       id="path5154"
       style="fill:#f57716;fill-opacity:1;fill-rule:nonzero;stroke:none"
       d="m 447.8804,469.4619 c -0.752,-0.609 -0.644,-4.525 0.649,-7.6 0.984,-2.336 8.872,-18.328 6.782,-22.597 2.78,2.398 2.974,2.47 3.427,2.939 1.072,1.108 -1.59,8.612 -3.454,13.33 -1.864,4.719 -4.743,9.762 -4.779,13.426 -0.013,1.348 1.194,2.973 1.194,2.973 0,0 -3.068,-1.86 -3.819,-2.471" /><path
       inkscape:connector-curvature="0"
       id="path5158"
       style="fill:none;stroke:#d71d29;stroke-width:0.23999999;stroke-linecap:butt;stroke-linejoin:miter;stroke-miterlimit:10;stroke-dasharray:none;stroke-opacity:1"
       d="m 447.8804,469.4619 c -0.752,-0.609 -0.644,-4.525 0.649,-7.6 0.984,-2.336 8.872,-18.328 6.782,-22.597 2.78,2.398 2.974,2.47 3.427,2.939 1.072,1.108 -1.59,8.612 -3.454,13.33 -1.864,4.719 -4.743,9.762 -4.779,13.426 -0.013,1.348 1.194,2.973 1.194,2.973 0,0 -3.068,-1.86 -3.819,-2.471 z" /><path
       inkscape:connector-curvature="0"
       id="path5162"
       style="fill:#6eb4e1;fill-opacity:1;fill-rule:nonzero;stroke:none"
       d="m 465.5444,446.9775 c 0,0 -1.919,-0.559 -4.576,0.617 -4.022,1.783 -9.993,11.514 -14.536,16.272 -2.517,2.634 -3.725,2.082 -4.083,1.933 -1.061,-0.435 -4.281,-3.002 -4.281,-3.002 0,0 2.467,1.241 4.27,0 1.697,-1.168 3.042,-3.422 6.716,-7.814 2.58,-3.082 5.483,-6.619 7.961,-8.811 2.566,-2.267 4.647,-1.683 5.489,-1.4 2.576,1.861 3.04,2.205 3.04,2.205" /><path
       inkscape:connector-curvature="0"
       id="path5166"
       style="fill:none;stroke:#3b87cb;stroke-width:0.23999999;stroke-linecap:butt;stroke-linejoin:miter;stroke-miterlimit:10;stroke-dasharray:none;stroke-opacity:1"
       d="m 465.5444,446.9775 c 0,0 -1.919,-0.559 -4.576,0.617 -4.022,1.783 -9.993,11.514 -14.536,16.272 -2.517,2.634 -3.725,2.082 -4.083,1.933 -1.061,-0.435 -4.281,-3.002 -4.281,-3.002 0,0 2.467,1.241 4.27,0 1.697,-1.168 3.042,-3.422 6.716,-7.814 2.58,-3.082 5.483,-6.619 7.961,-8.811 2.566,-2.267 4.647,-1.683 5.489,-1.4 2.576,1.861 3.04,2.205 3.04,2.205 z" /><path
       inkscape:connector-curvature="0"
       id="path5170"
       style="fill:#f57716;fill-opacity:1;fill-rule:nonzero;stroke:#d71d29;stroke-width:0.23999999;stroke-linecap:butt;stroke-linejoin:miter;stroke-miterlimit:10;stroke-dasharray:none;stroke-opacity:1"
       d="m 455.0454,438.9697 c 0,0 -1.406,-0.727 -3.621,0.479 -3.428,1.869 -9.964,13.474 -14.268,18.242" /><path
       inkscape:connector-curvature="0"
       id="path5174"
       style="fill:#6eb4e1;fill-opacity:1;fill-rule:nonzero;stroke:none"
       d="m 425.7163,444.1924 c -0.242,6.924 -3.214,11.688 -4.909,14.334 -1.783,2.781 -4.603,7.178 -7.07,6.676 -2.025,-0.412 -5.169,-4.406 -7.264,-7.069 l 0,-0.127 c -2.095,2.663 -5.239,6.657 -7.265,7.071 -2.466,0.5 -5.286,-3.897 -7.068,-6.676 -1.696,-2.646 -4.666,-7.41 -4.909,-14.336 -0.15,-4.23 -0.349,-9.932 3.337,-12.566 4.516,-1.731 14.444,2.769 14.334,3.338 -0.059,0.306 0.305,8.75 1.571,8.71 1.265,-0.037 1.63,-8.277 1.571,-8.584 -0.11,-0.57 9.818,-5.068 14.333,-3.337 3.688,2.634 3.486,8.336 3.339,12.566" /><path
       inkscape:connector-curvature="0"
       id="path5178"
       style="fill:none;stroke:#f36730;stroke-width:0.23999999;stroke-linecap:butt;stroke-linejoin:miter;stroke-miterlimit:10;stroke-dasharray:none;stroke-opacity:1"
       d="m 425.7163,444.1924 c -0.242,6.924 -3.214,11.688 -4.909,14.334 -1.783,2.781 -4.603,7.178 -7.07,6.676 -2.025,-0.412 -5.169,-4.406 -7.264,-7.069 l 0,-0.127 c -2.095,2.663 -5.239,6.657 -7.265,7.071 -2.466,0.5 -5.286,-3.897 -7.068,-6.676 -1.696,-2.646 -4.666,-7.41 -4.909,-14.336 -0.15,-4.23 -0.349,-9.932 3.337,-12.566 4.516,-1.731 14.444,2.769 14.334,3.338 -0.059,0.306 0.305,8.75 1.571,8.71 1.265,-0.037 1.63,-8.277 1.571,-8.584 -0.11,-0.57 9.818,-5.068 14.333,-3.337 3.688,2.634 3.486,8.336 3.339,12.566 z" /><path
       inkscape:connector-curvature="0"
       id="path5182"
       style="fill:none;stroke:#f36730;stroke-width:0.47999999;stroke-linecap:round;stroke-linejoin:miter;stroke-miterlimit:10;stroke-dasharray:none;stroke-opacity:1"
       d="m 407.1616,444.5166 c -0.932,-0.709 -1.766,-0.955 -4.192,-1.289 -3.134,-0.432 -5.951,0.451 -7.822,1.352 -3.409,1.634 -5.596,4.537 -6.935,6.269" /><path
       inkscape:connector-curvature="0"
       id="path5186"
       style="fill:none;stroke:#f57716;stroke-width:0.47999999;stroke-linecap:round;stroke-linejoin:miter;stroke-miterlimit:10;stroke-dasharray:none;stroke-opacity:1"
       d="m 387.6479,449.2744 c 0.875,-2.037 2.347,-4.842 4.798,-7.699 2.684,-3.131 5.503,-5.11 7.5,-6.291" /><path
       inkscape:connector-curvature="0"
       id="path5190"
       style="fill:none;stroke:#f57716;stroke-width:0.47999999;stroke-linecap:round;stroke-linejoin:miter;stroke-miterlimit:10;stroke-dasharray:none;stroke-opacity:1"
       d="m 397.1636,431.7783 c 0.498,0.951 1.498,2.559 3.306,3.99 1.734,1.375 3.451,1.979 4.475,2.258" /><path
       inkscape:connector-curvature="0"
       id="path5194"
       style="fill:none;stroke:#f36730;stroke-width:0.47999999;stroke-linecap:round;stroke-linejoin:miter;stroke-miterlimit:10;stroke-dasharray:none;stroke-opacity:1"
       d="m 406.4966,446.0518 c 3.712,-4.662 6.447,-5.605 8.361,-5.441 0.934,0.078 2.374,0.482 2.83,-0.122 0.613,-0.818 -1.275,-2.527 -0.6,-3.589 0.476,-0.754 1.93,-0.694 2.142,-0.686 3.718,0.15 6.252,6.752 6.561,7.58" /><path
       inkscape:connector-curvature="0"
       id="path5198"
       style="fill:#d71d29;fill-opacity:1;fill-rule:nonzero;stroke:none"
       d="m 399.7896,458.9814 c 0.267,-0.072 1.263,-0.129 1.039,-0.602 0.063,-0.455 -0.356,-0.646 -0.358,-0.648 -11.788,-7.854 9.409,-18.311 12.696,-14.42 1.265,1.494 -0.865,6.434 -2.382,10.246 -0.615,1.547 -0.263,2.121 -0.355,2.934 -0.331,2.886 -3.413,4.508 -5.907,3.48 -0.67,-0.275 -1.03,0.19 -1.63,0.444 -0.818,0.343 -1.637,0.113 -2.342,-0.536 -0.188,-0.171 -0.356,-0.371 -0.522,-0.566 -0.09,-0.107 -0.185,-0.215 -0.268,-0.322 0.008,-0.004 0.017,-0.006 0.029,-0.01" /><path
       inkscape:connector-curvature="0"
       id="path5202"
       style="fill:none;stroke:#f36730;stroke-width:0.23999999;stroke-linecap:butt;stroke-linejoin:miter;stroke-miterlimit:10;stroke-dasharray:none;stroke-opacity:1"
       d="m 399.7896,458.9814 c 0.267,-0.072 1.263,-0.129 1.039,-0.602 0.063,-0.455 -0.356,-0.646 -0.358,-0.648 -11.788,-7.854 9.409,-18.311 12.696,-14.42 1.265,1.494 -0.865,6.434 -2.382,10.246 -0.615,1.547 -0.263,2.121 -0.355,2.934 -0.331,2.886 -3.413,4.508 -5.907,3.48 -0.67,-0.275 -1.03,0.19 -1.63,0.444 -0.818,0.343 -1.637,0.113 -2.342,-0.536 -0.188,-0.171 -0.356,-0.371 -0.522,-0.566 -0.09,-0.107 -0.185,-0.215 -0.268,-0.322 0.008,-0.004 0.017,-0.006 0.029,-0.01 z" /><path
       inkscape:connector-curvature="0"
       id="path5206"
       style="fill:none;stroke:#f36730;stroke-width:0.47999999;stroke-linecap:round;stroke-linejoin:miter;stroke-miterlimit:10;stroke-dasharray:none;stroke-opacity:1"
       d="m 417.4761,436.5088 c 0.654,-0.324 1.919,-1.061 2.916,-2.518 0.669,-0.978 0.973,-1.923 1.118,-2.554" /></g></svg>