<?xml version="1.0" encoding="UTF-8" standalone="no"?>
<!-- Created with Inkscape (http://www.inkscape.org/) -->

<svg
   xmlns:dc="http://purl.org/dc/elements/1.1/"
   xmlns:cc="http://creativecommons.org/ns#"
   xmlns:rdf="http://www.w3.org/1999/02/22-rdf-syntax-ns#"
   xmlns:svg="http://www.w3.org/2000/svg"
   xmlns="http://www.w3.org/2000/svg"
   xmlns:sodipodi="http://sodipodi.sourceforge.net/DTD/sodipodi-0.dtd"
   xmlns:inkscape="http://www.inkscape.org/namespaces/inkscape"
   id="svg4136"
   version="1.1"
   inkscape:version="0.91 r13725"
   xml:space="preserve"
   width="220.9375"
   height="158.4075"
   viewBox="0 0 220.9375 158.4075"
   sodipodi:docname="topmed_logo_all.pdf"><metadata
     id="metadata4142"><rdf:RDF><cc:Work
         rdf:about=""><dc:format>image/svg+xml</dc:format><dc:type
           rdf:resource="http://purl.org/dc/dcmitype/StillImage" /><dc:title></dc:title></cc:Work></rdf:RDF></metadata><defs
     id="defs4140"><clipPath
       clipPathUnits="userSpaceOnUse"
       id="clipPath4150"><path
         d="M 0,756 576,756 576,0 0,0 0,756 Z"
         id="path4152"
         inkscape:connector-curvature="0" /></clipPath><clipPath
       clipPathUnits="userSpaceOnUse"
       id="clipPath4166"><path
         d="m 97.2656,658.822 165.3644,0 0,-72.892 -165.3644,0 0,72.892 z"
         id="path4168"
         inkscape:connector-curvature="0" /></clipPath><clipPath
       clipPathUnits="userSpaceOnUse"
       id="clipPath4312"><path
         d="M 0,756 576,756 576,0 0,0 0,756 Z"
         id="path4314"
         inkscape:connector-curvature="0" /></clipPath><clipPath
       clipPathUnits="userSpaceOnUse"
       id="clipPath4328"><path
         d="m 97.2656,658.822 165.3644,0 0,-72.892 -165.3644,0 0,72.892 z"
         id="path4330"
         inkscape:connector-curvature="0" /></clipPath><clipPath
       clipPathUnits="userSpaceOnUse"
       id="clipPath4474"><path
         d="M 0,756 576,756 576,0 0,0 0,756 Z"
         id="path4476"
         inkscape:connector-curvature="0" /></clipPath><clipPath
       clipPathUnits="userSpaceOnUse"
       id="clipPath4624"><path
         d="M 0,756 576,756 576,0 0,0 0,756 Z"
         id="path4626"
         inkscape:connector-curvature="0" /></clipPath><clipPath
       clipPathUnits="userSpaceOnUse"
       id="clipPath4770"><path
         d="M 0,756 576,756 576,0 0,0 0,756 Z"
         id="path4772"
         inkscape:connector-curvature="0" /></clipPath><clipPath
       clipPathUnits="userSpaceOnUse"
       id="clipPath4794"><path
         d="M 0,756 576,756 576,0 0,0 0,756 Z"
         id="path4796"
         inkscape:connector-curvature="0" /></clipPath><clipPath
       clipPathUnits="userSpaceOnUse"
       id="clipPath4934"><path
         d="M 0,756 576,756 576,0 0,0 0,756 Z"
         id="path4936"
         inkscape:connector-curvature="0" /></clipPath><clipPath
       clipPathUnits="userSpaceOnUse"
       id="clipPath5084"><path
         d="M 0,756 576,756 576,0 0,0 0,756 Z"
         id="path5086"
         inkscape:connector-curvature="0" /></clipPath><clipPath
       clipPathUnits="userSpaceOnUse"
       id="clipPath5230"><path
         d="M 0,756 576,756 576,0 0,0 0,756 Z"
         id="path5232"
         inkscape:connector-curvature="0" /></clipPath><clipPath
       clipPathUnits="userSpaceOnUse"
       id="clipPath5374"><path
         d="M 0,756 576,756 576,0 0,0 0,756 Z"
         id="path5376"
         inkscape:connector-curvature="0" /></clipPath><clipPath
       clipPathUnits="userSpaceOnUse"
       id="clipPath5514"><path
         d="M 0,756 576,756 576,0 0,0 0,756 Z"
         id="path5516"
         inkscape:connector-curvature="0" /></clipPath></defs><sodipodi:namedview
     pagecolor="#ffffff"
     bordercolor="#666666"
     borderopacity="1"
     objecttolerance="10"
     gridtolerance="10"
     guidetolerance="10"
     inkscape:pageopacity="0"
     inkscape:pageshadow="2"
     inkscape:window-width="1857"
     inkscape:window-height="1403"
     id="namedview4138"
     showgrid="false"
     inkscape:zoom="1.3089947"
     inkscape:cx="245.5335"
     inkscape:cy="394.41775"
     inkscape:window-x="65"
     inkscape:window-y="0"
     inkscape:window-maximized="0"
     inkscape:current-layer="g4144"
     fit-margin-top="0"
     fit-margin-left="0"
     fit-margin-right="0"
     fit-margin-bottom="0" /><g
     id="g4144"
     inkscape:groupmode="layer"
     inkscape:label="topmed_logo_all"
     transform="matrix(1.25,0,0,-1.25,-114.4665,236.48975)"><path
       inkscape:connector-curvature="0"
       id="path4920"
       style="fill:#3f3d3e;fill-opacity:1;fill-rule:nonzero;stroke:none"
       d="m 179.9482,62.4658 c 48.809,0 88.375,28.369 88.375,63.362 0,34.995 -39.566,63.364 -88.375,63.364 -48.809,0 -88.375,-28.369 -88.375,-63.364 0,-34.993 39.566,-63.362 88.375,-63.362" /><text
       transform="matrix(1,0,0,-1,133.6108,74.1685)"
       style="font-variant:normal;font-weight:bold;font-stretch:normal;font-size:21px;font-family:Rockwell;-inkscape-font-specification:Rockwell-Bold;writing-mode:lr-tb;fill:#ffffff;fill-opacity:1;fill-rule:nonzero;stroke:none"
       id="text4922"><tspan
         x="0 13.692 31.625999 45.632999 67.514999 79.547997"
         y="0"
         sodipodi:role="line"
         id="tspan4924">TOPMed</tspan></text>
<text
       transform="matrix(1,0,0,-1,152.9277,167.4253)"
       style="font-variant:normal;font-weight:normal;font-stretch:normal;font-size:19px;font-family:Rockwell;-inkscape-font-specification:Rockwell;writing-mode:lr-tb;fill:#ffffff;fill-opacity:1;fill-rule:nonzero;stroke:none"
       id="text4926"><tspan
         x="0 13.661 27.113001 37.012001 48.089001"
         y="0"
         sodipodi:role="line"
         id="tspan4928">NHLBI</tspan></text>
<path
       inkscape:connector-curvature="0"
       id="path4940"
       style="fill:#6eb4e1;fill-opacity:1;fill-rule:nonzero;stroke:none"
       d="m 242.502,162.5957 c 0,0 -3.896,-2.094 -4.48,-2.967 -0.584,-0.877 -0.567,-3.398 -0.289,-4.769 0.28,-1.371 3.155,-9.717 6.391,-16.914 2.877,-8.008 3.734,-13.588 2.206,-14.481 1.94,1.401 2.997,1.877 3.819,2.693 0.269,0.268 0.722,1.875 0.121,5.083 -0.602,3.207 -8.579,23.244 -8.938,24.736 -0.358,1.492 -0.18,5 1.17,6.619" /><path
       inkscape:connector-curvature="0"
       id="path4944"
       style="fill:none;stroke:#3b87cb;stroke-width:0.23999999;stroke-linecap:butt;stroke-linejoin:miter;stroke-miterlimit:10;stroke-dasharray:none;stroke-opacity:1"
       d="m 242.502,162.5957 c 0,0 -3.896,-2.094 -4.48,-2.967 -0.584,-0.877 -0.567,-3.398 -0.289,-4.769 0.28,-1.371 3.155,-9.717 6.391,-16.914 2.877,-8.008 3.734,-13.588 2.206,-14.481 1.94,1.401 2.997,1.877 3.819,2.693 0.269,0.268 0.722,1.875 0.121,5.083 -0.602,3.207 -8.579,23.244 -8.938,24.736 -0.358,1.492 -0.18,5 1.17,6.619 z" /><path
       inkscape:connector-curvature="0"
       id="path4948"
       style="fill:#6eb4e1;fill-opacity:1;fill-rule:nonzero;stroke:#3b87cb;stroke-width:0.23999999;stroke-linecap:butt;stroke-linejoin:miter;stroke-miterlimit:10;stroke-dasharray:none;stroke-opacity:1"
       d="m 179.0967,92.5996 c 22.67,-0.852 41.082,17.336 40.413,37.426 0,0 -0.715,8.269 0.014,13.006 0.598,3.894 2.9,5.513 2.9,5.513 0,0 -4.743,-2.877 -5.653,-3.582 -1.977,-1.533 -1.994,-2.763 -1.974,-12.728 0.608,-20.367 -16.89,-34.453 -35.988,-34.453" /><path
       inkscape:connector-curvature="0"
       id="path4952"
       style="fill:#f57716;fill-opacity:1;fill-rule:nonzero;stroke:none"
       d="m 100.21,133.8066 c 0,0 1.979,-0.541 3.869,0.629 1.889,1.17 16.343,18.59 17.454,19.705 1.665,1.668 3.555,2.777 4.931,2.086 1.62,-0.99 5.057,-3.348 4.876,-3.258 -0.18,0.092 -3.418,0.901 -5.668,-0.269 -2.249,-1.17 -13.316,-16.016 -13.316,-16.016 0,0 -4.768,-4.838 -6.838,-5.379 -2.069,-0.539 -5.308,2.502 -5.308,2.502" /><path
       inkscape:connector-curvature="0"
       id="path4956"
       style="fill:none;stroke:#d71d29;stroke-width:0.23999999;stroke-linecap:butt;stroke-linejoin:miter;stroke-miterlimit:10;stroke-dasharray:none;stroke-opacity:1"
       d="m 100.21,133.8066 c 0,0 1.979,-0.541 3.869,0.629 1.889,1.17 16.343,18.59 17.454,19.705 1.665,1.668 3.555,2.777 4.931,2.086 1.62,-0.99 5.057,-3.348 4.876,-3.258 -0.18,0.092 -3.418,0.901 -5.668,-0.269 -2.249,-1.17 -13.316,-16.016 -13.316,-16.016 0,0 -4.768,-4.838 -6.838,-5.379 -2.069,-0.539 -5.308,2.502 -5.308,2.502 z" /><path
       inkscape:connector-curvature="0"
       id="path4960"
       style="fill:#6eb4e1;fill-opacity:1;fill-rule:nonzero;stroke:none"
       d="m 110.1172,125.9551 c 0,0 3.202,-0.199 5.498,0.742 2.849,1.17 13.086,15.547 15.211,17.346 2.127,1.799 4.94,5.492 6.645,4.789 1.274,-0.523 5.655,-3.869 5.655,-3.869 0,0 -3.06,1.619 -5.128,0 -2.069,-1.621 -11.013,-12.274 -13.736,-16.117 -2.667,-3.762 -7.26,-6.627 -10.493,-5.539 -3.095,2.236 -3.652,2.648 -3.652,2.648" /><path
       inkscape:connector-curvature="0"
       id="path4964"
       style="fill:none;stroke:#3b87cb;stroke-width:0.23999999;stroke-linecap:butt;stroke-linejoin:miter;stroke-miterlimit:10;stroke-dasharray:none;stroke-opacity:1"
       d="m 110.1172,125.9551 c 0,0 3.202,-0.199 5.498,0.742 2.849,1.17 13.086,15.547 15.211,17.346 2.127,1.799 4.94,5.492 6.645,4.789 1.274,-0.523 5.655,-3.869 5.655,-3.869 0,0 -3.06,1.619 -5.128,0 -2.069,-1.621 -11.013,-12.274 -13.736,-16.117 -2.667,-3.762 -7.26,-6.627 -10.493,-5.539 -3.095,2.236 -3.652,2.648 -3.652,2.648 z" /><path
       inkscape:connector-curvature="0"
       id="path4968"
       style="fill:#f57716;fill-opacity:1;fill-rule:nonzero;stroke:none"
       d="m 131.3398,152.9688 c 0.902,-0.732 0.772,-5.438 -0.781,-9.131 -1.181,-2.807 -10.717,-21.801 -8.208,-26.928 -3.339,2.877 -3.513,2.748 -4.057,3.311 -1.287,1.33 1.91,10.346 4.15,16.014 2.239,5.67 5.699,11.728 5.741,16.13 0.016,1.62 -1.434,3.573 -1.434,3.573 0,0 3.687,-2.235 4.589,-2.969" /><path
       inkscape:connector-curvature="0"
       id="path4972"
       style="fill:none;stroke:#d71d29;stroke-width:0.23999999;stroke-linecap:butt;stroke-linejoin:miter;stroke-miterlimit:10;stroke-dasharray:none;stroke-opacity:1"
       d="m 131.3398,152.9688 c 0.902,-0.732 0.772,-5.438 -0.781,-9.131 -1.181,-2.807 -10.717,-21.801 -8.208,-26.928 -3.339,2.877 -3.513,2.748 -4.057,3.311 -1.287,1.33 1.91,10.346 4.15,16.014 2.239,5.67 5.699,11.728 5.741,16.13 0.016,1.62 -1.434,3.573 -1.434,3.573 0,0 3.687,-2.235 4.589,-2.969 z" /><path
       inkscape:connector-curvature="0"
       id="path4976"
       style="fill:#6eb4e1;fill-opacity:1;fill-rule:nonzero;stroke:none"
       d="m 117.3945,162.5957 c 0,0 3.896,-2.094 4.48,-2.967 0.584,-0.877 0.567,-3.398 0.289,-4.769 -0.28,-1.371 -3.155,-9.717 -6.392,-16.914 -2.876,-8.008 -3.733,-13.588 -2.205,-14.481 -1.941,1.401 -2.998,1.877 -3.819,2.693 -0.27,0.268 -0.722,1.875 -0.121,5.083 0.601,3.207 8.578,23.244 8.938,24.736 0.358,1.492 0.18,5 -1.17,6.619" /><path
       inkscape:connector-curvature="0"
       id="path4980"
       style="fill:none;stroke:#3b87cb;stroke-width:0.23999999;stroke-linecap:butt;stroke-linejoin:miter;stroke-miterlimit:10;stroke-dasharray:none;stroke-opacity:1"
       d="m 117.3945,162.5957 c 0,0 3.896,-2.094 4.48,-2.967 0.584,-0.877 0.567,-3.398 0.289,-4.769 -0.28,-1.371 -3.155,-9.717 -6.392,-16.914 -2.876,-8.008 -3.733,-13.588 -2.205,-14.481 -1.941,1.401 -2.998,1.877 -3.819,2.693 -0.27,0.268 -0.722,1.875 -0.121,5.083 0.601,3.207 8.578,23.244 8.938,24.736 0.358,1.492 0.18,5 -1.17,6.619 z" /><path
       inkscape:connector-curvature="0"
       id="path4984"
       style="fill:#6eb4e1;fill-opacity:1;fill-rule:nonzero;stroke:#3b87cb;stroke-width:0.23999999;stroke-linecap:butt;stroke-linejoin:miter;stroke-miterlimit:10;stroke-dasharray:none;stroke-opacity:1"
       d="m 180.7998,92.5996 c -22.671,-0.852 -41.082,17.336 -40.413,37.426 0,0 0.066,9.078 -0.662,13.812 -0.599,3.893 -2.252,4.994 -2.252,4.994 0,0 4.742,-3.164 5.653,-3.869 1.998,-1.547 1.687,-13.304 1.687,-13.304 -0.61,-20.368 17.177,-33.877 36.275,-33.877" /><path
       inkscape:connector-curvature="0"
       id="path4988"
       style="fill:#f57716;fill-opacity:1;fill-rule:nonzero;stroke:none"
       d="m 259.6865,133.8066 c 0,0 -2.133,-0.756 -3.869,0.629 -3.106,2.478 -16.339,19.027 -17.244,19.92 -1.679,1.654 -3.766,2.562 -5.141,1.871 -1.62,-0.99 -5.057,-3.348 -4.877,-3.258 0.181,0.092 3.419,0.901 5.669,-0.269 2.249,-1.17 7.185,-8.286 7.185,-8.286 0,0 10.899,-12.568 12.969,-13.109 2.069,-0.539 5.308,2.502 5.308,2.502" /><path
       inkscape:connector-curvature="0"
       id="path4992"
       style="fill:none;stroke:#d71d29;stroke-width:0.23999999;stroke-linecap:butt;stroke-linejoin:miter;stroke-miterlimit:10;stroke-dasharray:none;stroke-opacity:1"
       d="m 259.6865,133.8066 c 0,0 -2.133,-0.756 -3.869,0.629 -3.106,2.478 -16.339,19.027 -17.244,19.92 -1.679,1.654 -3.766,2.562 -5.141,1.871 -1.62,-0.99 -5.057,-3.348 -4.877,-3.258 0.181,0.092 3.419,0.901 5.669,-0.269 2.249,-1.17 7.185,-8.286 7.185,-8.286 0,0 10.899,-12.568 12.969,-13.109 2.069,-0.539 5.308,2.502 5.308,2.502 z" /><path
       inkscape:connector-curvature="0"
       id="path4996"
       style="fill:#f57716;fill-opacity:1;fill-rule:nonzero;stroke:none"
       d="m 211.5342,147.7813 c 10.119,-6.604 19.67,-25.207 23.24,-27.221 2.141,-1.205 6.233,-0.933 6.233,-0.933 l -3.841,-3.293 c 0,0 -1.683,-0.864 -4.351,0.574 -3.334,1.799 -11.973,16.189 -17.142,21.918 -5.171,5.728 -13.448,10.021 -21.593,12.344 -8.146,2.322 -20.118,2.322 -28.264,0 -8.144,-2.323 -16.422,-6.653 -21.593,-12.381 -1.818,-2.012 -3.409,-4.237 -4.988,-6.44 -2.411,-3.365 -4.729,-6.797 -7.206,-10.115 -1.01,-1.351 -3.028,-3.947 -5.55,-5.326 -2.162,-1.182 -3.6,-0.512 -3.791,-0.348 -0.483,0.416 -3.947,3.383 -4.107,3.395 1.051,-0.086 2.324,-0.244 3.371,-0.127 3.751,0.42 5.616,3.785 7.549,6.574 2.357,3.404 4.748,6.789 7.32,10.035 2.677,3.377 5.542,6.694 8.891,9.426 0.844,0.689 1.723,1.34 2.65,1.918 5.576,3.471 11.805,9.223 30.158,9.969 18.109,0.734 29.721,-7.819 33.014,-9.969" /><path
       inkscape:connector-curvature="0"
       id="path5000"
       style="fill:none;stroke:#d71d29;stroke-width:0.23999999;stroke-linecap:butt;stroke-linejoin:miter;stroke-miterlimit:10;stroke-dasharray:none;stroke-opacity:1"
       d="m 211.5342,147.7813 c 10.119,-6.604 19.67,-25.207 23.24,-27.221 2.141,-1.205 6.233,-0.933 6.233,-0.933 l -3.841,-3.293 c 0,0 -1.683,-0.864 -4.351,0.574 -3.334,1.799 -11.973,16.189 -17.142,21.918 -5.171,5.728 -13.448,10.021 -21.593,12.344 -8.146,2.322 -20.118,2.322 -28.264,0 -8.144,-2.323 -16.422,-6.653 -21.593,-12.381 -1.818,-2.012 -3.409,-4.237 -4.988,-6.44 -2.411,-3.365 -4.729,-6.797 -7.206,-10.115 -1.01,-1.351 -3.028,-3.947 -5.55,-5.326 -2.162,-1.182 -3.6,-0.512 -3.791,-0.348 -0.483,0.416 -3.947,3.383 -4.107,3.395 1.051,-0.086 2.324,-0.244 3.371,-0.127 3.751,0.42 5.616,3.785 7.549,6.574 2.357,3.404 4.748,6.789 7.32,10.035 2.677,3.377 5.542,6.694 8.891,9.426 0.844,0.689 1.723,1.34 2.65,1.918 5.576,3.471 11.805,9.223 30.158,9.969 18.109,0.734 29.721,-7.819 33.014,-9.969 z" /><path
       inkscape:connector-curvature="0"
       id="path5004"
       style="fill:#f57716;fill-opacity:1;fill-rule:nonzero;stroke:none"
       d="m 228.5566,152.9688 c -0.903,-0.732 -0.772,-5.438 0.781,-9.131 1.181,-2.807 10.657,-22.019 8.148,-27.148 3.34,2.879 3.573,2.968 4.117,3.531 1.287,1.33 -1.91,10.346 -4.15,16.014 -2.239,5.67 -5.699,11.728 -5.742,16.13 -0.015,1.62 1.435,3.573 1.435,3.573 0,0 -3.687,-2.235 -4.589,-2.969" /><path
       inkscape:connector-curvature="0"
       id="path5008"
       style="fill:none;stroke:#d71d29;stroke-width:0.23999999;stroke-linecap:butt;stroke-linejoin:miter;stroke-miterlimit:10;stroke-dasharray:none;stroke-opacity:1"
       d="m 228.5566,152.9688 c -0.903,-0.732 -0.772,-5.438 0.781,-9.131 1.181,-2.807 10.657,-22.019 8.148,-27.148 3.34,2.879 3.573,2.968 4.117,3.531 1.287,1.33 -1.91,10.346 -4.15,16.014 -2.239,5.67 -5.699,11.728 -5.742,16.13 -0.015,1.62 1.435,3.573 1.435,3.573 0,0 -3.687,-2.235 -4.589,-2.969 z" /><path
       inkscape:connector-curvature="0"
       id="path5012"
       style="fill:#6eb4e1;fill-opacity:1;fill-rule:nonzero;stroke:none"
       d="m 249.7793,125.9551 c 0,0 -2.305,-0.672 -5.498,0.742 -4.831,2.143 -12.006,13.832 -17.464,19.549 -3.023,3.166 -4.475,2.502 -4.906,2.324 -1.274,-0.525 -5.142,-3.607 -5.142,-3.607 0,0 2.964,1.49 5.129,0 2.039,-1.404 3.655,-4.112 8.069,-9.389 3.1,-3.705 6.588,-7.953 9.565,-10.586 3.083,-2.724 5.584,-2.021 6.595,-1.681 3.095,2.236 3.652,2.648 3.652,2.648" /><path
       inkscape:connector-curvature="0"
       id="path5016"
       style="fill:none;stroke:#3b87cb;stroke-width:0.23999999;stroke-linecap:butt;stroke-linejoin:miter;stroke-miterlimit:10;stroke-dasharray:none;stroke-opacity:1"
       d="m 249.7793,125.9551 c 0,0 -2.305,-0.672 -5.498,0.742 -4.831,2.143 -12.006,13.832 -17.464,19.549 -3.023,3.166 -4.475,2.502 -4.906,2.324 -1.274,-0.525 -5.142,-3.607 -5.142,-3.607 0,0 2.964,1.49 5.129,0 2.039,-1.404 3.655,-4.112 8.069,-9.389 3.1,-3.705 6.588,-7.953 9.565,-10.586 3.083,-2.724 5.584,-2.021 6.595,-1.681 3.095,2.236 3.652,2.648 3.652,2.648 z" /><path
       inkscape:connector-curvature="0"
       id="path5020"
       style="fill:#f57716;fill-opacity:1;fill-rule:nonzero;stroke:#d71d29;stroke-width:0.23999999;stroke-linecap:butt;stroke-linejoin:miter;stroke-miterlimit:10;stroke-dasharray:none;stroke-opacity:1"
       d="m 237.166,116.334 c 0,0 -1.69,-0.873 -4.351,0.576 -4.118,2.244 -11.971,16.188 -17.142,21.916" /><path
       inkscape:connector-curvature="0"
       id="path5024"
       style="fill:#6eb4e1;fill-opacity:1;fill-rule:nonzero;stroke:none"
       d="m 201.9277,122.6094 c -0.291,8.316 -3.86,14.043 -5.897,17.221 -2.143,3.342 -5.531,8.625 -8.494,8.021 -2.433,-0.496 -6.212,-5.295 -8.728,-8.494 l 0,-0.15 c -2.517,3.197 -6.295,7.996 -8.729,8.492 -2.963,0.603 -6.35,-4.68 -8.492,-8.02 -2.038,-3.177 -5.606,-8.902 -5.898,-17.222 -0.179,-5.084 -0.419,-11.934 4.009,-15.098 5.427,-2.08 17.355,3.326 17.222,4.008 -0.071,0.369 0.367,10.513 1.888,10.469 1.52,-0.045 1.958,-9.948 1.888,-10.317 -0.133,-0.683 11.794,-6.088 17.22,-4.01 4.43,3.166 4.189,10.016 4.011,15.1" /><path
       inkscape:connector-curvature="0"
       id="path5028"
       style="fill:none;stroke:#f36730;stroke-width:0.23999999;stroke-linecap:butt;stroke-linejoin:miter;stroke-miterlimit:10;stroke-dasharray:none;stroke-opacity:1"
       d="m 201.9277,122.6094 c -0.291,8.316 -3.86,14.043 -5.897,17.221 -2.143,3.342 -5.531,8.625 -8.494,8.021 -2.433,-0.496 -6.212,-5.295 -8.728,-8.494 l 0,-0.15 c -2.517,3.197 -6.295,7.996 -8.729,8.492 -2.963,0.603 -6.35,-4.68 -8.492,-8.02 -2.038,-3.177 -5.606,-8.902 -5.898,-17.222 -0.179,-5.084 -0.419,-11.934 4.009,-15.098 5.427,-2.08 17.355,3.326 17.222,4.008 -0.071,0.369 0.367,10.513 1.888,10.469 1.52,-0.045 1.958,-9.948 1.888,-10.317 -0.133,-0.683 11.794,-6.088 17.22,-4.01 4.43,3.166 4.189,10.016 4.011,15.1 z" /><path
       inkscape:connector-curvature="0"
       id="path5032"
       style="fill:none;stroke:#f36730;stroke-width:0.47999999;stroke-linecap:round;stroke-linejoin:miter;stroke-miterlimit:10;stroke-dasharray:none;stroke-opacity:1"
       d="m 179.6357,122.998 c -1.119,-0.852 -2.121,-1.146 -5.037,-1.549 -3.765,-0.519 -7.149,0.541 -9.398,1.623 -4.095,1.967 -6.723,5.451 -8.332,7.533" /><path
       inkscape:connector-curvature="0"
       id="path5036"
       style="fill:none;stroke:#f57716;stroke-width:0.47999999;stroke-linecap:round;stroke-linejoin:miter;stroke-miterlimit:10;stroke-dasharray:none;stroke-opacity:1"
       d="m 156.1914,128.7148 c 1.051,-2.447 2.818,-5.818 5.764,-9.252 3.225,-3.76 6.611,-6.137 9.01,-7.557" /><path
       inkscape:connector-curvature="0"
       id="path5040"
       style="fill:none;stroke:#f57716;stroke-width:0.47999999;stroke-linecap:round;stroke-linejoin:miter;stroke-miterlimit:10;stroke-dasharray:none;stroke-opacity:1"
       d="m 167.623,107.6934 c 0.599,1.143 1.8,3.074 3.972,4.795 2.084,1.65 4.146,2.377 5.377,2.713" /><path
       inkscape:connector-curvature="0"
       id="path5044"
       style="fill:none;stroke:#f36730;stroke-width:0.47999999;stroke-linecap:round;stroke-linejoin:miter;stroke-miterlimit:10;stroke-dasharray:none;stroke-opacity:1"
       d="m 178.8369,124.8418 c 4.46,-5.6 7.746,-6.734 10.045,-6.537 1.122,0.096 2.852,0.58 3.4,-0.147 0.737,-0.98 -1.532,-3.035 -0.721,-4.31 0.573,-0.906 2.319,-0.834 2.575,-0.824 4.466,0.181 7.511,8.111 7.882,9.105" /><path
       inkscape:connector-curvature="0"
       id="path5048"
       style="fill:#d71d29;fill-opacity:1;fill-rule:nonzero;stroke:none"
       d="m 170.7783,140.377 c 0.32,-0.088 1.518,-0.154 1.249,-0.723 0.074,-0.547 -0.429,-0.777 -0.431,-0.777 -14.163,-9.438 11.304,-22 15.254,-17.328 1.519,1.797 -1.04,7.73 -2.862,12.312 -0.739,1.858 -0.315,2.547 -0.427,3.524 -0.397,3.469 -4.1,5.418 -7.095,4.183 -0.807,-0.332 -1.239,0.227 -1.96,0.532 -0.982,0.414 -1.966,0.136 -2.814,-0.643 -0.226,-0.207 -0.427,-0.445 -0.627,-0.682 -0.107,-0.127 -0.223,-0.255 -0.322,-0.386 0.011,-0.004 0.021,-0.008 0.035,-0.012" /><path
       inkscape:connector-curvature="0"
       id="path5052"
       style="fill:none;stroke:#f36730;stroke-width:0.23999999;stroke-linecap:butt;stroke-linejoin:miter;stroke-miterlimit:10;stroke-dasharray:none;stroke-opacity:1"
       d="m 170.7783,140.377 c 0.32,-0.088 1.518,-0.154 1.249,-0.723 0.074,-0.547 -0.429,-0.777 -0.431,-0.777 -14.163,-9.438 11.304,-22 15.254,-17.328 1.519,1.797 -1.04,7.73 -2.862,12.312 -0.739,1.858 -0.315,2.547 -0.427,3.524 -0.397,3.469 -4.1,5.418 -7.095,4.183 -0.807,-0.332 -1.239,0.227 -1.96,0.532 -0.982,0.414 -1.966,0.136 -2.814,-0.643 -0.226,-0.207 -0.427,-0.445 -0.627,-0.682 -0.107,-0.127 -0.223,-0.255 -0.322,-0.386 0.011,-0.004 0.021,-0.008 0.035,-0.012 z" /><path
       inkscape:connector-curvature="0"
       id="path5056"
       style="fill:none;stroke:#f36730;stroke-width:0.47999999;stroke-linecap:round;stroke-linejoin:miter;stroke-miterlimit:10;stroke-dasharray:none;stroke-opacity:1"
       d="m 192.0283,113.377 c 0.786,-0.389 2.306,-1.273 3.503,-3.023 0.804,-1.178 1.169,-2.313 1.344,-3.071" /></g></svg>