<?xml version="1.0" encoding="UTF-8" standalone="no"?>
<!-- Created with Inkscape (http://www.inkscape.org/) -->

<svg
   xmlns:dc="http://purl.org/dc/elements/1.1/"
   xmlns:cc="http://creativecommons.org/ns#"
   xmlns:rdf="http://www.w3.org/1999/02/22-rdf-syntax-ns#"
   xmlns:svg="http://www.w3.org/2000/svg"
   xmlns="http://www.w3.org/2000/svg"
   xmlns:sodipodi="http://sodipodi.sourceforge.net/DTD/sodipodi-0.dtd"
   xmlns:inkscape="http://www.inkscape.org/namespaces/inkscape"
   id="svg4136"
   version="1.1"
   inkscape:version="0.91 r13725"
   xml:space="preserve"
   width="205.2"
   height="205.2"
   viewBox="0 0 205.2 205.2"
   sodipodi:docname="topmed_logo_all.pdf"><metadata
     id="metadata4142"><rdf:RDF><cc:Work
         rdf:about=""><dc:format>image/svg+xml</dc:format><dc:type
           rdf:resource="http://purl.org/dc/dcmitype/StillImage" /><dc:title></dc:title></cc:Work></rdf:RDF></metadata><defs
     id="defs4140"><clipPath
       clipPathUnits="userSpaceOnUse"
       id="clipPath4150"><path
         d="M 0,756 576,756 576,0 0,0 0,756 Z"
         id="path4152"
         inkscape:connector-curvature="0" /></clipPath><clipPath
       clipPathUnits="userSpaceOnUse"
       id="clipPath4166"><path
         d="m 97.2656,658.822 165.3644,0 0,-72.892 -165.3644,0 0,72.892 z"
         id="path4168"
         inkscape:connector-curvature="0" /></clipPath><clipPath
       clipPathUnits="userSpaceOnUse"
       id="clipPath4312"><path
         d="M 0,756 576,756 576,0 0,0 0,756 Z"
         id="path4314"
         inkscape:connector-curvature="0" /></clipPath><clipPath
       clipPathUnits="userSpaceOnUse"
       id="clipPath4328"><path
         d="m 97.2656,658.822 165.3644,0 0,-72.892 -165.3644,0 0,72.892 z"
         id="path4330"
         inkscape:connector-curvature="0" /></clipPath><clipPath
       clipPathUnits="userSpaceOnUse"
       id="clipPath4474"><path
         d="M 0,756 576,756 576,0 0,0 0,756 Z"
         id="path4476"
         inkscape:connector-curvature="0" /></clipPath><clipPath
       clipPathUnits="userSpaceOnUse"
       id="clipPath4624"><path
         d="M 0,756 576,756 576,0 0,0 0,756 Z"
         id="path4626"
         inkscape:connector-curvature="0" /></clipPath><clipPath
       clipPathUnits="userSpaceOnUse"
       id="clipPath4770"><path
         d="M 0,756 576,756 576,0 0,0 0,756 Z"
         id="path4772"
         inkscape:connector-curvature="0" /></clipPath><clipPath
       clipPathUnits="userSpaceOnUse"
       id="clipPath4794"><path
         d="M 0,756 576,756 576,0 0,0 0,756 Z"
         id="path4796"
         inkscape:connector-curvature="0" /></clipPath><clipPath
       clipPathUnits="userSpaceOnUse"
       id="clipPath4934"><path
         d="M 0,756 576,756 576,0 0,0 0,756 Z"
         id="path4936"
         inkscape:connector-curvature="0" /></clipPath><clipPath
       clipPathUnits="userSpaceOnUse"
       id="clipPath5084"><path
         d="M 0,756 576,756 576,0 0,0 0,756 Z"
         id="path5086"
         inkscape:connector-curvature="0" /></clipPath><clipPath
       clipPathUnits="userSpaceOnUse"
       id="clipPath5230"><path
         d="M 0,756 576,756 576,0 0,0 0,756 Z"
         id="path5232"
         inkscape:connector-curvature="0" /></clipPath><clipPath
       clipPathUnits="userSpaceOnUse"
       id="clipPath5374"><path
         d="M 0,756 576,756 576,0 0,0 0,756 Z"
         id="path5376"
         inkscape:connector-curvature="0" /></clipPath><clipPath
       clipPathUnits="userSpaceOnUse"
       id="clipPath5514"><path
         d="M 0,756 576,756 576,0 0,0 0,756 Z"
         id="path5516"
         inkscape:connector-curvature="0" /></clipPath></defs><sodipodi:namedview
     pagecolor="#ffffff"
     bordercolor="#666666"
     borderopacity="1"
     objecttolerance="10"
     gridtolerance="10"
     guidetolerance="10"
     inkscape:pageopacity="0"
     inkscape:pageshadow="2"
     inkscape:window-width="1857"
     inkscape:window-height="1403"
     id="namedview4138"
     showgrid="false"
     inkscape:zoom="1.3005291"
     inkscape:cx="247.66118"
     inkscape:cy="-186.02729"
     inkscape:window-x="65"
     inkscape:window-y="0"
     inkscape:window-maximized="0"
     inkscape:current-layer="g4144"
     fit-margin-top="0"
     fit-margin-left="0"
     fit-margin-right="0"
     fit-margin-bottom="0" /><g
     id="g4144"
     inkscape:groupmode="layer"
     inkscape:label="topmed_logo_all"
     transform="matrix(1.25,0,0,-1.25,-122.33475,894.484)"><path
       inkscape:connector-curvature="0"
       id="path4156"
       style="fill:#ffffff;fill-opacity:1;fill-rule:nonzero;stroke:none"
       d="m 179.9478,552.4272 c 44.779,0 81.08,36.301 81.08,81.08 0,44.779 -36.301,81.08 -81.08,81.08 -44.779,0 -81.08,-36.301 -81.08,-81.08 0,-44.779 36.301,-81.08 81.08,-81.08" /><path
       inkscape:connector-curvature="0"
       id="path4160"
       style="fill:none;stroke:#bdbcbc;stroke-width:2;stroke-linecap:butt;stroke-linejoin:miter;stroke-miterlimit:4;stroke-dasharray:none;stroke-opacity:1"
       d="m 179.9478,552.4272 c 44.779,0 81.08,36.301 81.08,81.08 0,44.779 -36.301,81.08 -81.08,81.08 -44.779,0 -81.08,-36.301 -81.08,-81.08 0,-44.779 36.301,-81.08 81.08,-81.08 z" /><path
       inkscape:connector-curvature="0"
       id="path4176"
       style="fill:#6eb4e1;fill-opacity:1;fill-rule:nonzero;stroke:none"
       d="m 240.6904,658.8208 c 0,0 -3.896,-2.095 -4.48,-2.969 -0.584,-0.875 -0.567,-3.397 -0.289,-4.768 0.28,-1.372 3.155,-9.717 6.391,-16.914 2.877,-8.008 3.734,-13.588 2.206,-14.48 1.94,1.4 2.997,1.877 3.819,2.693 0.269,0.266 0.722,1.875 0.121,5.083 -0.602,3.207 -8.579,23.242 -8.938,24.735 -0.358,1.493 -0.18,5 1.17,6.62" /><path
       inkscape:connector-curvature="0"
       id="path4180"
       style="fill:none;stroke:#3b87cb;stroke-width:0.23999999;stroke-linecap:butt;stroke-linejoin:miter;stroke-miterlimit:10;stroke-dasharray:none;stroke-opacity:1"
       d="m 240.6904,658.8208 c 0,0 -3.896,-2.095 -4.48,-2.969 -0.584,-0.875 -0.567,-3.397 -0.289,-4.768 0.28,-1.372 3.155,-9.717 6.391,-16.914 2.877,-8.008 3.734,-13.588 2.206,-14.48 1.94,1.4 2.997,1.877 3.819,2.693 0.269,0.266 0.722,1.875 0.121,5.083 -0.602,3.207 -8.579,23.242 -8.938,24.735 -0.358,1.493 -0.18,5 1.17,6.62 z" /><path
       inkscape:connector-curvature="0"
       id="path4184"
       style="fill:#6eb4e1;fill-opacity:1;fill-rule:nonzero;stroke:#3b87cb;stroke-width:0.23999999;stroke-linecap:butt;stroke-linejoin:miter;stroke-miterlimit:10;stroke-dasharray:none;stroke-opacity:1"
       d="m 177.2852,588.8228 c 22.67,-0.851 41.082,17.337 40.413,37.427 0,0 -0.715,8.27 0.014,13.007 0.598,3.893 2.9,5.513 2.9,5.513 0,0 -4.743,-2.878 -5.653,-3.583 -1.977,-1.531 -1.994,-2.764 -1.974,-12.727 0.608,-20.368 -16.89,-34.453 -35.988,-34.453" /><path
       inkscape:connector-curvature="0"
       id="path4188"
       style="fill:#f57716;fill-opacity:1;fill-rule:nonzero;stroke:none"
       d="m 98.3984,630.0308 c 0,0 1.979,-0.541 3.869,0.63 1.889,1.17 16.343,18.589 17.454,19.702 1.665,1.67 3.555,2.779 4.931,2.089 1.62,-0.99 5.057,-3.348 4.876,-3.258 -0.18,0.091 -3.418,0.9 -5.668,-0.269 -2.249,-1.17 -13.316,-16.016 -13.316,-16.016 0,0 -4.768,-4.84 -6.838,-5.379 -2.069,-0.54 -5.308,2.501 -5.308,2.501" /><path
       inkscape:connector-curvature="0"
       id="path4192"
       style="fill:none;stroke:#d71d29;stroke-width:0.23999999;stroke-linecap:butt;stroke-linejoin:miter;stroke-miterlimit:10;stroke-dasharray:none;stroke-opacity:1"
       d="m 98.3984,630.0308 c 0,0 1.979,-0.541 3.869,0.63 1.889,1.17 16.343,18.589 17.454,19.702 1.665,1.67 3.555,2.779 4.931,2.089 1.62,-0.99 5.057,-3.348 4.876,-3.258 -0.18,0.091 -3.418,0.9 -5.668,-0.269 -2.249,-1.17 -13.316,-16.016 -13.316,-16.016 0,0 -4.768,-4.84 -6.838,-5.379 -2.069,-0.54 -5.308,2.501 -5.308,2.501 z" /><path
       inkscape:connector-curvature="0"
       id="path4196"
       style="fill:#6eb4e1;fill-opacity:1;fill-rule:nonzero;stroke:none"
       d="m 108.3057,622.1782 c 0,0 3.202,-0.199 5.498,0.744 2.849,1.17 13.086,15.546 15.211,17.345 2.127,1.8 4.94,5.492 6.645,4.79 1.274,-0.525 5.655,-3.871 5.655,-3.871 0,0 -3.06,1.62 -5.128,0 -2.069,-1.618 -11.013,-12.271 -13.736,-16.114 -2.667,-3.764 -7.26,-6.629 -10.493,-5.542 -3.095,2.238 -3.652,2.648 -3.652,2.648" /><path
       inkscape:connector-curvature="0"
       id="path4200"
       style="fill:none;stroke:#3b87cb;stroke-width:0.23999999;stroke-linecap:butt;stroke-linejoin:miter;stroke-miterlimit:10;stroke-dasharray:none;stroke-opacity:1"
       d="m 108.3057,622.1782 c 0,0 3.202,-0.199 5.498,0.744 2.849,1.17 13.086,15.546 15.211,17.345 2.127,1.8 4.94,5.492 6.645,4.79 1.274,-0.525 5.655,-3.871 5.655,-3.871 0,0 -3.06,1.62 -5.128,0 -2.069,-1.618 -11.013,-12.271 -13.736,-16.114 -2.667,-3.764 -7.26,-6.629 -10.493,-5.542 -3.095,2.238 -3.652,2.648 -3.652,2.648 z" /><path
       inkscape:connector-curvature="0"
       id="path4204"
       style="fill:#f57716;fill-opacity:1;fill-rule:nonzero;stroke:none"
       d="m 129.5283,649.1938 c 0.902,-0.732 0.772,-5.437 -0.781,-9.132 -1.181,-2.806 -10.717,-21.8 -8.208,-26.929 -3.339,2.88 -3.513,2.748 -4.057,3.312 -1.287,1.329 1.91,10.347 4.15,16.016 2.239,5.667 5.699,11.727 5.741,16.129 0.016,1.62 -1.434,3.573 -1.434,3.573 0,0 3.687,-2.236 4.589,-2.969" /><path
       inkscape:connector-curvature="0"
       id="path4208"
       style="fill:none;stroke:#d71d29;stroke-width:0.23999999;stroke-linecap:butt;stroke-linejoin:miter;stroke-miterlimit:10;stroke-dasharray:none;stroke-opacity:1"
       d="m 129.5283,649.1938 c 0.902,-0.732 0.772,-5.437 -0.781,-9.132 -1.181,-2.806 -10.717,-21.8 -8.208,-26.929 -3.339,2.88 -3.513,2.748 -4.057,3.312 -1.287,1.329 1.91,10.347 4.15,16.016 2.239,5.667 5.699,11.727 5.741,16.129 0.016,1.62 -1.434,3.573 -1.434,3.573 0,0 3.687,-2.236 4.589,-2.969 z" /><path
       inkscape:connector-curvature="0"
       id="path4212"
       style="fill:#6eb4e1;fill-opacity:1;fill-rule:nonzero;stroke:none"
       d="m 115.583,658.8208 c 0,0 3.896,-2.095 4.48,-2.969 0.584,-0.875 0.567,-3.397 0.289,-4.768 -0.28,-1.372 -3.155,-9.717 -6.392,-16.914 -2.876,-8.008 -3.733,-13.588 -2.205,-14.48 -1.941,1.4 -2.998,1.877 -3.819,2.693 -0.27,0.266 -0.722,1.875 -0.121,5.083 0.601,3.207 8.578,23.242 8.938,24.735 0.358,1.493 0.18,5 -1.17,6.62" /><path
       inkscape:connector-curvature="0"
       id="path4216"
       style="fill:none;stroke:#3b87cb;stroke-width:0.23999999;stroke-linecap:butt;stroke-linejoin:miter;stroke-miterlimit:10;stroke-dasharray:none;stroke-opacity:1"
       d="m 115.583,658.8208 c 0,0 3.896,-2.095 4.48,-2.969 0.584,-0.875 0.567,-3.397 0.289,-4.768 -0.28,-1.372 -3.155,-9.717 -6.392,-16.914 -2.876,-8.008 -3.733,-13.588 -2.205,-14.48 -1.941,1.4 -2.998,1.877 -3.819,2.693 -0.27,0.266 -0.722,1.875 -0.121,5.083 0.601,3.207 8.578,23.242 8.938,24.735 0.358,1.493 0.18,5 -1.17,6.62 z" /><path
       inkscape:connector-curvature="0"
       id="path4220"
       style="fill:#6eb4e1;fill-opacity:1;fill-rule:nonzero;stroke:#3b87cb;stroke-width:0.23999999;stroke-linecap:butt;stroke-linejoin:miter;stroke-miterlimit:10;stroke-dasharray:none;stroke-opacity:1"
       d="m 178.9883,588.8228 c -22.671,-0.851 -41.082,17.337 -40.413,37.427 0,0 0.066,9.077 -0.662,13.812 -0.599,3.895 -2.252,4.996 -2.252,4.996 0,0 4.742,-3.166 5.653,-3.871 1.998,-1.547 1.687,-13.303 1.687,-13.303 -0.61,-20.368 17.177,-33.877 36.275,-33.877" /><path
       inkscape:connector-curvature="0"
       id="path4224"
       style="fill:#f57716;fill-opacity:1;fill-rule:nonzero;stroke:none"
       d="m 257.875,630.0308 c 0,0 -2.133,-0.756 -3.869,0.63 -3.106,2.477 -16.339,19.026 -17.244,19.919 -1.679,1.654 -3.766,2.562 -5.141,1.872 -1.62,-0.99 -5.057,-3.348 -4.877,-3.258 0.181,0.091 3.419,0.9 5.669,-0.269 2.249,-1.17 7.185,-8.287 7.185,-8.287 0,0 10.899,-12.569 12.969,-13.108 2.069,-0.54 5.308,2.501 5.308,2.501" /><path
       inkscape:connector-curvature="0"
       id="path4228"
       style="fill:none;stroke:#d71d29;stroke-width:0.23999999;stroke-linecap:butt;stroke-linejoin:miter;stroke-miterlimit:10;stroke-dasharray:none;stroke-opacity:1"
       d="m 257.875,630.0308 c 0,0 -2.133,-0.756 -3.869,0.63 -3.106,2.477 -16.339,19.026 -17.244,19.919 -1.679,1.654 -3.766,2.562 -5.141,1.872 -1.62,-0.99 -5.057,-3.348 -4.877,-3.258 0.181,0.091 3.419,0.9 5.669,-0.269 2.249,-1.17 7.185,-8.287 7.185,-8.287 0,0 10.899,-12.569 12.969,-13.108 2.069,-0.54 5.308,2.501 5.308,2.501 z" /><path
       inkscape:connector-curvature="0"
       id="path4232"
       style="fill:#f57716;fill-opacity:1;fill-rule:nonzero;stroke:none"
       d="m 209.7227,644.0054 c 10.119,-6.604 19.67,-25.207 23.24,-27.219 2.141,-1.207 6.233,-0.936 6.233,-0.936 l -3.841,-3.292 c 0,0 -1.683,-0.863 -4.351,0.575 -3.334,1.798 -11.973,16.189 -17.142,21.917 -5.171,5.728 -13.448,10.022 -21.593,12.345 -8.146,2.321 -20.118,2.321 -28.264,0 -8.144,-2.323 -16.422,-6.653 -21.593,-12.381 -1.818,-2.014 -3.409,-4.238 -4.988,-6.441 -2.411,-3.364 -4.729,-6.797 -7.206,-10.114 -1.01,-1.353 -3.028,-3.947 -5.55,-5.326 -2.162,-1.182 -3.6,-0.513 -3.791,-0.348 -0.483,0.415 -3.947,3.382 -4.107,3.395 1.051,-0.085 2.324,-0.244 3.371,-0.127 3.751,0.419 5.616,3.785 7.549,6.574 2.357,3.405 4.748,6.788 7.32,10.034 2.677,3.378 5.542,6.693 8.891,9.427 0.844,0.689 1.723,1.339 2.65,1.916 5.576,3.473 11.805,9.225 30.158,9.97 18.109,0.734 29.721,-7.82 33.014,-9.969" /><path
       inkscape:connector-curvature="0"
       id="path4236"
       style="fill:none;stroke:#d71d29;stroke-width:0.23999999;stroke-linecap:butt;stroke-linejoin:miter;stroke-miterlimit:10;stroke-dasharray:none;stroke-opacity:1"
       d="m 209.7227,644.0054 c 10.119,-6.604 19.67,-25.207 23.24,-27.219 2.141,-1.207 6.233,-0.936 6.233,-0.936 l -3.841,-3.292 c 0,0 -1.683,-0.863 -4.351,0.575 -3.334,1.798 -11.973,16.189 -17.142,21.917 -5.171,5.728 -13.448,10.022 -21.593,12.345 -8.146,2.321 -20.118,2.321 -28.264,0 -8.144,-2.323 -16.422,-6.653 -21.593,-12.381 -1.818,-2.014 -3.409,-4.238 -4.988,-6.441 -2.411,-3.364 -4.729,-6.797 -7.206,-10.114 -1.01,-1.353 -3.028,-3.947 -5.55,-5.326 -2.162,-1.182 -3.6,-0.513 -3.791,-0.348 -0.483,0.415 -3.947,3.382 -4.107,3.395 1.051,-0.085 2.324,-0.244 3.371,-0.127 3.751,0.419 5.616,3.785 7.549,6.574 2.357,3.405 4.748,6.788 7.32,10.034 2.677,3.378 5.542,6.693 8.891,9.427 0.844,0.689 1.723,1.339 2.65,1.916 5.576,3.473 11.805,9.225 30.158,9.97 18.109,0.734 29.721,-7.82 33.014,-9.969 z" /><path
       inkscape:connector-curvature="0"
       id="path4240"
       style="fill:#f57716;fill-opacity:1;fill-rule:nonzero;stroke:none"
       d="m 226.7451,649.1938 c -0.903,-0.732 -0.772,-5.437 0.781,-9.132 1.181,-2.806 10.657,-22.018 8.148,-27.147 3.34,2.879 3.573,2.966 4.117,3.53 1.287,1.329 -1.91,10.347 -4.15,16.016 -2.239,5.667 -5.699,11.727 -5.742,16.129 -0.015,1.62 1.435,3.573 1.435,3.573 0,0 -3.687,-2.236 -4.589,-2.969" /><path
       inkscape:connector-curvature="0"
       id="path4244"
       style="fill:none;stroke:#d71d29;stroke-width:0.23999999;stroke-linecap:butt;stroke-linejoin:miter;stroke-miterlimit:10;stroke-dasharray:none;stroke-opacity:1"
       d="m 226.7451,649.1938 c -0.903,-0.732 -0.772,-5.437 0.781,-9.132 1.181,-2.806 10.657,-22.018 8.148,-27.147 3.34,2.879 3.573,2.966 4.117,3.53 1.287,1.329 -1.91,10.347 -4.15,16.016 -2.239,5.667 -5.699,11.727 -5.742,16.129 -0.015,1.62 1.435,3.573 1.435,3.573 0,0 -3.687,-2.236 -4.589,-2.969 z" /><path
       inkscape:connector-curvature="0"
       id="path4248"
       style="fill:#6eb4e1;fill-opacity:1;fill-rule:nonzero;stroke:none"
       d="m 247.9678,622.1782 c 0,0 -2.305,-0.671 -5.498,0.744 -4.831,2.143 -12.006,13.831 -17.464,19.548 -3.023,3.167 -4.475,2.503 -4.906,2.324 -1.274,-0.524 -5.142,-3.608 -5.142,-3.608 0,0 2.964,1.49 5.129,0 2.039,-1.403 3.655,-4.11 8.069,-9.388 3.1,-3.704 6.588,-7.952 9.565,-10.585 3.083,-2.724 5.584,-2.022 6.595,-1.683 3.095,2.238 3.652,2.648 3.652,2.648" /><path
       inkscape:connector-curvature="0"
       id="path4252"
       style="fill:none;stroke:#3b87cb;stroke-width:0.23999999;stroke-linecap:butt;stroke-linejoin:miter;stroke-miterlimit:10;stroke-dasharray:none;stroke-opacity:1"
       d="m 247.9678,622.1782 c 0,0 -2.305,-0.671 -5.498,0.744 -4.831,2.143 -12.006,13.831 -17.464,19.548 -3.023,3.167 -4.475,2.503 -4.906,2.324 -1.274,-0.524 -5.142,-3.608 -5.142,-3.608 0,0 2.964,1.49 5.129,0 2.039,-1.403 3.655,-4.11 8.069,-9.388 3.1,-3.704 6.588,-7.952 9.565,-10.585 3.083,-2.724 5.584,-2.022 6.595,-1.683 3.095,2.238 3.652,2.648 3.652,2.648 z" /><path
       inkscape:connector-curvature="0"
       id="path4256"
       style="fill:#f57716;fill-opacity:1;fill-rule:nonzero;stroke:#d71d29;stroke-width:0.23999999;stroke-linecap:butt;stroke-linejoin:miter;stroke-miterlimit:10;stroke-dasharray:none;stroke-opacity:1"
       d="m 235.3545,612.5581 c 0,0 -1.69,-0.874 -4.351,0.575 -4.118,2.244 -11.971,16.189 -17.142,21.917" /><path
       inkscape:connector-curvature="0"
       id="path4260"
       style="fill:#6eb4e1;fill-opacity:1;fill-rule:nonzero;stroke:none"
       d="m 200.1162,618.8335 c -0.291,8.318 -3.86,14.043 -5.897,17.221 -2.143,3.342 -5.531,8.625 -8.494,8.021 -2.433,-0.496 -6.212,-5.295 -8.728,-8.493 l 0,-0.152 c -2.517,3.198 -6.295,7.998 -8.729,8.494 -2.963,0.602 -6.35,-4.68 -8.492,-8.023 -2.038,-3.175 -5.606,-8.901 -5.898,-17.22 -0.179,-5.083 -0.419,-11.932 4.009,-15.098 5.427,-2.079 17.355,3.325 17.222,4.01 -0.071,0.368 0.367,10.511 1.888,10.466 1.52,-0.044 1.958,-9.946 1.888,-10.314 -0.133,-0.685 11.794,-6.091 17.22,-4.011 4.43,3.167 4.189,10.016 4.011,15.099" /><path
       inkscape:connector-curvature="0"
       id="path4264"
       style="fill:none;stroke:#f36730;stroke-width:0.23999999;stroke-linecap:butt;stroke-linejoin:miter;stroke-miterlimit:10;stroke-dasharray:none;stroke-opacity:1"
       d="m 200.1162,618.8335 c -0.291,8.318 -3.86,14.043 -5.897,17.221 -2.143,3.342 -5.531,8.625 -8.494,8.021 -2.433,-0.496 -6.212,-5.295 -8.728,-8.493 l 0,-0.152 c -2.517,3.198 -6.295,7.998 -8.729,8.494 -2.963,0.602 -6.35,-4.68 -8.492,-8.023 -2.038,-3.175 -5.606,-8.901 -5.898,-17.22 -0.179,-5.083 -0.419,-11.932 4.009,-15.098 5.427,-2.079 17.355,3.325 17.222,4.01 -0.071,0.368 0.367,10.511 1.888,10.466 1.52,-0.044 1.958,-9.946 1.888,-10.314 -0.133,-0.685 11.794,-6.091 17.22,-4.011 4.43,3.167 4.189,10.016 4.011,15.099 z" /><path
       inkscape:connector-curvature="0"
       id="path4268"
       style="fill:none;stroke:#f36730;stroke-width:0.47999999;stroke-linecap:round;stroke-linejoin:miter;stroke-miterlimit:10;stroke-dasharray:none;stroke-opacity:1"
       d="m 177.8242,619.2241 c -1.119,-0.854 -2.121,-1.148 -5.037,-1.551 -3.765,-0.518 -7.149,0.544 -9.398,1.624 -4.095,1.966 -6.723,5.451 -8.332,7.532" /><path
       inkscape:connector-curvature="0"
       id="path4272"
       style="fill:none;stroke:#f57716;stroke-width:0.47999999;stroke-linecap:round;stroke-linejoin:miter;stroke-miterlimit:10;stroke-dasharray:none;stroke-opacity:1"
       d="m 154.3799,624.9399 c 1.051,-2.448 2.818,-5.818 5.764,-9.252 3.225,-3.76 6.611,-6.138 9.01,-7.557" /><path
       inkscape:connector-curvature="0"
       id="path4276"
       style="fill:none;stroke:#f57716;stroke-width:0.47999999;stroke-linecap:round;stroke-linejoin:miter;stroke-miterlimit:10;stroke-dasharray:none;stroke-opacity:1"
       d="m 165.8115,603.9165 c 0.599,1.145 1.8,3.076 3.972,4.796 2.084,1.651 4.146,2.378 5.377,2.713" /><path
       inkscape:connector-curvature="0"
       id="path4280"
       style="fill:none;stroke:#f36730;stroke-width:0.47999999;stroke-linecap:round;stroke-linejoin:miter;stroke-miterlimit:10;stroke-dasharray:none;stroke-opacity:1"
       d="m 177.0254,621.0669 c 4.46,-5.6 7.746,-6.735 10.045,-6.539 1.122,0.097 2.852,0.583 3.4,-0.147 0.737,-0.979 -1.532,-3.033 -0.721,-4.309 0.573,-0.905 2.319,-0.834 2.575,-0.823 4.466,0.179 7.511,8.112 7.882,9.105" /><path
       inkscape:connector-curvature="0"
       id="path4284"
       style="fill:#d71d29;fill-opacity:1;fill-rule:nonzero;stroke:none"
       d="m 168.9668,636.603 c 0.32,-0.088 1.518,-0.156 1.249,-0.724 0.074,-0.547 -0.429,-0.776 -0.431,-0.777 -14.163,-9.437 11.304,-22 15.254,-17.329 1.519,1.797 -1.04,7.732 -2.862,12.312 -0.739,1.858 -0.315,2.548 -0.427,3.525 -0.397,3.468 -4.1,5.416 -7.095,4.182 -0.807,-0.332 -1.239,0.226 -1.96,0.531 -0.982,0.415 -1.966,0.138 -2.814,-0.642 -0.226,-0.208 -0.427,-0.445 -0.627,-0.681 -0.107,-0.127 -0.223,-0.256 -0.322,-0.386 0.011,-0.004 0.021,-0.008 0.035,-0.011" /><path
       inkscape:connector-curvature="0"
       id="path4288"
       style="fill:none;stroke:#f36730;stroke-width:0.23999999;stroke-linecap:butt;stroke-linejoin:miter;stroke-miterlimit:10;stroke-dasharray:none;stroke-opacity:1"
       d="m 168.9668,636.603 c 0.32,-0.088 1.518,-0.156 1.249,-0.724 0.074,-0.547 -0.429,-0.776 -0.431,-0.777 -14.163,-9.437 11.304,-22 15.254,-17.329 1.519,1.797 -1.04,7.732 -2.862,12.312 -0.739,1.858 -0.315,2.548 -0.427,3.525 -0.397,3.468 -4.1,5.416 -7.095,4.182 -0.807,-0.332 -1.239,0.226 -1.96,0.531 -0.982,0.415 -1.966,0.138 -2.814,-0.642 -0.226,-0.208 -0.427,-0.445 -0.627,-0.681 -0.107,-0.127 -0.223,-0.256 -0.322,-0.386 0.011,-0.004 0.021,-0.008 0.035,-0.011 z" /><path
       inkscape:connector-curvature="0"
       id="path4292"
       style="fill:none;stroke:#f36730;stroke-width:0.47999999;stroke-linecap:round;stroke-linejoin:miter;stroke-miterlimit:10;stroke-dasharray:none;stroke-opacity:1"
       d="m 190.2168,609.6011 c 0.786,-0.388 2.306,-1.273 3.503,-3.022 0.804,-1.178 1.169,-2.314 1.344,-3.072" /><text
       transform="matrix(1,0,0,-1,157.1943,691.5874)"
       style="font-variant:normal;font-weight:normal;font-stretch:normal;font-size:16px;font-family:Rockwell;-inkscape-font-specification:Rockwell;writing-mode:lr-tb;fill:#231f20;fill-opacity:1;fill-rule:nonzero;stroke:none"
       id="text4294"><tspan
         x="0 11.504 22.832001 31.167999 40.495998"
         y="0"
         sodipodi:role="line"
         id="tspan4296">NHLBI</tspan></text>
<text
       transform="matrix(1,0,0,-1,133.6108,666.3872)"
       style="font-variant:normal;font-weight:bold;font-stretch:normal;font-size:21px;font-family:Rockwell;-inkscape-font-specification:Rockwell-Bold;writing-mode:lr-tb;fill:#231f20;fill-opacity:1;fill-rule:nonzero;stroke:none"
       id="text4298"><tspan
         x="0 13.692 31.625999 45.632999 67.514999 79.547997"
         y="0"
         sodipodi:role="line"
         id="tspan4300">TOPMed</tspan></text>
<text
       transform="matrix(1,0,0,-1,142.6919,576.5879)"
       style="font-variant:normal;font-weight:normal;font-stretch:normal;font-size:11px;font-family:Rockwell;-inkscape-font-specification:Rockwell;writing-mode:lr-tb;fill:#231f20;fill-opacity:1;fill-rule:nonzero;stroke:none"
       id="text4302"><tspan
         x="0 8.2609997 14.564 20.867001 24.079 30.382 33.132 39.798 46.101002 52.403999 58.707001 68.222"
         y="0"
         sodipodi:role="line"
         id="tspan4304">whole genome</tspan><tspan
         x="7.744 12.782 19.084999 25.85 32.042999 38.346001 44.648998 50.380001 53.591999 59.895"
         y="13.2"
         sodipodi:role="line"
         id="tspan4306">sequencing</tspan></text>
<path
       inkscape:connector-curvature="0"
       id="path4318"
       style="fill:#ffffff;fill-opacity:1;fill-rule:nonzero;stroke:none"
       d="m 179.9478,552.4272 c 44.779,0 81.08,36.301 81.08,81.08 0,44.779 -36.301,81.08 -81.08,81.08 -44.779,0 -81.08,-36.301 -81.08,-81.08 0,-44.779 36.301,-81.08 81.08,-81.08" /><path
       inkscape:connector-curvature="0"
       id="path4322"
       style="fill:none;stroke:#bdbcbc;stroke-width:2;stroke-linecap:butt;stroke-linejoin:miter;stroke-miterlimit:4;stroke-dasharray:none;stroke-opacity:1"
       d="m 179.9478,552.4272 c 44.779,0 81.08,36.301 81.08,81.08 0,44.779 -36.301,81.08 -81.08,81.08 -44.779,0 -81.08,-36.301 -81.08,-81.08 0,-44.779 36.301,-81.08 81.08,-81.08 z" /><path
       inkscape:connector-curvature="0"
       id="path4338"
       style="fill:#6eb4e1;fill-opacity:1;fill-rule:nonzero;stroke:none"
       d="m 240.6904,658.8208 c 0,0 -3.896,-2.095 -4.48,-2.969 -0.584,-0.875 -0.567,-3.397 -0.289,-4.768 0.28,-1.372 3.155,-9.717 6.391,-16.914 2.877,-8.008 3.734,-13.588 2.206,-14.48 1.94,1.4 2.997,1.877 3.819,2.693 0.269,0.266 0.722,1.875 0.121,5.083 -0.602,3.207 -8.579,23.242 -8.938,24.735 -0.358,1.493 -0.18,5 1.17,6.62" /><path
       inkscape:connector-curvature="0"
       id="path4342"
       style="fill:none;stroke:#3b87cb;stroke-width:0.23999999;stroke-linecap:butt;stroke-linejoin:miter;stroke-miterlimit:10;stroke-dasharray:none;stroke-opacity:1"
       d="m 240.6904,658.8208 c 0,0 -3.896,-2.095 -4.48,-2.969 -0.584,-0.875 -0.567,-3.397 -0.289,-4.768 0.28,-1.372 3.155,-9.717 6.391,-16.914 2.877,-8.008 3.734,-13.588 2.206,-14.48 1.94,1.4 2.997,1.877 3.819,2.693 0.269,0.266 0.722,1.875 0.121,5.083 -0.602,3.207 -8.579,23.242 -8.938,24.735 -0.358,1.493 -0.18,5 1.17,6.62 z" /><path
       inkscape:connector-curvature="0"
       id="path4346"
       style="fill:#6eb4e1;fill-opacity:1;fill-rule:nonzero;stroke:#3b87cb;stroke-width:0.23999999;stroke-linecap:butt;stroke-linejoin:miter;stroke-miterlimit:10;stroke-dasharray:none;stroke-opacity:1"
       d="m 177.2852,588.8228 c 22.67,-0.851 41.082,17.337 40.413,37.427 0,0 -0.715,8.27 0.014,13.007 0.598,3.893 2.9,5.513 2.9,5.513 0,0 -4.743,-2.878 -5.653,-3.583 -1.977,-1.531 -1.994,-2.764 -1.974,-12.727 0.608,-20.368 -16.89,-34.453 -35.988,-34.453" /><path
       inkscape:connector-curvature="0"
       id="path4350"
       style="fill:#f57716;fill-opacity:1;fill-rule:nonzero;stroke:none"
       d="m 98.3984,630.0308 c 0,0 1.979,-0.541 3.869,0.63 1.889,1.17 16.343,18.589 17.454,19.702 1.665,1.67 3.555,2.779 4.931,2.089 1.62,-0.99 5.057,-3.348 4.876,-3.258 -0.18,0.091 -3.418,0.9 -5.668,-0.269 -2.249,-1.17 -13.316,-16.016 -13.316,-16.016 0,0 -4.768,-4.84 -6.838,-5.379 -2.069,-0.54 -5.308,2.501 -5.308,2.501" /><path
       inkscape:connector-curvature="0"
       id="path4354"
       style="fill:none;stroke:#d71d29;stroke-width:0.23999999;stroke-linecap:butt;stroke-linejoin:miter;stroke-miterlimit:10;stroke-dasharray:none;stroke-opacity:1"
       d="m 98.3984,630.0308 c 0,0 1.979,-0.541 3.869,0.63 1.889,1.17 16.343,18.589 17.454,19.702 1.665,1.67 3.555,2.779 4.931,2.089 1.62,-0.99 5.057,-3.348 4.876,-3.258 -0.18,0.091 -3.418,0.9 -5.668,-0.269 -2.249,-1.17 -13.316,-16.016 -13.316,-16.016 0,0 -4.768,-4.84 -6.838,-5.379 -2.069,-0.54 -5.308,2.501 -5.308,2.501 z" /><path
       inkscape:connector-curvature="0"
       id="path4358"
       style="fill:#6eb4e1;fill-opacity:1;fill-rule:nonzero;stroke:none"
       d="m 108.3057,622.1782 c 0,0 3.202,-0.199 5.498,0.744 2.849,1.17 13.086,15.546 15.211,17.345 2.127,1.8 4.94,5.492 6.645,4.79 1.274,-0.525 5.655,-3.871 5.655,-3.871 0,0 -3.06,1.62 -5.128,0 -2.069,-1.618 -11.013,-12.271 -13.736,-16.114 -2.667,-3.764 -7.26,-6.629 -10.493,-5.542 -3.095,2.238 -3.652,2.648 -3.652,2.648" /><path
       inkscape:connector-curvature="0"
       id="path4362"
       style="fill:none;stroke:#3b87cb;stroke-width:0.23999999;stroke-linecap:butt;stroke-linejoin:miter;stroke-miterlimit:10;stroke-dasharray:none;stroke-opacity:1"
       d="m 108.3057,622.1782 c 0,0 3.202,-0.199 5.498,0.744 2.849,1.17 13.086,15.546 15.211,17.345 2.127,1.8 4.94,5.492 6.645,4.79 1.274,-0.525 5.655,-3.871 5.655,-3.871 0,0 -3.06,1.62 -5.128,0 -2.069,-1.618 -11.013,-12.271 -13.736,-16.114 -2.667,-3.764 -7.26,-6.629 -10.493,-5.542 -3.095,2.238 -3.652,2.648 -3.652,2.648 z" /><path
       inkscape:connector-curvature="0"
       id="path4366"
       style="fill:#f57716;fill-opacity:1;fill-rule:nonzero;stroke:none"
       d="m 129.5283,649.1938 c 0.902,-0.732 0.772,-5.437 -0.781,-9.132 -1.181,-2.806 -10.717,-21.8 -8.208,-26.929 -3.339,2.88 -3.513,2.748 -4.057,3.312 -1.287,1.329 1.91,10.347 4.15,16.016 2.239,5.667 5.699,11.727 5.741,16.129 0.016,1.62 -1.434,3.573 -1.434,3.573 0,0 3.687,-2.236 4.589,-2.969" /><path
       inkscape:connector-curvature="0"
       id="path4370"
       style="fill:none;stroke:#d71d29;stroke-width:0.23999999;stroke-linecap:butt;stroke-linejoin:miter;stroke-miterlimit:10;stroke-dasharray:none;stroke-opacity:1"
       d="m 129.5283,649.1938 c 0.902,-0.732 0.772,-5.437 -0.781,-9.132 -1.181,-2.806 -10.717,-21.8 -8.208,-26.929 -3.339,2.88 -3.513,2.748 -4.057,3.312 -1.287,1.329 1.91,10.347 4.15,16.016 2.239,5.667 5.699,11.727 5.741,16.129 0.016,1.62 -1.434,3.573 -1.434,3.573 0,0 3.687,-2.236 4.589,-2.969 z" /><path
       inkscape:connector-curvature="0"
       id="path4374"
       style="fill:#6eb4e1;fill-opacity:1;fill-rule:nonzero;stroke:none"
       d="m 115.583,658.8208 c 0,0 3.896,-2.095 4.48,-2.969 0.584,-0.875 0.567,-3.397 0.289,-4.768 -0.28,-1.372 -3.155,-9.717 -6.392,-16.914 -2.876,-8.008 -3.733,-13.588 -2.205,-14.48 -1.941,1.4 -2.998,1.877 -3.819,2.693 -0.27,0.266 -0.722,1.875 -0.121,5.083 0.601,3.207 8.578,23.242 8.938,24.735 0.358,1.493 0.18,5 -1.17,6.62" /><path
       inkscape:connector-curvature="0"
       id="path4378"
       style="fill:none;stroke:#3b87cb;stroke-width:0.23999999;stroke-linecap:butt;stroke-linejoin:miter;stroke-miterlimit:10;stroke-dasharray:none;stroke-opacity:1"
       d="m 115.583,658.8208 c 0,0 3.896,-2.095 4.48,-2.969 0.584,-0.875 0.567,-3.397 0.289,-4.768 -0.28,-1.372 -3.155,-9.717 -6.392,-16.914 -2.876,-8.008 -3.733,-13.588 -2.205,-14.48 -1.941,1.4 -2.998,1.877 -3.819,2.693 -0.27,0.266 -0.722,1.875 -0.121,5.083 0.601,3.207 8.578,23.242 8.938,24.735 0.358,1.493 0.18,5 -1.17,6.62 z" /><path
       inkscape:connector-curvature="0"
       id="path4382"
       style="fill:#6eb4e1;fill-opacity:1;fill-rule:nonzero;stroke:#3b87cb;stroke-width:0.23999999;stroke-linecap:butt;stroke-linejoin:miter;stroke-miterlimit:10;stroke-dasharray:none;stroke-opacity:1"
       d="m 178.9883,588.8228 c -22.671,-0.851 -41.082,17.337 -40.413,37.427 0,0 0.066,9.077 -0.662,13.812 -0.599,3.895 -2.252,4.996 -2.252,4.996 0,0 4.742,-3.166 5.653,-3.871 1.998,-1.547 1.687,-13.303 1.687,-13.303 -0.61,-20.368 17.177,-33.877 36.275,-33.877" /><path
       inkscape:connector-curvature="0"
       id="path4386"
       style="fill:#f57716;fill-opacity:1;fill-rule:nonzero;stroke:none"
       d="m 257.875,630.0308 c 0,0 -2.133,-0.756 -3.869,0.63 -3.106,2.477 -16.339,19.026 -17.244,19.919 -1.679,1.654 -3.766,2.562 -5.141,1.872 -1.62,-0.99 -5.057,-3.348 -4.877,-3.258 0.181,0.091 3.419,0.9 5.669,-0.269 2.249,-1.17 7.185,-8.287 7.185,-8.287 0,0 10.899,-12.569 12.969,-13.108 2.069,-0.54 5.308,2.501 5.308,2.501" /><path
       inkscape:connector-curvature="0"
       id="path4390"
       style="fill:none;stroke:#d71d29;stroke-width:0.23999999;stroke-linecap:butt;stroke-linejoin:miter;stroke-miterlimit:10;stroke-dasharray:none;stroke-opacity:1"
       d="m 257.875,630.0308 c 0,0 -2.133,-0.756 -3.869,0.63 -3.106,2.477 -16.339,19.026 -17.244,19.919 -1.679,1.654 -3.766,2.562 -5.141,1.872 -1.62,-0.99 -5.057,-3.348 -4.877,-3.258 0.181,0.091 3.419,0.9 5.669,-0.269 2.249,-1.17 7.185,-8.287 7.185,-8.287 0,0 10.899,-12.569 12.969,-13.108 2.069,-0.54 5.308,2.501 5.308,2.501 z" /><path
       inkscape:connector-curvature="0"
       id="path4394"
       style="fill:#f57716;fill-opacity:1;fill-rule:nonzero;stroke:none"
       d="m 209.7227,644.0054 c 10.119,-6.604 19.67,-25.207 23.24,-27.219 2.141,-1.207 6.233,-0.936 6.233,-0.936 l -3.841,-3.292 c 0,0 -1.683,-0.863 -4.351,0.575 -3.334,1.798 -11.973,16.189 -17.142,21.917 -5.171,5.728 -13.448,10.022 -21.593,12.345 -8.146,2.321 -20.118,2.321 -28.264,0 -8.144,-2.323 -16.422,-6.653 -21.593,-12.381 -1.818,-2.014 -3.409,-4.238 -4.988,-6.441 -2.411,-3.364 -4.729,-6.797 -7.206,-10.114 -1.01,-1.353 -3.028,-3.947 -5.55,-5.326 -2.162,-1.182 -3.6,-0.513 -3.791,-0.348 -0.483,0.415 -3.947,3.382 -4.107,3.395 1.051,-0.085 2.324,-0.244 3.371,-0.127 3.751,0.419 5.616,3.785 7.549,6.574 2.357,3.405 4.748,6.788 7.32,10.034 2.677,3.378 5.542,6.693 8.891,9.427 0.844,0.689 1.723,1.339 2.65,1.916 5.576,3.473 11.805,9.225 30.158,9.97 18.109,0.734 29.721,-7.82 33.014,-9.969" /><path
       inkscape:connector-curvature="0"
       id="path4398"
       style="fill:none;stroke:#d71d29;stroke-width:0.23999999;stroke-linecap:butt;stroke-linejoin:miter;stroke-miterlimit:10;stroke-dasharray:none;stroke-opacity:1"
       d="m 209.7227,644.0054 c 10.119,-6.604 19.67,-25.207 23.24,-27.219 2.141,-1.207 6.233,-0.936 6.233,-0.936 l -3.841,-3.292 c 0,0 -1.683,-0.863 -4.351,0.575 -3.334,1.798 -11.973,16.189 -17.142,21.917 -5.171,5.728 -13.448,10.022 -21.593,12.345 -8.146,2.321 -20.118,2.321 -28.264,0 -8.144,-2.323 -16.422,-6.653 -21.593,-12.381 -1.818,-2.014 -3.409,-4.238 -4.988,-6.441 -2.411,-3.364 -4.729,-6.797 -7.206,-10.114 -1.01,-1.353 -3.028,-3.947 -5.55,-5.326 -2.162,-1.182 -3.6,-0.513 -3.791,-0.348 -0.483,0.415 -3.947,3.382 -4.107,3.395 1.051,-0.085 2.324,-0.244 3.371,-0.127 3.751,0.419 5.616,3.785 7.549,6.574 2.357,3.405 4.748,6.788 7.32,10.034 2.677,3.378 5.542,6.693 8.891,9.427 0.844,0.689 1.723,1.339 2.65,1.916 5.576,3.473 11.805,9.225 30.158,9.97 18.109,0.734 29.721,-7.82 33.014,-9.969 z" /><path
       inkscape:connector-curvature="0"
       id="path4402"
       style="fill:#f57716;fill-opacity:1;fill-rule:nonzero;stroke:none"
       d="m 226.7451,649.1938 c -0.903,-0.732 -0.772,-5.437 0.781,-9.132 1.181,-2.806 10.657,-22.018 8.148,-27.147 3.34,2.879 3.573,2.966 4.117,3.53 1.287,1.329 -1.91,10.347 -4.15,16.016 -2.239,5.667 -5.699,11.727 -5.742,16.129 -0.015,1.62 1.435,3.573 1.435,3.573 0,0 -3.687,-2.236 -4.589,-2.969" /><path
       inkscape:connector-curvature="0"
       id="path4406"
       style="fill:none;stroke:#d71d29;stroke-width:0.23999999;stroke-linecap:butt;stroke-linejoin:miter;stroke-miterlimit:10;stroke-dasharray:none;stroke-opacity:1"
       d="m 226.7451,649.1938 c -0.903,-0.732 -0.772,-5.437 0.781,-9.132 1.181,-2.806 10.657,-22.018 8.148,-27.147 3.34,2.879 3.573,2.966 4.117,3.53 1.287,1.329 -1.91,10.347 -4.15,16.016 -2.239,5.667 -5.699,11.727 -5.742,16.129 -0.015,1.62 1.435,3.573 1.435,3.573 0,0 -3.687,-2.236 -4.589,-2.969 z" /><path
       inkscape:connector-curvature="0"
       id="path4410"
       style="fill:#6eb4e1;fill-opacity:1;fill-rule:nonzero;stroke:none"
       d="m 247.9678,622.1782 c 0,0 -2.305,-0.671 -5.498,0.744 -4.831,2.143 -12.006,13.831 -17.464,19.548 -3.023,3.167 -4.475,2.503 -4.906,2.324 -1.274,-0.524 -5.142,-3.608 -5.142,-3.608 0,0 2.964,1.49 5.129,0 2.039,-1.403 3.655,-4.11 8.069,-9.388 3.1,-3.704 6.588,-7.952 9.565,-10.585 3.083,-2.724 5.584,-2.022 6.595,-1.683 3.095,2.238 3.652,2.648 3.652,2.648" /><path
       inkscape:connector-curvature="0"
       id="path4414"
       style="fill:none;stroke:#3b87cb;stroke-width:0.23999999;stroke-linecap:butt;stroke-linejoin:miter;stroke-miterlimit:10;stroke-dasharray:none;stroke-opacity:1"
       d="m 247.9678,622.1782 c 0,0 -2.305,-0.671 -5.498,0.744 -4.831,2.143 -12.006,13.831 -17.464,19.548 -3.023,3.167 -4.475,2.503 -4.906,2.324 -1.274,-0.524 -5.142,-3.608 -5.142,-3.608 0,0 2.964,1.49 5.129,0 2.039,-1.403 3.655,-4.11 8.069,-9.388 3.1,-3.704 6.588,-7.952 9.565,-10.585 3.083,-2.724 5.584,-2.022 6.595,-1.683 3.095,2.238 3.652,2.648 3.652,2.648 z" /><path
       inkscape:connector-curvature="0"
       id="path4418"
       style="fill:#f57716;fill-opacity:1;fill-rule:nonzero;stroke:#d71d29;stroke-width:0.23999999;stroke-linecap:butt;stroke-linejoin:miter;stroke-miterlimit:10;stroke-dasharray:none;stroke-opacity:1"
       d="m 235.3545,612.5581 c 0,0 -1.69,-0.874 -4.351,0.575 -4.118,2.244 -11.971,16.189 -17.142,21.917" /><path
       inkscape:connector-curvature="0"
       id="path4422"
       style="fill:#6eb4e1;fill-opacity:1;fill-rule:nonzero;stroke:none"
       d="m 200.1162,618.8335 c -0.291,8.318 -3.86,14.043 -5.897,17.221 -2.143,3.342 -5.531,8.625 -8.494,8.021 -2.433,-0.496 -6.212,-5.295 -8.728,-8.493 l 0,-0.152 c -2.517,3.198 -6.295,7.998 -8.729,8.494 -2.963,0.602 -6.35,-4.68 -8.492,-8.023 -2.038,-3.175 -5.606,-8.901 -5.898,-17.22 -0.179,-5.083 -0.419,-11.932 4.009,-15.098 5.427,-2.079 17.355,3.325 17.222,4.01 -0.071,0.368 0.367,10.511 1.888,10.466 1.52,-0.044 1.958,-9.946 1.888,-10.314 -0.133,-0.685 11.794,-6.091 17.22,-4.011 4.43,3.167 4.189,10.016 4.011,15.099" /><path
       inkscape:connector-curvature="0"
       id="path4426"
       style="fill:none;stroke:#f36730;stroke-width:0.23999999;stroke-linecap:butt;stroke-linejoin:miter;stroke-miterlimit:10;stroke-dasharray:none;stroke-opacity:1"
       d="m 200.1162,618.8335 c -0.291,8.318 -3.86,14.043 -5.897,17.221 -2.143,3.342 -5.531,8.625 -8.494,8.021 -2.433,-0.496 -6.212,-5.295 -8.728,-8.493 l 0,-0.152 c -2.517,3.198 -6.295,7.998 -8.729,8.494 -2.963,0.602 -6.35,-4.68 -8.492,-8.023 -2.038,-3.175 -5.606,-8.901 -5.898,-17.22 -0.179,-5.083 -0.419,-11.932 4.009,-15.098 5.427,-2.079 17.355,3.325 17.222,4.01 -0.071,0.368 0.367,10.511 1.888,10.466 1.52,-0.044 1.958,-9.946 1.888,-10.314 -0.133,-0.685 11.794,-6.091 17.22,-4.011 4.43,3.167 4.189,10.016 4.011,15.099 z" /><path
       inkscape:connector-curvature="0"
       id="path4430"
       style="fill:none;stroke:#f36730;stroke-width:0.47999999;stroke-linecap:round;stroke-linejoin:miter;stroke-miterlimit:10;stroke-dasharray:none;stroke-opacity:1"
       d="m 177.8242,619.2241 c -1.119,-0.854 -2.121,-1.148 -5.037,-1.551 -3.765,-0.518 -7.149,0.544 -9.398,1.624 -4.095,1.966 -6.723,5.451 -8.332,7.532" /><path
       inkscape:connector-curvature="0"
       id="path4434"
       style="fill:none;stroke:#f57716;stroke-width:0.47999999;stroke-linecap:round;stroke-linejoin:miter;stroke-miterlimit:10;stroke-dasharray:none;stroke-opacity:1"
       d="m 154.3799,624.9399 c 1.051,-2.448 2.818,-5.818 5.764,-9.252 3.225,-3.76 6.611,-6.138 9.01,-7.557" /><path
       inkscape:connector-curvature="0"
       id="path4438"
       style="fill:none;stroke:#f57716;stroke-width:0.47999999;stroke-linecap:round;stroke-linejoin:miter;stroke-miterlimit:10;stroke-dasharray:none;stroke-opacity:1"
       d="m 165.8115,603.9165 c 0.599,1.145 1.8,3.076 3.972,4.796 2.084,1.651 4.146,2.378 5.377,2.713" /><path
       inkscape:connector-curvature="0"
       id="path4442"
       style="fill:none;stroke:#f36730;stroke-width:0.47999999;stroke-linecap:round;stroke-linejoin:miter;stroke-miterlimit:10;stroke-dasharray:none;stroke-opacity:1"
       d="m 177.0254,621.0669 c 4.46,-5.6 7.746,-6.735 10.045,-6.539 1.122,0.097 2.852,0.583 3.4,-0.147 0.737,-0.979 -1.532,-3.033 -0.721,-4.309 0.573,-0.905 2.319,-0.834 2.575,-0.823 4.466,0.179 7.511,8.112 7.882,9.105" /><path
       inkscape:connector-curvature="0"
       id="path4446"
       style="fill:#d71d29;fill-opacity:1;fill-rule:nonzero;stroke:none"
       d="m 168.9668,636.603 c 0.32,-0.088 1.518,-0.156 1.249,-0.724 0.074,-0.547 -0.429,-0.776 -0.431,-0.777 -14.163,-9.437 11.304,-22 15.254,-17.329 1.519,1.797 -1.04,7.732 -2.862,12.312 -0.739,1.858 -0.315,2.548 -0.427,3.525 -0.397,3.468 -4.1,5.416 -7.095,4.182 -0.807,-0.332 -1.239,0.226 -1.96,0.531 -0.982,0.415 -1.966,0.138 -2.814,-0.642 -0.226,-0.208 -0.427,-0.445 -0.627,-0.681 -0.107,-0.127 -0.223,-0.256 -0.322,-0.386 0.011,-0.004 0.021,-0.008 0.035,-0.011" /><path
       inkscape:connector-curvature="0"
       id="path4450"
       style="fill:none;stroke:#f36730;stroke-width:0.23999999;stroke-linecap:butt;stroke-linejoin:miter;stroke-miterlimit:10;stroke-dasharray:none;stroke-opacity:1"
       d="m 168.9668,636.603 c 0.32,-0.088 1.518,-0.156 1.249,-0.724 0.074,-0.547 -0.429,-0.776 -0.431,-0.777 -14.163,-9.437 11.304,-22 15.254,-17.329 1.519,1.797 -1.04,7.732 -2.862,12.312 -0.739,1.858 -0.315,2.548 -0.427,3.525 -0.397,3.468 -4.1,5.416 -7.095,4.182 -0.807,-0.332 -1.239,0.226 -1.96,0.531 -0.982,0.415 -1.966,0.138 -2.814,-0.642 -0.226,-0.208 -0.427,-0.445 -0.627,-0.681 -0.107,-0.127 -0.223,-0.256 -0.322,-0.386 0.011,-0.004 0.021,-0.008 0.035,-0.011 z" /><path
       inkscape:connector-curvature="0"
       id="path4454"
       style="fill:none;stroke:#f36730;stroke-width:0.47999999;stroke-linecap:round;stroke-linejoin:miter;stroke-miterlimit:10;stroke-dasharray:none;stroke-opacity:1"
       d="m 190.2168,609.6011 c 0.786,-0.388 2.306,-1.273 3.503,-3.022 0.804,-1.178 1.169,-2.314 1.344,-3.072" /><text
       transform="matrix(1,0,0,-1,157.1943,691.5874)"
       style="font-variant:normal;font-weight:normal;font-stretch:normal;font-size:16px;font-family:Rockwell;-inkscape-font-specification:Rockwell;writing-mode:lr-tb;fill:#231f20;fill-opacity:1;fill-rule:nonzero;stroke:none"
       id="text4456"><tspan
         x="0 11.504 22.832001 31.167999 40.495998"
         y="0"
         sodipodi:role="line"
         id="tspan4458">NHLBI</tspan></text>
<text
       transform="matrix(1,0,0,-1,133.6108,666.3872)"
       style="font-variant:normal;font-weight:bold;font-stretch:normal;font-size:21px;font-family:Rockwell;-inkscape-font-specification:Rockwell-Bold;writing-mode:lr-tb;fill:#231f20;fill-opacity:1;fill-rule:nonzero;stroke:none"
       id="text4460"><tspan
         x="0 13.692 31.625999 45.632999 67.514999 79.547997"
         y="0"
         sodipodi:role="line"
         id="tspan4462">TOPMed</tspan></text>
<text
       transform="matrix(1,0,0,-1,142.6919,576.5879)"
       style="font-variant:normal;font-weight:normal;font-stretch:normal;font-size:11px;font-family:Rockwell;-inkscape-font-specification:Rockwell;writing-mode:lr-tb;fill:#231f20;fill-opacity:1;fill-rule:nonzero;stroke:none"
       id="text4464"><tspan
         x="0 8.2609997 14.564 20.867001 24.079 30.382 33.132 39.798 46.101002 52.403999 58.707001 68.222"
         y="0"
         sodipodi:role="line"
         id="tspan4466">whole genome</tspan><tspan
         x="7.744 12.782 19.084999 25.85 32.042999 38.346001 44.648998 50.380001 53.591999 59.895"
         y="13.2"
         sodipodi:role="line"
         id="tspan4468">sequencing</tspan></text>
<path
       inkscape:connector-curvature="0"
       id="path4480"
       style="fill:#ffffff;fill-opacity:1;fill-rule:nonzero;stroke:none"
       d="m 179.9478,552.4272 c 44.779,0 81.08,36.301 81.08,81.08 0,44.779 -36.301,81.08 -81.08,81.08 -44.779,0 -81.08,-36.301 -81.08,-81.08 0,-44.779 36.301,-81.08 81.08,-81.08" /><path
       inkscape:connector-curvature="0"
       id="path4484"
       style="fill:none;stroke:#bdbcbc;stroke-width:2;stroke-linecap:butt;stroke-linejoin:miter;stroke-miterlimit:4;stroke-dasharray:none;stroke-opacity:1"
       d="m 179.9478,552.4272 c 44.779,0 81.08,36.301 81.08,81.08 0,44.779 -36.301,81.08 -81.08,81.08 -44.779,0 -81.08,-36.301 -81.08,-81.08 0,-44.779 36.301,-81.08 81.08,-81.08 z" /><path
       inkscape:connector-curvature="0"
       id="path4488"
       style="fill:#6eb4e1;fill-opacity:1;fill-rule:nonzero;stroke:none"
       d="m 242.502,658.8208 c 0,0 -3.896,-2.095 -4.48,-2.969 -0.584,-0.875 -0.567,-3.397 -0.289,-4.768 0.28,-1.372 3.155,-9.717 6.391,-16.914 2.877,-8.008 3.734,-13.588 2.206,-14.48 1.94,1.4 2.997,1.877 3.819,2.693 0.269,0.266 0.722,1.875 0.121,5.083 -0.602,3.207 -8.579,23.242 -8.938,24.735 -0.358,1.493 -0.18,5 1.17,6.62" /><path
       inkscape:connector-curvature="0"
       id="path4492"
       style="fill:none;stroke:#3b87cb;stroke-width:0.23999999;stroke-linecap:butt;stroke-linejoin:miter;stroke-miterlimit:10;stroke-dasharray:none;stroke-opacity:1"
       d="m 242.502,658.8208 c 0,0 -3.896,-2.095 -4.48,-2.969 -0.584,-0.875 -0.567,-3.397 -0.289,-4.768 0.28,-1.372 3.155,-9.717 6.391,-16.914 2.877,-8.008 3.734,-13.588 2.206,-14.48 1.94,1.4 2.997,1.877 3.819,2.693 0.269,0.266 0.722,1.875 0.121,5.083 -0.602,3.207 -8.579,23.242 -8.938,24.735 -0.358,1.493 -0.18,5 1.17,6.62 z" /><path
       inkscape:connector-curvature="0"
       id="path4496"
       style="fill:#6eb4e1;fill-opacity:1;fill-rule:nonzero;stroke:#3b87cb;stroke-width:0.23999999;stroke-linecap:butt;stroke-linejoin:miter;stroke-miterlimit:10;stroke-dasharray:none;stroke-opacity:1"
       d="m 179.0967,588.8228 c 22.67,-0.851 41.082,17.337 40.413,37.427 0,0 -0.715,8.27 0.014,13.007 0.598,3.893 2.9,5.513 2.9,5.513 0,0 -4.743,-2.878 -5.653,-3.583 -1.977,-1.531 -1.994,-2.764 -1.974,-12.727 0.608,-20.368 -16.89,-34.453 -35.988,-34.453" /><path
       inkscape:connector-curvature="0"
       id="path4500"
       style="fill:#f57716;fill-opacity:1;fill-rule:nonzero;stroke:none"
       d="m 100.21,630.0308 c 0,0 1.979,-0.541 3.869,0.63 1.889,1.17 16.343,18.589 17.454,19.702 1.665,1.67 3.555,2.779 4.931,2.089 1.62,-0.99 5.057,-3.348 4.876,-3.258 -0.18,0.091 -3.418,0.9 -5.668,-0.269 -2.249,-1.17 -13.316,-16.016 -13.316,-16.016 0,0 -4.768,-4.84 -6.838,-5.379 -2.069,-0.54 -5.308,2.501 -5.308,2.501" /><path
       inkscape:connector-curvature="0"
       id="path4504"
       style="fill:none;stroke:#d71d29;stroke-width:0.23999999;stroke-linecap:butt;stroke-linejoin:miter;stroke-miterlimit:10;stroke-dasharray:none;stroke-opacity:1"
       d="m 100.21,630.0308 c 0,0 1.979,-0.541 3.869,0.63 1.889,1.17 16.343,18.589 17.454,19.702 1.665,1.67 3.555,2.779 4.931,2.089 1.62,-0.99 5.057,-3.348 4.876,-3.258 -0.18,0.091 -3.418,0.9 -5.668,-0.269 -2.249,-1.17 -13.316,-16.016 -13.316,-16.016 0,0 -4.768,-4.84 -6.838,-5.379 -2.069,-0.54 -5.308,2.501 -5.308,2.501 z" /><path
       inkscape:connector-curvature="0"
       id="path4508"
       style="fill:#6eb4e1;fill-opacity:1;fill-rule:nonzero;stroke:none"
       d="m 110.1172,622.1782 c 0,0 3.202,-0.199 5.498,0.744 2.849,1.17 13.086,15.546 15.211,17.345 2.127,1.8 4.94,5.492 6.645,4.79 1.274,-0.525 5.655,-3.871 5.655,-3.871 0,0 -3.06,1.62 -5.128,0 -2.069,-1.618 -11.013,-12.271 -13.736,-16.114 -2.667,-3.764 -7.26,-6.629 -10.493,-5.542 -3.095,2.238 -3.652,2.648 -3.652,2.648" /><path
       inkscape:connector-curvature="0"
       id="path4512"
       style="fill:none;stroke:#3b87cb;stroke-width:0.23999999;stroke-linecap:butt;stroke-linejoin:miter;stroke-miterlimit:10;stroke-dasharray:none;stroke-opacity:1"
       d="m 110.1172,622.1782 c 0,0 3.202,-0.199 5.498,0.744 2.849,1.17 13.086,15.546 15.211,17.345 2.127,1.8 4.94,5.492 6.645,4.79 1.274,-0.525 5.655,-3.871 5.655,-3.871 0,0 -3.06,1.62 -5.128,0 -2.069,-1.618 -11.013,-12.271 -13.736,-16.114 -2.667,-3.764 -7.26,-6.629 -10.493,-5.542 -3.095,2.238 -3.652,2.648 -3.652,2.648 z" /><path
       inkscape:connector-curvature="0"
       id="path4516"
       style="fill:#f57716;fill-opacity:1;fill-rule:nonzero;stroke:none"
       d="m 131.3398,649.1938 c 0.902,-0.732 0.772,-5.437 -0.781,-9.132 -1.181,-2.806 -10.717,-21.8 -8.208,-26.929 -3.339,2.88 -3.513,2.748 -4.057,3.312 -1.287,1.329 1.91,10.347 4.15,16.016 2.239,5.667 5.699,11.727 5.741,16.129 0.016,1.62 -1.434,3.573 -1.434,3.573 0,0 3.687,-2.236 4.589,-2.969" /><path
       inkscape:connector-curvature="0"
       id="path4520"
       style="fill:none;stroke:#d71d29;stroke-width:0.23999999;stroke-linecap:butt;stroke-linejoin:miter;stroke-miterlimit:10;stroke-dasharray:none;stroke-opacity:1"
       d="m 131.3398,649.1938 c 0.902,-0.732 0.772,-5.437 -0.781,-9.132 -1.181,-2.806 -10.717,-21.8 -8.208,-26.929 -3.339,2.88 -3.513,2.748 -4.057,3.312 -1.287,1.329 1.91,10.347 4.15,16.016 2.239,5.667 5.699,11.727 5.741,16.129 0.016,1.62 -1.434,3.573 -1.434,3.573 0,0 3.687,-2.236 4.589,-2.969 z" /><path
       inkscape:connector-curvature="0"
       id="path4524"
       style="fill:#6eb4e1;fill-opacity:1;fill-rule:nonzero;stroke:none"
       d="m 117.3945,658.8208 c 0,0 3.896,-2.095 4.48,-2.969 0.584,-0.875 0.567,-3.397 0.289,-4.768 -0.28,-1.372 -3.155,-9.717 -6.392,-16.914 -2.876,-8.008 -3.733,-13.588 -2.205,-14.48 -1.941,1.4 -2.998,1.877 -3.819,2.693 -0.27,0.266 -0.722,1.875 -0.121,5.083 0.601,3.207 8.578,23.242 8.938,24.735 0.358,1.493 0.18,5 -1.17,6.62" /><path
       inkscape:connector-curvature="0"
       id="path4528"
       style="fill:none;stroke:#3b87cb;stroke-width:0.23999999;stroke-linecap:butt;stroke-linejoin:miter;stroke-miterlimit:10;stroke-dasharray:none;stroke-opacity:1"
       d="m 117.3945,658.8208 c 0,0 3.896,-2.095 4.48,-2.969 0.584,-0.875 0.567,-3.397 0.289,-4.768 -0.28,-1.372 -3.155,-9.717 -6.392,-16.914 -2.876,-8.008 -3.733,-13.588 -2.205,-14.48 -1.941,1.4 -2.998,1.877 -3.819,2.693 -0.27,0.266 -0.722,1.875 -0.121,5.083 0.601,3.207 8.578,23.242 8.938,24.735 0.358,1.493 0.18,5 -1.17,6.62 z" /><path
       inkscape:connector-curvature="0"
       id="path4532"
       style="fill:#6eb4e1;fill-opacity:1;fill-rule:nonzero;stroke:#3b87cb;stroke-width:0.23999999;stroke-linecap:butt;stroke-linejoin:miter;stroke-miterlimit:10;stroke-dasharray:none;stroke-opacity:1"
       d="m 180.7998,588.8228 c -22.671,-0.851 -41.082,17.337 -40.413,37.427 0,0 0.066,9.077 -0.662,13.812 -0.599,3.895 -2.252,4.996 -2.252,4.996 0,0 4.742,-3.166 5.653,-3.871 1.998,-1.547 1.687,-13.303 1.687,-13.303 -0.61,-20.368 17.177,-33.877 36.275,-33.877" /><path
       inkscape:connector-curvature="0"
       id="path4536"
       style="fill:#f57716;fill-opacity:1;fill-rule:nonzero;stroke:none"
       d="m 259.686,630.0308 c 0,0 -2.132,-0.756 -3.869,0.63 -3.105,2.477 -16.339,19.026 -17.244,19.919 -1.679,1.654 -3.765,2.562 -5.14,1.872 -1.621,-0.99 -5.057,-3.348 -4.877,-3.258 0.18,0.091 3.419,0.9 5.669,-0.269 2.249,-1.17 7.184,-8.287 7.184,-8.287 0,0 10.9,-12.569 12.97,-13.108 2.068,-0.54 5.307,2.501 5.307,2.501" /><path
       inkscape:connector-curvature="0"
       id="path4540"
       style="fill:none;stroke:#d71d29;stroke-width:0.23999999;stroke-linecap:butt;stroke-linejoin:miter;stroke-miterlimit:10;stroke-dasharray:none;stroke-opacity:1"
       d="m 259.686,630.0308 c 0,0 -2.132,-0.756 -3.869,0.63 -3.105,2.477 -16.339,19.026 -17.244,19.919 -1.679,1.654 -3.765,2.562 -5.14,1.872 -1.621,-0.99 -5.057,-3.348 -4.877,-3.258 0.18,0.091 3.419,0.9 5.669,-0.269 2.249,-1.17 7.184,-8.287 7.184,-8.287 0,0 10.9,-12.569 12.97,-13.108 2.068,-0.54 5.307,2.501 5.307,2.501 z" /><path
       inkscape:connector-curvature="0"
       id="path4544"
       style="fill:#f57716;fill-opacity:1;fill-rule:nonzero;stroke:none"
       d="m 211.5342,644.0054 c 10.119,-6.604 19.67,-25.207 23.24,-27.219 2.141,-1.207 6.233,-0.936 6.233,-0.936 l -3.841,-3.292 c 0,0 -1.683,-0.863 -4.351,0.575 -3.334,1.798 -11.973,16.189 -17.142,21.917 -5.171,5.728 -13.448,10.022 -21.593,12.345 -8.146,2.321 -20.118,2.321 -28.264,0 -8.144,-2.323 -16.422,-6.653 -21.593,-12.381 -1.818,-2.014 -3.409,-4.238 -4.988,-6.441 -2.411,-3.364 -4.729,-6.797 -7.206,-10.114 -1.01,-1.353 -3.028,-3.947 -5.55,-5.326 -2.162,-1.182 -3.6,-0.513 -3.791,-0.348 -0.483,0.415 -3.947,3.382 -4.107,3.395 1.051,-0.085 2.324,-0.244 3.371,-0.127 3.751,0.419 5.616,3.785 7.549,6.574 2.357,3.405 4.748,6.788 7.32,10.034 2.677,3.378 5.542,6.693 8.891,9.427 0.844,0.689 1.723,1.339 2.65,1.916 5.576,3.473 11.805,9.225 30.158,9.97 18.109,0.734 29.721,-7.82 33.014,-9.969" /><path
       inkscape:connector-curvature="0"
       id="path4548"
       style="fill:none;stroke:#d71d29;stroke-width:0.23999999;stroke-linecap:butt;stroke-linejoin:miter;stroke-miterlimit:10;stroke-dasharray:none;stroke-opacity:1"
       d="m 211.5342,644.0054 c 10.119,-6.604 19.67,-25.207 23.24,-27.219 2.141,-1.207 6.233,-0.936 6.233,-0.936 l -3.841,-3.292 c 0,0 -1.683,-0.863 -4.351,0.575 -3.334,1.798 -11.973,16.189 -17.142,21.917 -5.171,5.728 -13.448,10.022 -21.593,12.345 -8.146,2.321 -20.118,2.321 -28.264,0 -8.144,-2.323 -16.422,-6.653 -21.593,-12.381 -1.818,-2.014 -3.409,-4.238 -4.988,-6.441 -2.411,-3.364 -4.729,-6.797 -7.206,-10.114 -1.01,-1.353 -3.028,-3.947 -5.55,-5.326 -2.162,-1.182 -3.6,-0.513 -3.791,-0.348 -0.483,0.415 -3.947,3.382 -4.107,3.395 1.051,-0.085 2.324,-0.244 3.371,-0.127 3.751,0.419 5.616,3.785 7.549,6.574 2.357,3.405 4.748,6.788 7.32,10.034 2.677,3.378 5.542,6.693 8.891,9.427 0.844,0.689 1.723,1.339 2.65,1.916 5.576,3.473 11.805,9.225 30.158,9.97 18.109,0.734 29.721,-7.82 33.014,-9.969 z" /><path
       inkscape:connector-curvature="0"
       id="path4552"
       style="fill:#f57716;fill-opacity:1;fill-rule:nonzero;stroke:none"
       d="m 228.5566,649.1938 c -0.903,-0.732 -0.772,-5.437 0.781,-9.132 1.181,-2.806 10.657,-22.018 8.148,-27.147 3.34,2.879 3.573,2.966 4.117,3.53 1.287,1.329 -1.91,10.347 -4.15,16.016 -2.239,5.667 -5.699,11.727 -5.742,16.129 -0.015,1.62 1.435,3.573 1.435,3.573 0,0 -3.687,-2.236 -4.589,-2.969" /><path
       inkscape:connector-curvature="0"
       id="path4556"
       style="fill:none;stroke:#d71d29;stroke-width:0.23999999;stroke-linecap:butt;stroke-linejoin:miter;stroke-miterlimit:10;stroke-dasharray:none;stroke-opacity:1"
       d="m 228.5566,649.1938 c -0.903,-0.732 -0.772,-5.437 0.781,-9.132 1.181,-2.806 10.657,-22.018 8.148,-27.147 3.34,2.879 3.573,2.966 4.117,3.53 1.287,1.329 -1.91,10.347 -4.15,16.016 -2.239,5.667 -5.699,11.727 -5.742,16.129 -0.015,1.62 1.435,3.573 1.435,3.573 0,0 -3.687,-2.236 -4.589,-2.969 z" /><path
       inkscape:connector-curvature="0"
       id="path4560"
       style="fill:#6eb4e1;fill-opacity:1;fill-rule:nonzero;stroke:none"
       d="m 249.7793,622.1782 c 0,0 -2.305,-0.671 -5.498,0.744 -4.831,2.143 -12.006,13.831 -17.464,19.548 -3.023,3.167 -4.475,2.503 -4.906,2.324 -1.274,-0.524 -5.142,-3.608 -5.142,-3.608 0,0 2.964,1.49 5.129,0 2.039,-1.403 3.655,-4.11 8.069,-9.388 3.1,-3.704 6.588,-7.952 9.565,-10.585 3.083,-2.724 5.584,-2.022 6.595,-1.683 3.095,2.238 3.652,2.648 3.652,2.648" /><path
       inkscape:connector-curvature="0"
       id="path4564"
       style="fill:none;stroke:#3b87cb;stroke-width:0.23999999;stroke-linecap:butt;stroke-linejoin:miter;stroke-miterlimit:10;stroke-dasharray:none;stroke-opacity:1"
       d="m 249.7793,622.1782 c 0,0 -2.305,-0.671 -5.498,0.744 -4.831,2.143 -12.006,13.831 -17.464,19.548 -3.023,3.167 -4.475,2.503 -4.906,2.324 -1.274,-0.524 -5.142,-3.608 -5.142,-3.608 0,0 2.964,1.49 5.129,0 2.039,-1.403 3.655,-4.11 8.069,-9.388 3.1,-3.704 6.588,-7.952 9.565,-10.585 3.083,-2.724 5.584,-2.022 6.595,-1.683 3.095,2.238 3.652,2.648 3.652,2.648 z" /><path
       inkscape:connector-curvature="0"
       id="path4568"
       style="fill:#f57716;fill-opacity:1;fill-rule:nonzero;stroke:#d71d29;stroke-width:0.23999999;stroke-linecap:butt;stroke-linejoin:miter;stroke-miterlimit:10;stroke-dasharray:none;stroke-opacity:1"
       d="m 237.166,612.5581 c 0,0 -1.69,-0.874 -4.351,0.575 -4.118,2.244 -11.971,16.189 -17.142,21.917" /><path
       inkscape:connector-curvature="0"
       id="path4572"
       style="fill:#6eb4e1;fill-opacity:1;fill-rule:nonzero;stroke:none"
       d="m 201.9277,618.8335 c -0.291,8.318 -3.86,14.043 -5.897,17.221 -2.143,3.342 -5.531,8.625 -8.494,8.021 -2.433,-0.496 -6.212,-5.295 -8.728,-8.493 l 0,-0.152 c -2.517,3.198 -6.295,7.998 -8.729,8.494 -2.963,0.602 -6.35,-4.68 -8.492,-8.023 -2.038,-3.175 -5.606,-8.901 -5.898,-17.22 -0.179,-5.083 -0.419,-11.932 4.009,-15.098 5.427,-2.079 17.355,3.325 17.222,4.01 -0.071,0.368 0.367,10.511 1.888,10.466 1.52,-0.044 1.958,-9.946 1.888,-10.314 -0.133,-0.685 11.794,-6.091 17.22,-4.011 4.43,3.167 4.189,10.016 4.011,15.099" /><path
       inkscape:connector-curvature="0"
       id="path4576"
       style="fill:none;stroke:#f36730;stroke-width:0.23999999;stroke-linecap:butt;stroke-linejoin:miter;stroke-miterlimit:10;stroke-dasharray:none;stroke-opacity:1"
       d="m 201.9277,618.8335 c -0.291,8.318 -3.86,14.043 -5.897,17.221 -2.143,3.342 -5.531,8.625 -8.494,8.021 -2.433,-0.496 -6.212,-5.295 -8.728,-8.493 l 0,-0.152 c -2.517,3.198 -6.295,7.998 -8.729,8.494 -2.963,0.602 -6.35,-4.68 -8.492,-8.023 -2.038,-3.175 -5.606,-8.901 -5.898,-17.22 -0.179,-5.083 -0.419,-11.932 4.009,-15.098 5.427,-2.079 17.355,3.325 17.222,4.01 -0.071,0.368 0.367,10.511 1.888,10.466 1.52,-0.044 1.958,-9.946 1.888,-10.314 -0.133,-0.685 11.794,-6.091 17.22,-4.011 4.43,3.167 4.189,10.016 4.011,15.099 z" /><path
       inkscape:connector-curvature="0"
       id="path4580"
       style="fill:none;stroke:#f36730;stroke-width:0.47999999;stroke-linecap:round;stroke-linejoin:miter;stroke-miterlimit:10;stroke-dasharray:none;stroke-opacity:1"
       d="m 179.6357,619.2241 c -1.119,-0.854 -2.121,-1.148 -5.037,-1.551 -3.765,-0.518 -7.149,0.544 -9.398,1.624 -4.095,1.966 -6.723,5.451 -8.332,7.532" /><path
       inkscape:connector-curvature="0"
       id="path4584"
       style="fill:none;stroke:#f57716;stroke-width:0.47999999;stroke-linecap:round;stroke-linejoin:miter;stroke-miterlimit:10;stroke-dasharray:none;stroke-opacity:1"
       d="m 156.1914,624.9399 c 1.051,-2.448 2.818,-5.818 5.764,-9.252 3.225,-3.76 6.611,-6.138 9.01,-7.557" /><path
       inkscape:connector-curvature="0"
       id="path4588"
       style="fill:none;stroke:#f57716;stroke-width:0.47999999;stroke-linecap:round;stroke-linejoin:miter;stroke-miterlimit:10;stroke-dasharray:none;stroke-opacity:1"
       d="m 167.623,603.9165 c 0.599,1.145 1.8,3.076 3.972,4.796 2.084,1.651 4.146,2.378 5.377,2.713" /><path
       inkscape:connector-curvature="0"
       id="path4592"
       style="fill:none;stroke:#f36730;stroke-width:0.47999999;stroke-linecap:round;stroke-linejoin:miter;stroke-miterlimit:10;stroke-dasharray:none;stroke-opacity:1"
       d="m 178.8369,621.0669 c 4.46,-5.6 7.746,-6.735 10.045,-6.539 1.122,0.097 2.852,0.583 3.4,-0.147 0.737,-0.979 -1.532,-3.033 -0.721,-4.309 0.573,-0.905 2.319,-0.834 2.575,-0.823 4.466,0.179 7.511,8.112 7.882,9.105" /><path
       inkscape:connector-curvature="0"
       id="path4596"
       style="fill:#d71d29;fill-opacity:1;fill-rule:nonzero;stroke:none"
       d="m 170.7783,636.603 c 0.32,-0.088 1.518,-0.156 1.249,-0.724 0.074,-0.547 -0.429,-0.776 -0.431,-0.777 -14.163,-9.437 11.304,-22 15.254,-17.329 1.519,1.797 -1.04,7.732 -2.862,12.312 -0.739,1.858 -0.315,2.548 -0.427,3.525 -0.397,3.468 -4.1,5.416 -7.095,4.182 -0.807,-0.332 -1.239,0.226 -1.96,0.531 -0.982,0.415 -1.966,0.138 -2.814,-0.642 -0.226,-0.208 -0.427,-0.445 -0.627,-0.681 -0.107,-0.127 -0.223,-0.256 -0.322,-0.386 0.011,-0.004 0.021,-0.008 0.035,-0.011" /><path
       inkscape:connector-curvature="0"
       id="path4600"
       style="fill:none;stroke:#f36730;stroke-width:0.23999999;stroke-linecap:butt;stroke-linejoin:miter;stroke-miterlimit:10;stroke-dasharray:none;stroke-opacity:1"
       d="m 170.7783,636.603 c 0.32,-0.088 1.518,-0.156 1.249,-0.724 0.074,-0.547 -0.429,-0.776 -0.431,-0.777 -14.163,-9.437 11.304,-22 15.254,-17.329 1.519,1.797 -1.04,7.732 -2.862,12.312 -0.739,1.858 -0.315,2.548 -0.427,3.525 -0.397,3.468 -4.1,5.416 -7.095,4.182 -0.807,-0.332 -1.239,0.226 -1.96,0.531 -0.982,0.415 -1.966,0.138 -2.814,-0.642 -0.226,-0.208 -0.427,-0.445 -0.627,-0.681 -0.107,-0.127 -0.223,-0.256 -0.322,-0.386 0.011,-0.004 0.021,-0.008 0.035,-0.011 z" /><path
       inkscape:connector-curvature="0"
       id="path4604"
       style="fill:none;stroke:#f36730;stroke-width:0.47999999;stroke-linecap:round;stroke-linejoin:miter;stroke-miterlimit:10;stroke-dasharray:none;stroke-opacity:1"
       d="m 192.0283,609.6011 c 0.786,-0.388 2.306,-1.273 3.503,-3.022 0.804,-1.178 1.169,-2.314 1.344,-3.072" /><text
       transform="matrix(1,0,0,-1,157.1943,691.5874)"
       style="font-variant:normal;font-weight:normal;font-stretch:normal;font-size:16px;font-family:Rockwell;-inkscape-font-specification:Rockwell;writing-mode:lr-tb;fill:#231f20;fill-opacity:1;fill-rule:nonzero;stroke:none"
       id="text4606"><tspan
         x="0 11.504 22.832001 31.167999 40.495998"
         y="0"
         sodipodi:role="line"
         id="tspan4608">NHLBI</tspan></text>
<text
       transform="matrix(1,0,0,-1,133.6108,666.3872)"
       style="font-variant:normal;font-weight:bold;font-stretch:normal;font-size:21px;font-family:Rockwell;-inkscape-font-specification:Rockwell-Bold;writing-mode:lr-tb;fill:#231f20;fill-opacity:1;fill-rule:nonzero;stroke:none"
       id="text4610"><tspan
         x="0 13.692 31.625999 45.632999 67.514999 79.547997"
         y="0"
         sodipodi:role="line"
         id="tspan4612">TOPMed</tspan></text>
<text
       transform="matrix(1,0,0,-1,142.6919,576.5879)"
       style="font-variant:normal;font-weight:normal;font-stretch:normal;font-size:11px;font-family:Rockwell;-inkscape-font-specification:Rockwell;writing-mode:lr-tb;fill:#231f20;fill-opacity:1;fill-rule:nonzero;stroke:none"
       id="text4614"><tspan
         x="0 8.2609997 14.564 20.867001 24.079 30.382 33.132 39.798 46.101002 52.403999 58.707001 68.222"
         y="0"
         sodipodi:role="line"
         id="tspan4616">whole genome</tspan><tspan
         x="7.744 12.782 19.084999 25.85 32.042999 38.346001 44.648998 50.380001 53.591999 59.895"
         y="13.2"
         sodipodi:role="line"
         id="tspan4618">sequencing</tspan></text>
</g></svg>