<?xml version="1.0" encoding="UTF-8" standalone="no"?>
<!-- Created with Inkscape (http://www.inkscape.org/) -->

<svg
   xmlns:dc="http://purl.org/dc/elements/1.1/"
   xmlns:cc="http://creativecommons.org/ns#"
   xmlns:rdf="http://www.w3.org/1999/02/22-rdf-syntax-ns#"
   xmlns:svg="http://www.w3.org/2000/svg"
   xmlns="http://www.w3.org/2000/svg"
   xmlns:sodipodi="http://sodipodi.sourceforge.net/DTD/sodipodi-0.dtd"
   xmlns:inkscape="http://www.inkscape.org/namespaces/inkscape"
   id="svg4136"
   version="1.1"
   inkscape:version="0.91 r13725"
   xml:space="preserve"
   width="173.0575"
   height="162.565"
   viewBox="0 0 173.0575 162.565"
   sodipodi:docname="topmed_logo_all.pdf"><metadata
     id="metadata4142"><rdf:RDF><cc:Work
         rdf:about=""><dc:format>image/svg+xml</dc:format><dc:type
           rdf:resource="http://purl.org/dc/dcmitype/StillImage" /><dc:title></dc:title></cc:Work></rdf:RDF></metadata><defs
     id="defs4140"><clipPath
       clipPathUnits="userSpaceOnUse"
       id="clipPath4150"><path
         d="M 0,756 576,756 576,0 0,0 0,756 Z"
         id="path4152"
         inkscape:connector-curvature="0" /></clipPath><clipPath
       clipPathUnits="userSpaceOnUse"
       id="clipPath4166"><path
         d="m 97.2656,658.822 165.3644,0 0,-72.892 -165.3644,0 0,72.892 z"
         id="path4168"
         inkscape:connector-curvature="0" /></clipPath><clipPath
       clipPathUnits="userSpaceOnUse"
       id="clipPath4312"><path
         d="M 0,756 576,756 576,0 0,0 0,756 Z"
         id="path4314"
         inkscape:connector-curvature="0" /></clipPath><clipPath
       clipPathUnits="userSpaceOnUse"
       id="clipPath4328"><path
         d="m 97.2656,658.822 165.3644,0 0,-72.892 -165.3644,0 0,72.892 z"
         id="path4330"
         inkscape:connector-curvature="0" /></clipPath><clipPath
       clipPathUnits="userSpaceOnUse"
       id="clipPath4474"><path
         d="M 0,756 576,756 576,0 0,0 0,756 Z"
         id="path4476"
         inkscape:connector-curvature="0" /></clipPath><clipPath
       clipPathUnits="userSpaceOnUse"
       id="clipPath4624"><path
         d="M 0,756 576,756 576,0 0,0 0,756 Z"
         id="path4626"
         inkscape:connector-curvature="0" /></clipPath><clipPath
       clipPathUnits="userSpaceOnUse"
       id="clipPath4770"><path
         d="M 0,756 576,756 576,0 0,0 0,756 Z"
         id="path4772"
         inkscape:connector-curvature="0" /></clipPath><clipPath
       clipPathUnits="userSpaceOnUse"
       id="clipPath4794"><path
         d="M 0,756 576,756 576,0 0,0 0,756 Z"
         id="path4796"
         inkscape:connector-curvature="0" /></clipPath><clipPath
       clipPathUnits="userSpaceOnUse"
       id="clipPath4934"><path
         d="M 0,756 576,756 576,0 0,0 0,756 Z"
         id="path4936"
         inkscape:connector-curvature="0" /></clipPath><clipPath
       clipPathUnits="userSpaceOnUse"
       id="clipPath5084"><path
         d="M 0,756 576,756 576,0 0,0 0,756 Z"
         id="path5086"
         inkscape:connector-curvature="0" /></clipPath><clipPath
       clipPathUnits="userSpaceOnUse"
       id="clipPath5230"><path
         d="M 0,756 576,756 576,0 0,0 0,756 Z"
         id="path5232"
         inkscape:connector-curvature="0" /></clipPath><clipPath
       clipPathUnits="userSpaceOnUse"
       id="clipPath5374"><path
         d="M 0,756 576,756 576,0 0,0 0,756 Z"
         id="path5376"
         inkscape:connector-curvature="0" /></clipPath><clipPath
       clipPathUnits="userSpaceOnUse"
       id="clipPath5514"><path
         d="M 0,756 576,756 576,0 0,0 0,756 Z"
         id="path5516"
         inkscape:connector-curvature="0" /></clipPath></defs><sodipodi:namedview
     pagecolor="#ffffff"
     bordercolor="#666666"
     borderopacity="1"
     objecttolerance="10"
     gridtolerance="10"
     guidetolerance="10"
     inkscape:pageopacity="0"
     inkscape:pageshadow="2"
     inkscape:window-width="1857"
     inkscape:window-height="1403"
     id="namedview4138"
     showgrid="false"
     inkscape:zoom="1.3005291"
     inkscape:cx="194.68459"
     inkscape:cy="-7.9611751"
     inkscape:window-x="65"
     inkscape:window-y="0"
     inkscape:window-maximized="0"
     inkscape:current-layer="g4144"
     fit-margin-top="0"
     fit-margin-left="0"
     fit-margin-right="0"
     fit-margin-bottom="0" /><g
     id="g4144"
     inkscape:groupmode="layer"
     inkscape:label="topmed_logo_all"
     transform="matrix(1.25,0,0,-1.25,-138.406,649.75775)"><path
       inkscape:connector-curvature="0"
       id="path5210"
       style="fill:#3f3d3e;fill-opacity:1;fill-rule:nonzero;stroke:none"
       d="m 120.9268,519.8062 c 0,0 -10.202,0 -10.202,-10.201 l 0,-109.65 c 0,0 0,-10.201 10.202,-10.201 l 118.043,0 c 0,0 10.201,0 10.201,10.201 l 0,109.65 c 0,0 0,10.201 -10.201,10.201 l -118.043,0 z" /><text
       transform="matrix(1,0,0,-1,157.1943,504.6226)"
       style="font-variant:normal;font-weight:normal;font-stretch:normal;font-size:16px;font-family:Rockwell;-inkscape-font-specification:Rockwell;writing-mode:lr-tb;fill:#ffffff;fill-opacity:1;fill-rule:nonzero;stroke:none"
       id="text5212"><tspan
         x="0 11.504 22.832001 31.167999 40.495998"
         y="0"
         sodipodi:role="line"
         id="tspan5214">NHLBI</tspan></text>
<text
       transform="matrix(1,0,0,-1,133.6108,479.4224)"
       style="font-variant:normal;font-weight:bold;font-stretch:normal;font-size:21px;font-family:Rockwell;-inkscape-font-specification:Rockwell-Bold;writing-mode:lr-tb;fill:#ffffff;fill-opacity:1;fill-rule:nonzero;stroke:none"
       id="text5216"><tspan
         x="0 13.692 31.625999 45.632999 67.514999 79.547997"
         y="0"
         sodipodi:role="line"
         id="tspan5218">TOPMed</tspan></text>
<text
       transform="matrix(1,0,0,-1,142.6919,408.623)"
       style="font-variant:normal;font-weight:normal;font-stretch:normal;font-size:11px;font-family:Rockwell;-inkscape-font-specification:Rockwell;writing-mode:lr-tb;fill:#ffffff;fill-opacity:1;fill-rule:nonzero;stroke:none"
       id="text5220"><tspan
         x="0 8.2609997 14.564 20.867001 24.079 30.382 33.132 39.798 46.101002 52.403999 58.707001 68.222"
         y="0"
         sodipodi:role="line"
         id="tspan5222">whole genome</tspan><tspan
         x="7.744 12.782 19.084999 25.85 32.042999 38.346001 44.648998 50.380001 53.591999 59.895"
         y="13.2"
         sodipodi:role="line"
         id="tspan5224">sequencing</tspan></text>
<path
       inkscape:connector-curvature="0"
       id="path5236"
       style="fill:#6eb4e1;fill-opacity:1;fill-rule:nonzero;stroke:none"
       d="m 232.0127,478.1084 c 0,0 -3.242,-1.743 -3.729,-2.47 -0.486,-0.729 -0.47,-2.828 -0.24,-3.969 0.233,-1.142 2.625,-8.088 5.321,-14.079 2.394,-6.665 3.107,-11.309 1.836,-12.052 1.613,1.166 2.494,1.563 3.177,2.242 0.225,0.223 0.602,1.56 0.1,4.23 -0.5,2.669 -7.139,19.346 -7.438,20.588 -0.298,1.242 -0.15,4.162 0.973,5.51" /><path
       inkscape:connector-curvature="0"
       id="path5240"
       style="fill:none;stroke:#3b87cb;stroke-width:0.23999999;stroke-linecap:butt;stroke-linejoin:miter;stroke-miterlimit:10;stroke-dasharray:none;stroke-opacity:1"
       d="m 232.0127,478.1084 c 0,0 -3.242,-1.743 -3.729,-2.47 -0.486,-0.729 -0.47,-2.828 -0.24,-3.969 0.233,-1.142 2.625,-8.088 5.321,-14.079 2.394,-6.665 3.107,-11.309 1.836,-12.052 1.613,1.166 2.494,1.563 3.177,2.242 0.225,0.223 0.602,1.56 0.1,4.23 -0.5,2.669 -7.139,19.346 -7.438,20.588 -0.298,1.242 -0.15,4.162 0.973,5.51 z" /><path
       inkscape:connector-curvature="0"
       id="path5244"
       style="fill:#6eb4e1;fill-opacity:1;fill-rule:nonzero;stroke:#3b87cb;stroke-width:0.23999999;stroke-linecap:butt;stroke-linejoin:miter;stroke-miterlimit:10;stroke-dasharray:none;stroke-opacity:1"
       d="m 179.2393,419.8486 c 18.869,-0.708 34.193,14.429 33.637,31.15 0,0 -0.594,6.883 0.011,10.826 0.498,3.241 2.415,4.588 2.415,4.588 0,0 -3.948,-2.394 -4.706,-2.981 -1.644,-1.275 -1.66,-2.3 -1.642,-10.594 0.506,-16.952 -14.059,-28.676 -29.955,-28.676" /><path
       inkscape:connector-curvature="0"
       id="path5248"
       style="fill:#f57716;fill-opacity:1;fill-rule:nonzero;stroke:none"
       d="m 113.5796,454.1465 c 0,0 1.648,-0.45 3.22,0.523 1.572,0.975 13.604,15.473 14.528,16.401 1.386,1.389 2.959,2.311 4.105,1.736 1.348,-0.824 4.207,-2.785 4.057,-2.711 -0.149,0.076 -2.844,0.75 -4.717,-0.223 -1.871,-0.975 -11.082,-13.331 -11.082,-13.331 0,0 -3.969,-4.028 -5.694,-4.477 -1.72,-0.449 -4.417,2.082 -4.417,2.082" /><path
       inkscape:connector-curvature="0"
       id="path5252"
       style="fill:none;stroke:#d71d29;stroke-width:0.23999999;stroke-linecap:butt;stroke-linejoin:miter;stroke-miterlimit:10;stroke-dasharray:none;stroke-opacity:1"
       d="m 113.5796,454.1465 c 0,0 1.648,-0.45 3.22,0.523 1.572,0.975 13.604,15.473 14.528,16.401 1.386,1.389 2.959,2.311 4.105,1.736 1.348,-0.824 4.207,-2.785 4.057,-2.711 -0.149,0.076 -2.844,0.75 -4.717,-0.223 -1.871,-0.975 -11.082,-13.331 -11.082,-13.331 0,0 -3.969,-4.028 -5.694,-4.477 -1.72,-0.449 -4.417,2.082 -4.417,2.082 z" /><path
       inkscape:connector-curvature="0"
       id="path5256"
       style="fill:#6eb4e1;fill-opacity:1;fill-rule:nonzero;stroke:none"
       d="m 121.8252,447.6113 c 0,0 2.666,-0.166 4.576,0.617 2.371,0.975 10.893,12.941 12.662,14.438 1.77,1.498 4.112,4.571 5.532,3.987 1.058,-0.437 4.705,-3.222 4.705,-3.222 0,0 -2.547,1.348 -4.268,0 -1.723,-1.348 -9.166,-10.215 -11.434,-13.414 -2.218,-3.132 -6.043,-5.516 -8.732,-4.611 -2.576,1.861 -3.041,2.205 -3.041,2.205" /><path
       inkscape:connector-curvature="0"
       id="path5260"
       style="fill:none;stroke:#3b87cb;stroke-width:0.23999999;stroke-linecap:butt;stroke-linejoin:miter;stroke-miterlimit:10;stroke-dasharray:none;stroke-opacity:1"
       d="m 121.8252,447.6113 c 0,0 2.666,-0.166 4.576,0.617 2.371,0.975 10.893,12.941 12.662,14.438 1.77,1.498 4.112,4.571 5.532,3.987 1.058,-0.437 4.705,-3.222 4.705,-3.222 0,0 -2.547,1.348 -4.268,0 -1.723,-1.348 -9.166,-10.215 -11.434,-13.414 -2.218,-3.132 -6.043,-5.516 -8.732,-4.611 -2.576,1.861 -3.041,2.205 -3.041,2.205 z" /><path
       inkscape:connector-curvature="0"
       id="path5264"
       style="fill:#f57716;fill-opacity:1;fill-rule:nonzero;stroke:none"
       d="m 139.4893,470.0957 c 0.752,-0.61 0.645,-4.525 -0.648,-7.601 -0.985,-2.336 -8.92,-18.145 -6.832,-22.412 -2.78,2.396 -2.924,2.287 -3.377,2.755 -1.073,1.108 1.589,8.612 3.453,13.33 1.863,4.718 4.744,9.762 4.779,13.426 0.014,1.347 -1.193,2.974 -1.193,2.974 0,0 3.068,-1.862 3.818,-2.472" /><path
       inkscape:connector-curvature="0"
       id="path5268"
       style="fill:none;stroke:#d71d29;stroke-width:0.23999999;stroke-linecap:butt;stroke-linejoin:miter;stroke-miterlimit:10;stroke-dasharray:none;stroke-opacity:1"
       d="m 139.4893,470.0957 c 0.752,-0.61 0.645,-4.525 -0.648,-7.601 -0.985,-2.336 -8.92,-18.145 -6.832,-22.412 -2.78,2.396 -2.924,2.287 -3.377,2.755 -1.073,1.108 1.589,8.612 3.453,13.33 1.863,4.718 4.744,9.762 4.779,13.426 0.014,1.347 -1.193,2.974 -1.193,2.974 0,0 3.068,-1.862 3.818,-2.472 z" /><path
       inkscape:connector-curvature="0"
       id="path5272"
       style="fill:#6eb4e1;fill-opacity:1;fill-rule:nonzero;stroke:none"
       d="m 127.8838,478.1084 c 0,0 3.242,-1.743 3.729,-2.47 0.486,-0.729 0.47,-2.828 0.24,-3.969 -0.233,-1.142 -2.625,-8.088 -5.321,-14.079 -2.394,-6.665 -3.107,-11.309 -1.836,-12.052 -1.615,1.166 -2.494,1.563 -3.177,2.242 -0.225,0.223 -0.602,1.56 -0.1,4.23 0.498,2.669 7.139,19.346 7.438,20.588 0.298,1.242 0.15,4.162 -0.973,5.51" /><path
       inkscape:connector-curvature="0"
       id="path5276"
       style="fill:none;stroke:#3b87cb;stroke-width:0.23999999;stroke-linecap:butt;stroke-linejoin:miter;stroke-miterlimit:10;stroke-dasharray:none;stroke-opacity:1"
       d="m 127.8838,478.1084 c 0,0 3.242,-1.743 3.729,-2.47 0.486,-0.729 0.47,-2.828 0.24,-3.969 -0.233,-1.142 -2.625,-8.088 -5.321,-14.079 -2.394,-6.665 -3.107,-11.309 -1.836,-12.052 -1.615,1.166 -2.494,1.563 -3.177,2.242 -0.225,0.223 -0.602,1.56 -0.1,4.23 0.498,2.669 7.139,19.346 7.438,20.588 0.298,1.242 0.15,4.162 -0.973,5.51 z" /><path
       inkscape:connector-curvature="0"
       id="path5280"
       style="fill:#6eb4e1;fill-opacity:1;fill-rule:nonzero;stroke:#3b87cb;stroke-width:0.23999999;stroke-linecap:butt;stroke-linejoin:miter;stroke-miterlimit:10;stroke-dasharray:none;stroke-opacity:1"
       d="m 180.6572,419.8486 c -18.869,-0.708 -34.193,14.429 -33.637,31.15 0,0 0.055,7.556 -0.551,11.496 -0.498,3.242 -1.875,4.159 -1.875,4.159 0,0 3.948,-2.635 4.706,-3.222 1.664,-1.287 1.404,-11.073 1.404,-11.073 -0.508,-16.952 14.297,-28.197 30.193,-28.197" /><path
       inkscape:connector-curvature="0"
       id="path5284"
       style="fill:#f57716;fill-opacity:1;fill-rule:nonzero;stroke:none"
       d="m 246.3174,454.1465 c 0,0 -1.775,-0.63 -3.221,0.523 -2.586,2.063 -13.599,15.837 -14.353,16.58 -1.397,1.376 -3.135,2.132 -4.28,1.557 -1.347,-0.824 -4.207,-2.785 -4.058,-2.711 0.15,0.076 2.846,0.75 4.719,-0.223 1.871,-0.975 5.98,-6.898 5.98,-6.898 0,0 9.07,-10.461 10.795,-10.91 1.721,-0.449 4.418,2.082 4.418,2.082" /><path
       inkscape:connector-curvature="0"
       id="path5288"
       style="fill:none;stroke:#d71d29;stroke-width:0.23999999;stroke-linecap:butt;stroke-linejoin:miter;stroke-miterlimit:10;stroke-dasharray:none;stroke-opacity:1"
       d="m 246.3174,454.1465 c 0,0 -1.775,-0.63 -3.221,0.523 -2.586,2.063 -13.599,15.837 -14.353,16.58 -1.397,1.376 -3.135,2.132 -4.28,1.557 -1.347,-0.824 -4.207,-2.785 -4.058,-2.711 0.15,0.076 2.846,0.75 4.719,-0.223 1.871,-0.975 5.98,-6.898 5.98,-6.898 0,0 9.07,-10.461 10.795,-10.91 1.721,-0.449 4.418,2.082 4.418,2.082 z" /><path
       inkscape:connector-curvature="0"
       id="path5292"
       style="fill:#f57716;fill-opacity:1;fill-rule:nonzero;stroke:none"
       d="m 206.2373,465.7783 c 8.424,-5.496 16.373,-20.98 19.344,-22.656 1.781,-1.004 5.187,-0.779 5.187,-0.779 l -3.197,-2.74 c 0,0 -1.4,-0.719 -3.621,0.479 -2.774,1.496 -9.965,13.474 -14.268,18.242 -4.304,4.767 -11.191,8.342 -17.972,10.273 -6.78,1.934 -16.744,1.934 -23.524,0 -6.779,-1.931 -13.67,-5.536 -17.972,-10.303 -1.514,-1.675 -2.838,-3.527 -4.153,-5.361 -2.006,-2.801 -3.935,-5.657 -5.998,-8.419 -0.84,-1.125 -2.519,-3.285 -4.619,-4.432 -1.799,-0.984 -2.996,-0.427 -3.154,-0.29 -0.403,0.345 -3.285,2.815 -3.42,2.826 0.875,-0.072 1.935,-0.204 2.806,-0.106 3.122,0.349 4.674,3.15 6.284,5.472 1.961,2.833 3.951,5.649 6.091,8.352 2.229,2.81 4.614,5.571 7.401,7.845 0.703,0.575 1.435,1.115 2.207,1.596 4.64,2.89 9.824,7.678 25.101,8.298 15.071,0.61 24.737,-6.508 27.477,-8.297" /><path
       inkscape:connector-curvature="0"
       id="path5296"
       style="fill:none;stroke:#d71d29;stroke-width:0.23999999;stroke-linecap:butt;stroke-linejoin:miter;stroke-miterlimit:10;stroke-dasharray:none;stroke-opacity:1"
       d="m 206.2373,465.7783 c 8.424,-5.496 16.373,-20.98 19.344,-22.656 1.781,-1.004 5.187,-0.779 5.187,-0.779 l -3.197,-2.74 c 0,0 -1.4,-0.719 -3.621,0.479 -2.774,1.496 -9.965,13.474 -14.268,18.242 -4.304,4.767 -11.191,8.342 -17.972,10.273 -6.78,1.934 -16.744,1.934 -23.524,0 -6.779,-1.931 -13.67,-5.536 -17.972,-10.303 -1.514,-1.675 -2.838,-3.527 -4.153,-5.361 -2.006,-2.801 -3.935,-5.657 -5.998,-8.419 -0.84,-1.125 -2.519,-3.285 -4.619,-4.432 -1.799,-0.984 -2.996,-0.427 -3.154,-0.29 -0.403,0.345 -3.285,2.815 -3.42,2.826 0.875,-0.072 1.935,-0.204 2.806,-0.106 3.122,0.349 4.674,3.15 6.284,5.472 1.961,2.833 3.951,5.649 6.091,8.352 2.229,2.81 4.614,5.571 7.401,7.845 0.703,0.575 1.435,1.115 2.207,1.596 4.64,2.89 9.824,7.678 25.101,8.298 15.071,0.61 24.737,-6.508 27.477,-8.297 z" /><path
       inkscape:connector-curvature="0"
       id="path5300"
       style="fill:#f57716;fill-opacity:1;fill-rule:nonzero;stroke:none"
       d="m 220.4072,470.0957 c -0.752,-0.61 -0.645,-4.525 0.648,-7.601 0.985,-2.336 8.872,-18.326 6.782,-22.595 2.781,2.396 2.974,2.47 3.427,2.938 1.073,1.108 -1.589,8.612 -3.453,13.33 -1.865,4.718 -4.744,9.762 -4.779,13.426 -0.014,1.347 1.193,2.974 1.193,2.974 0,0 -3.068,-1.862 -3.818,-2.472" /><path
       inkscape:connector-curvature="0"
       id="path5304"
       style="fill:none;stroke:#d71d29;stroke-width:0.23999999;stroke-linecap:butt;stroke-linejoin:miter;stroke-miterlimit:10;stroke-dasharray:none;stroke-opacity:1"
       d="m 220.4072,470.0957 c -0.752,-0.61 -0.645,-4.525 0.648,-7.601 0.985,-2.336 8.872,-18.326 6.782,-22.595 2.781,2.396 2.974,2.47 3.427,2.938 1.073,1.108 -1.589,8.612 -3.453,13.33 -1.865,4.718 -4.744,9.762 -4.779,13.426 -0.014,1.347 1.193,2.974 1.193,2.974 0,0 -3.068,-1.862 -3.818,-2.472 z" /><path
       inkscape:connector-curvature="0"
       id="path5308"
       style="fill:#6eb4e1;fill-opacity:1;fill-rule:nonzero;stroke:none"
       d="m 238.0713,447.6113 c 0,0 -1.92,-0.56 -4.576,0.617 -4.022,1.783 -9.994,11.513 -14.537,16.272 -2.516,2.635 -3.725,2.083 -4.082,1.934 -1.061,-0.436 -4.282,-3.003 -4.282,-3.003 0,0 2.467,1.241 4.27,0 1.697,-1.168 3.043,-3.421 6.717,-7.814 2.58,-3.083 5.482,-6.619 7.961,-8.81 2.566,-2.268 4.646,-1.683 5.488,-1.401 2.576,1.861 3.041,2.205 3.041,2.205" /><path
       inkscape:connector-curvature="0"
       id="path5312"
       style="fill:none;stroke:#3b87cb;stroke-width:0.23999999;stroke-linecap:butt;stroke-linejoin:miter;stroke-miterlimit:10;stroke-dasharray:none;stroke-opacity:1"
       d="m 238.0713,447.6113 c 0,0 -1.92,-0.56 -4.576,0.617 -4.022,1.783 -9.994,11.513 -14.537,16.272 -2.516,2.635 -3.725,2.083 -4.082,1.934 -1.061,-0.436 -4.282,-3.003 -4.282,-3.003 0,0 2.467,1.241 4.27,0 1.697,-1.168 3.043,-3.421 6.717,-7.814 2.58,-3.083 5.482,-6.619 7.961,-8.81 2.566,-2.268 4.646,-1.683 5.488,-1.401 2.576,1.861 3.041,2.205 3.041,2.205 z" /><path
       inkscape:connector-curvature="0"
       id="path5316"
       style="fill:#f57716;fill-opacity:1;fill-rule:nonzero;stroke:#d71d29;stroke-width:0.23999999;stroke-linecap:butt;stroke-linejoin:miter;stroke-miterlimit:10;stroke-dasharray:none;stroke-opacity:1"
       d="m 227.5713,439.6035 c 0,0 -1.406,-0.727 -3.621,0.479 -3.428,1.868 -9.963,13.473 -14.268,18.242" /><path
       inkscape:connector-curvature="0"
       id="path5320"
       style="fill:#6eb4e1;fill-opacity:1;fill-rule:nonzero;stroke:none"
       d="m 198.2432,444.8262 c -0.242,6.923 -3.215,11.688 -4.91,14.334 -1.783,2.781 -4.602,7.179 -7.069,6.676 -2.025,-0.412 -5.169,-4.407 -7.265,-7.07 l 0,-0.126 c -2.094,2.662 -5.238,6.657 -7.264,7.07 -2.467,0.502 -5.287,-3.896 -7.068,-6.676 -1.697,-2.645 -4.666,-7.409 -4.91,-14.335 -0.149,-4.231 -0.348,-9.932 3.338,-12.565 4.515,-1.731 14.443,2.767 14.334,3.336 -0.059,0.307 0.304,8.75 1.57,8.712 1.265,-0.037 1.631,-8.278 1.572,-8.585 -0.111,-0.57 9.817,-5.068 14.332,-3.337 3.688,2.634 3.486,8.335 3.34,12.566" /><path
       inkscape:connector-curvature="0"
       id="path5324"
       style="fill:none;stroke:#f36730;stroke-width:0.23999999;stroke-linecap:butt;stroke-linejoin:miter;stroke-miterlimit:10;stroke-dasharray:none;stroke-opacity:1"
       d="m 198.2432,444.8262 c -0.242,6.923 -3.215,11.688 -4.91,14.334 -1.783,2.781 -4.602,7.179 -7.069,6.676 -2.025,-0.412 -5.169,-4.407 -7.265,-7.07 l 0,-0.126 c -2.094,2.662 -5.238,6.657 -7.264,7.07 -2.467,0.502 -5.287,-3.896 -7.068,-6.676 -1.697,-2.645 -4.666,-7.409 -4.91,-14.335 -0.149,-4.231 -0.348,-9.932 3.338,-12.565 4.515,-1.731 14.443,2.767 14.334,3.336 -0.059,0.307 0.304,8.75 1.57,8.712 1.265,-0.037 1.631,-8.278 1.572,-8.585 -0.111,-0.57 9.817,-5.068 14.332,-3.337 3.688,2.634 3.486,8.335 3.34,12.566 z" /><path
       inkscape:connector-curvature="0"
       id="path5328"
       style="fill:none;stroke:#f36730;stroke-width:0.47999999;stroke-linecap:round;stroke-linejoin:miter;stroke-miterlimit:10;stroke-dasharray:none;stroke-opacity:1"
       d="m 179.6885,445.1504 c -0.932,-0.709 -1.766,-0.955 -4.193,-1.29 -3.133,-0.432 -5.95,0.451 -7.821,1.353 -3.41,1.635 -5.597,4.537 -6.935,6.268" /><path
       inkscape:connector-curvature="0"
       id="path5332"
       style="fill:none;stroke:#f57716;stroke-width:0.47999999;stroke-linecap:round;stroke-linejoin:miter;stroke-miterlimit:10;stroke-dasharray:none;stroke-opacity:1"
       d="m 160.1748,449.9092 c 0.875,-2.038 2.346,-4.843 4.797,-7.701 2.685,-3.129 5.504,-5.109 7.5,-6.289" /><path
       inkscape:connector-curvature="0"
       id="path5336"
       style="fill:none;stroke:#f57716;stroke-width:0.47999999;stroke-linecap:round;stroke-linejoin:miter;stroke-miterlimit:10;stroke-dasharray:none;stroke-opacity:1"
       d="m 169.6904,432.4111 c 0.498,0.952 1.498,2.56 3.305,3.991 1.734,1.374 3.451,1.98 4.476,2.258" /><path
       inkscape:connector-curvature="0"
       id="path5340"
       style="fill:none;stroke:#f36730;stroke-width:0.47999999;stroke-linecap:round;stroke-linejoin:miter;stroke-miterlimit:10;stroke-dasharray:none;stroke-opacity:1"
       d="m 179.0225,446.6855 c 3.713,-4.662 6.447,-5.606 8.361,-5.442 0.934,0.08 2.375,0.484 2.83,-0.121 0.614,-0.817 -1.275,-2.527 -0.599,-3.588 0.476,-0.754 1.929,-0.695 2.142,-0.686 3.717,0.15 6.252,6.751 6.561,7.578" /><path
       inkscape:connector-curvature="0"
       id="path5344"
       style="fill:#d71d29;fill-opacity:1;fill-rule:nonzero;stroke:none"
       d="m 172.3154,459.6152 c 0.268,-0.073 1.264,-0.129 1.039,-0.602 0.063,-0.456 -0.355,-0.646 -0.357,-0.647 -11.789,-7.855 9.408,-18.312 12.695,-14.422 1.266,1.495 -0.865,6.435 -2.381,10.247 -0.615,1.546 -0.264,2.121 -0.355,2.933 -0.332,2.887 -3.414,4.51 -5.907,3.482 -0.671,-0.276 -1.031,0.189 -1.63,0.443 -0.819,0.344 -1.637,0.113 -2.342,-0.536 -0.188,-0.171 -0.356,-0.37 -0.522,-0.567 -0.09,-0.105 -0.185,-0.213 -0.269,-0.322 0.009,-0.003 0.017,-0.005 0.029,-0.009" /><path
       inkscape:connector-curvature="0"
       id="path5348"
       style="fill:none;stroke:#f36730;stroke-width:0.23999999;stroke-linecap:butt;stroke-linejoin:miter;stroke-miterlimit:10;stroke-dasharray:none;stroke-opacity:1"
       d="m 172.3154,459.6152 c 0.268,-0.073 1.264,-0.129 1.039,-0.602 0.063,-0.456 -0.355,-0.646 -0.357,-0.647 -11.789,-7.855 9.408,-18.312 12.695,-14.422 1.266,1.495 -0.865,6.435 -2.381,10.247 -0.615,1.546 -0.264,2.121 -0.355,2.933 -0.332,2.887 -3.414,4.51 -5.907,3.482 -0.671,-0.276 -1.031,0.189 -1.63,0.443 -0.819,0.344 -1.637,0.113 -2.342,-0.536 -0.188,-0.171 -0.356,-0.37 -0.522,-0.567 -0.09,-0.105 -0.185,-0.213 -0.269,-0.322 0.009,-0.003 0.017,-0.005 0.029,-0.009 z" /><path
       inkscape:connector-curvature="0"
       id="path5352"
       style="fill:none;stroke:#f36730;stroke-width:0.47999999;stroke-linecap:round;stroke-linejoin:miter;stroke-miterlimit:10;stroke-dasharray:none;stroke-opacity:1"
       d="m 190.0029,437.1416 c 0.654,-0.322 1.918,-1.06 2.916,-2.517 0.668,-0.978 0.973,-1.923 1.117,-2.554" /></g></svg>