<?xml version="1.0" encoding="UTF-8" standalone="no"?>
<!-- Created with Inkscape (http://www.inkscape.org/) -->

<svg
   xmlns:dc="http://purl.org/dc/elements/1.1/"
   xmlns:cc="http://creativecommons.org/ns#"
   xmlns:rdf="http://www.w3.org/1999/02/22-rdf-syntax-ns#"
   xmlns:svg="http://www.w3.org/2000/svg"
   xmlns="http://www.w3.org/2000/svg"
   xmlns:sodipodi="http://sodipodi.sourceforge.net/DTD/sodipodi-0.dtd"
   xmlns:inkscape="http://www.inkscape.org/namespaces/inkscape"
   id="svg4136"
   version="1.1"
   inkscape:version="0.91 r13725"
   xml:space="preserve"
   width="205.2"
   height="205.19749"
   viewBox="0 0 205.2 205.19749"
   sodipodi:docname="topmed_logo_all.pdf"><metadata
     id="metadata4142"><rdf:RDF><cc:Work
         rdf:about=""><dc:format>image/svg+xml</dc:format><dc:type
           rdf:resource="http://purl.org/dc/dcmitype/StillImage" /><dc:title></dc:title></cc:Work></rdf:RDF></metadata><defs
     id="defs4140"><clipPath
       clipPathUnits="userSpaceOnUse"
       id="clipPath4150"><path
         d="M 0,756 576,756 576,0 0,0 0,756 Z"
         id="path4152"
         inkscape:connector-curvature="0" /></clipPath><clipPath
       clipPathUnits="userSpaceOnUse"
       id="clipPath4166"><path
         d="m 97.2656,658.822 165.3644,0 0,-72.892 -165.3644,0 0,72.892 z"
         id="path4168"
         inkscape:connector-curvature="0" /></clipPath><clipPath
       clipPathUnits="userSpaceOnUse"
       id="clipPath4312"><path
         d="M 0,756 576,756 576,0 0,0 0,756 Z"
         id="path4314"
         inkscape:connector-curvature="0" /></clipPath><clipPath
       clipPathUnits="userSpaceOnUse"
       id="clipPath4328"><path
         d="m 97.2656,658.822 165.3644,0 0,-72.892 -165.3644,0 0,72.892 z"
         id="path4330"
         inkscape:connector-curvature="0" /></clipPath><clipPath
       clipPathUnits="userSpaceOnUse"
       id="clipPath4474"><path
         d="M 0,756 576,756 576,0 0,0 0,756 Z"
         id="path4476"
         inkscape:connector-curvature="0" /></clipPath><clipPath
       clipPathUnits="userSpaceOnUse"
       id="clipPath4624"><path
         d="M 0,756 576,756 576,0 0,0 0,756 Z"
         id="path4626"
         inkscape:connector-curvature="0" /></clipPath><clipPath
       clipPathUnits="userSpaceOnUse"
       id="clipPath4770"><path
         d="M 0,756 576,756 576,0 0,0 0,756 Z"
         id="path4772"
         inkscape:connector-curvature="0" /></clipPath><clipPath
       clipPathUnits="userSpaceOnUse"
       id="clipPath4794"><path
         d="M 0,756 576,756 576,0 0,0 0,756 Z"
         id="path4796"
         inkscape:connector-curvature="0" /></clipPath><clipPath
       clipPathUnits="userSpaceOnUse"
       id="clipPath4934"><path
         d="M 0,756 576,756 576,0 0,0 0,756 Z"
         id="path4936"
         inkscape:connector-curvature="0" /></clipPath><clipPath
       clipPathUnits="userSpaceOnUse"
       id="clipPath5084"><path
         d="M 0,756 576,756 576,0 0,0 0,756 Z"
         id="path5086"
         inkscape:connector-curvature="0" /></clipPath><clipPath
       clipPathUnits="userSpaceOnUse"
       id="clipPath5230"><path
         d="M 0,756 576,756 576,0 0,0 0,756 Z"
         id="path5232"
         inkscape:connector-curvature="0" /></clipPath><clipPath
       clipPathUnits="userSpaceOnUse"
       id="clipPath5374"><path
         d="M 0,756 576,756 576,0 0,0 0,756 Z"
         id="path5376"
         inkscape:connector-curvature="0" /></clipPath><clipPath
       clipPathUnits="userSpaceOnUse"
       id="clipPath5514"><path
         d="M 0,756 576,756 576,0 0,0 0,756 Z"
         id="path5516"
         inkscape:connector-curvature="0" /></clipPath></defs><sodipodi:namedview
     pagecolor="#ffffff"
     bordercolor="#666666"
     borderopacity="1"
     objecttolerance="10"
     gridtolerance="10"
     guidetolerance="10"
     inkscape:pageopacity="0"
     inkscape:pageshadow="2"
     inkscape:window-width="1857"
     inkscape:window-height="1403"
     id="namedview4138"
     showgrid="false"
     inkscape:zoom="1.3005291"
     inkscape:cx="-159.01682"
     inkscape:cy="140.90773"
     inkscape:window-x="65"
     inkscape:window-y="0"
     inkscape:window-maximized="0"
     inkscape:current-layer="g4144"
     fit-margin-top="0"
     fit-margin-left="0"
     fit-margin-right="0"
     fit-margin-bottom="0" /><g
     id="g4144"
     inkscape:groupmode="layer"
     inkscape:label="topmed_logo_all"
     transform="matrix(1.25,0,0,-1.25,-406.678,893.234)"><path
       inkscape:connector-curvature="0"
       id="path4630"
       style="fill:#3f3d3e;fill-opacity:1;fill-rule:nonzero;stroke:none"
       d="m 407.4224,550.4292 c 45.332,0 82.08,36.748 82.08,82.08 0,45.33 -36.748,82.078 -82.08,82.078 -45.332,0 -82.08,-36.748 -82.08,-82.078 0,-45.332 36.748,-82.08 82.08,-82.08" /><path
       inkscape:connector-curvature="0"
       id="path4634"
       style="fill:#6eb4e1;fill-opacity:1;fill-rule:nonzero;stroke:none"
       d="m 469.9761,657.355 c 0,0 -3.896,-2.095 -4.48,-2.968 -0.584,-0.876 -0.567,-3.397 -0.289,-4.769 0.28,-1.371 3.155,-9.717 6.391,-16.914 2.877,-8.008 3.734,-13.588 2.206,-14.481 1.94,1.401 2.997,1.878 3.819,2.694 0.269,0.267 0.722,1.875 0.121,5.083 -0.602,3.207 -8.579,23.243 -8.938,24.735 -0.358,1.492 -0.18,5.001 1.17,6.62" /><path
       inkscape:connector-curvature="0"
       id="path4638"
       style="fill:none;stroke:#3b87cb;stroke-width:0.23999999;stroke-linecap:butt;stroke-linejoin:miter;stroke-miterlimit:10;stroke-dasharray:none;stroke-opacity:1"
       d="m 469.9761,657.355 c 0,0 -3.896,-2.095 -4.48,-2.968 -0.584,-0.876 -0.567,-3.397 -0.289,-4.769 0.28,-1.371 3.155,-9.717 6.391,-16.914 2.877,-8.008 3.734,-13.588 2.206,-14.481 1.94,1.401 2.997,1.878 3.819,2.694 0.269,0.267 0.722,1.875 0.121,5.083 -0.602,3.207 -8.579,23.243 -8.938,24.735 -0.358,1.492 -0.18,5.001 1.17,6.62 z" /><path
       inkscape:connector-curvature="0"
       id="path4642"
       style="fill:#6eb4e1;fill-opacity:1;fill-rule:nonzero;stroke:#3b87cb;stroke-width:0.23999999;stroke-linecap:butt;stroke-linejoin:miter;stroke-miterlimit:10;stroke-dasharray:none;stroke-opacity:1"
       d="m 406.5708,587.3579 c 22.67,-0.851 41.082,17.336 40.413,37.426 0,0 -0.715,8.269 0.014,13.006 0.598,3.894 2.9,5.513 2.9,5.513 0,0 -4.743,-2.877 -5.653,-3.582 -1.977,-1.532 -1.994,-2.763 -1.974,-12.728 0.608,-20.367 -16.89,-34.453 -35.988,-34.453" /><path
       inkscape:connector-curvature="0"
       id="path4646"
       style="fill:#f57716;fill-opacity:1;fill-rule:nonzero;stroke:none"
       d="m 327.6841,628.5649 c 0,0 1.979,-0.541 3.869,0.629 1.889,1.171 16.343,18.59 17.454,19.705 1.665,1.668 3.555,2.777 4.931,2.086 1.62,-0.99 5.057,-3.347 4.876,-3.257 -0.18,0.091 -3.418,0.9 -5.668,-0.269 -2.249,-1.171 -13.316,-16.016 -13.316,-16.016 0,0 -4.768,-4.839 -6.838,-5.379 -2.069,-0.54 -5.308,2.501 -5.308,2.501" /><path
       inkscape:connector-curvature="0"
       id="path4650"
       style="fill:none;stroke:#d71d29;stroke-width:0.23999999;stroke-linecap:butt;stroke-linejoin:miter;stroke-miterlimit:10;stroke-dasharray:none;stroke-opacity:1"
       d="m 327.6841,628.5649 c 0,0 1.979,-0.541 3.869,0.629 1.889,1.171 16.343,18.59 17.454,19.705 1.665,1.668 3.555,2.777 4.931,2.086 1.62,-0.99 5.057,-3.347 4.876,-3.257 -0.18,0.091 -3.418,0.9 -5.668,-0.269 -2.249,-1.171 -13.316,-16.016 -13.316,-16.016 0,0 -4.768,-4.839 -6.838,-5.379 -2.069,-0.54 -5.308,2.501 -5.308,2.501 z" /><path
       inkscape:connector-curvature="0"
       id="path4654"
       style="fill:#6eb4e1;fill-opacity:1;fill-rule:nonzero;stroke:none"
       d="m 337.5913,620.7134 c 0,0 3.202,-0.199 5.498,0.742 2.849,1.171 13.086,15.547 15.211,17.346 2.127,1.8 4.94,5.492 6.645,4.79 1.274,-0.524 5.655,-3.87 5.655,-3.87 0,0 -3.06,1.619 -5.128,0 -2.069,-1.62 -11.013,-12.273 -13.736,-16.116 -2.667,-3.763 -7.26,-6.628 -10.493,-5.54 -3.095,2.236 -3.652,2.648 -3.652,2.648" /><path
       inkscape:connector-curvature="0"
       id="path4658"
       style="fill:none;stroke:#3b87cb;stroke-width:0.23999999;stroke-linecap:butt;stroke-linejoin:miter;stroke-miterlimit:10;stroke-dasharray:none;stroke-opacity:1"
       d="m 337.5913,620.7134 c 0,0 3.202,-0.199 5.498,0.742 2.849,1.171 13.086,15.547 15.211,17.346 2.127,1.8 4.94,5.492 6.645,4.79 1.274,-0.524 5.655,-3.87 5.655,-3.87 0,0 -3.06,1.619 -5.128,0 -2.069,-1.62 -11.013,-12.273 -13.736,-16.116 -2.667,-3.763 -7.26,-6.628 -10.493,-5.54 -3.095,2.236 -3.652,2.648 -3.652,2.648 z" /><path
       inkscape:connector-curvature="0"
       id="path4662"
       style="fill:#f57716;fill-opacity:1;fill-rule:nonzero;stroke:none"
       d="m 358.814,647.728 c 0.902,-0.733 0.772,-5.438 -0.781,-9.132 -1.181,-2.806 -10.717,-21.801 -8.208,-26.928 -3.339,2.878 -3.513,2.748 -4.057,3.311 -1.287,1.33 1.91,10.347 4.15,16.015 2.239,5.669 5.699,11.728 5.741,16.13 0.016,1.619 -1.434,3.573 -1.434,3.573 0,0 3.687,-2.236 4.589,-2.969" /><path
       inkscape:connector-curvature="0"
       id="path4666"
       style="fill:none;stroke:#d71d29;stroke-width:0.23999999;stroke-linecap:butt;stroke-linejoin:miter;stroke-miterlimit:10;stroke-dasharray:none;stroke-opacity:1"
       d="m 358.814,647.728 c 0.902,-0.733 0.772,-5.438 -0.781,-9.132 -1.181,-2.806 -10.717,-21.801 -8.208,-26.928 -3.339,2.878 -3.513,2.748 -4.057,3.311 -1.287,1.33 1.91,10.347 4.15,16.015 2.239,5.669 5.699,11.728 5.741,16.13 0.016,1.619 -1.434,3.573 -1.434,3.573 0,0 3.687,-2.236 4.589,-2.969 z" /><path
       inkscape:connector-curvature="0"
       id="path4670"
       style="fill:#6eb4e1;fill-opacity:1;fill-rule:nonzero;stroke:none"
       d="m 344.8687,657.355 c 0,0 3.896,-2.095 4.48,-2.968 0.584,-0.876 0.567,-3.397 0.289,-4.769 -0.28,-1.371 -3.155,-9.717 -6.392,-16.914 -2.876,-8.008 -3.733,-13.588 -2.205,-14.481 -1.941,1.401 -2.998,1.878 -3.819,2.694 -0.27,0.267 -0.722,1.875 -0.121,5.083 0.601,3.207 8.578,23.243 8.938,24.735 0.358,1.492 0.18,5.001 -1.17,6.62" /><path
       inkscape:connector-curvature="0"
       id="path4674"
       style="fill:none;stroke:#3b87cb;stroke-width:0.23999999;stroke-linecap:butt;stroke-linejoin:miter;stroke-miterlimit:10;stroke-dasharray:none;stroke-opacity:1"
       d="m 344.8687,657.355 c 0,0 3.896,-2.095 4.48,-2.968 0.584,-0.876 0.567,-3.397 0.289,-4.769 -0.28,-1.371 -3.155,-9.717 -6.392,-16.914 -2.876,-8.008 -3.733,-13.588 -2.205,-14.481 -1.941,1.401 -2.998,1.878 -3.819,2.694 -0.27,0.267 -0.722,1.875 -0.121,5.083 0.601,3.207 8.578,23.243 8.938,24.735 0.358,1.492 0.18,5.001 -1.17,6.62 z" /><path
       inkscape:connector-curvature="0"
       id="path4678"
       style="fill:#6eb4e1;fill-opacity:1;fill-rule:nonzero;stroke:#3b87cb;stroke-width:0.23999999;stroke-linecap:butt;stroke-linejoin:miter;stroke-miterlimit:10;stroke-dasharray:none;stroke-opacity:1"
       d="m 408.2739,587.3579 c -22.671,-0.851 -41.082,17.336 -40.413,37.426 0,0 0.066,9.078 -0.662,13.812 -0.599,3.894 -2.252,4.995 -2.252,4.995 0,0 4.742,-3.165 5.653,-3.87 1.998,-1.547 1.687,-13.303 1.687,-13.303 -0.61,-20.369 17.177,-33.878 36.275,-33.878" /><path
       inkscape:connector-curvature="0"
       id="path4682"
       style="fill:#f57716;fill-opacity:1;fill-rule:nonzero;stroke:none"
       d="m 487.1606,628.5649 c 0,0 -2.133,-0.756 -3.869,0.629 -3.106,2.478 -16.339,19.027 -17.244,19.92 -1.679,1.654 -3.766,2.562 -5.141,1.871 -1.62,-0.99 -5.057,-3.347 -4.877,-3.257 0.181,0.091 3.419,0.9 5.669,-0.269 2.249,-1.171 7.185,-8.287 7.185,-8.287 0,0 10.899,-12.568 12.969,-13.108 2.069,-0.54 5.308,2.501 5.308,2.501" /><path
       inkscape:connector-curvature="0"
       id="path4686"
       style="fill:none;stroke:#d71d29;stroke-width:0.23999999;stroke-linecap:butt;stroke-linejoin:miter;stroke-miterlimit:10;stroke-dasharray:none;stroke-opacity:1"
       d="m 487.1606,628.5649 c 0,0 -2.133,-0.756 -3.869,0.629 -3.106,2.478 -16.339,19.027 -17.244,19.92 -1.679,1.654 -3.766,2.562 -5.141,1.871 -1.62,-0.99 -5.057,-3.347 -4.877,-3.257 0.181,0.091 3.419,0.9 5.669,-0.269 2.249,-1.171 7.185,-8.287 7.185,-8.287 0,0 10.899,-12.568 12.969,-13.108 2.069,-0.54 5.308,2.501 5.308,2.501 z" /><path
       inkscape:connector-curvature="0"
       id="path4690"
       style="fill:#f57716;fill-opacity:1;fill-rule:nonzero;stroke:none"
       d="m 439.0083,642.5405 c 10.119,-6.604 19.67,-25.207 23.24,-27.221 2.141,-1.206 6.233,-0.934 6.233,-0.934 l -3.841,-3.292 c 0,0 -1.683,-0.865 -4.351,0.574 -3.334,1.798 -11.973,16.189 -17.142,21.917 -5.171,5.728 -13.448,10.022 -21.593,12.344 -8.146,2.322 -20.118,2.322 -28.264,0 -8.144,-2.322 -16.422,-6.652 -21.593,-12.38 -1.818,-2.013 -3.409,-4.237 -4.988,-6.441 -2.411,-3.364 -4.729,-6.796 -7.206,-10.114 -1.01,-1.352 -3.028,-3.947 -5.55,-5.326 -2.162,-1.182 -3.6,-0.513 -3.791,-0.349 -0.483,0.416 -3.947,3.383 -4.107,3.396 1.051,-0.086 2.324,-0.245 3.371,-0.127 3.751,0.419 5.616,3.784 7.549,6.574 2.357,3.404 4.748,6.788 7.32,10.034 2.677,3.377 5.542,6.694 8.891,9.426 0.844,0.69 1.723,1.34 2.65,1.918 5.576,3.472 11.805,9.224 30.158,9.969 18.109,0.734 29.721,-7.819 33.014,-9.968" /><path
       inkscape:connector-curvature="0"
       id="path4694"
       style="fill:none;stroke:#d71d29;stroke-width:0.23999999;stroke-linecap:butt;stroke-linejoin:miter;stroke-miterlimit:10;stroke-dasharray:none;stroke-opacity:1"
       d="m 439.0083,642.5405 c 10.119,-6.604 19.67,-25.207 23.24,-27.221 2.141,-1.206 6.233,-0.934 6.233,-0.934 l -3.841,-3.292 c 0,0 -1.683,-0.865 -4.351,0.574 -3.334,1.798 -11.973,16.189 -17.142,21.917 -5.171,5.728 -13.448,10.022 -21.593,12.344 -8.146,2.322 -20.118,2.322 -28.264,0 -8.144,-2.322 -16.422,-6.652 -21.593,-12.38 -1.818,-2.013 -3.409,-4.237 -4.988,-6.441 -2.411,-3.364 -4.729,-6.796 -7.206,-10.114 -1.01,-1.352 -3.028,-3.947 -5.55,-5.326 -2.162,-1.182 -3.6,-0.513 -3.791,-0.349 -0.483,0.416 -3.947,3.383 -4.107,3.396 1.051,-0.086 2.324,-0.245 3.371,-0.127 3.751,0.419 5.616,3.784 7.549,6.574 2.357,3.404 4.748,6.788 7.32,10.034 2.677,3.377 5.542,6.694 8.891,9.426 0.844,0.69 1.723,1.34 2.65,1.918 5.576,3.472 11.805,9.224 30.158,9.969 18.109,0.734 29.721,-7.819 33.014,-9.968 z" /><path
       inkscape:connector-curvature="0"
       id="path4698"
       style="fill:#f57716;fill-opacity:1;fill-rule:nonzero;stroke:none"
       d="m 456.0308,647.728 c -0.903,-0.733 -0.772,-5.438 0.781,-9.132 1.181,-2.806 10.657,-22.018 8.148,-27.148 3.34,2.88 3.573,2.968 4.117,3.531 1.287,1.33 -1.91,10.347 -4.15,16.015 -2.239,5.669 -5.699,11.728 -5.742,16.13 -0.015,1.619 1.435,3.573 1.435,3.573 0,0 -3.687,-2.236 -4.589,-2.969" /><path
       inkscape:connector-curvature="0"
       id="path4702"
       style="fill:none;stroke:#d71d29;stroke-width:0.23999999;stroke-linecap:butt;stroke-linejoin:miter;stroke-miterlimit:10;stroke-dasharray:none;stroke-opacity:1"
       d="m 456.0308,647.728 c -0.903,-0.733 -0.772,-5.438 0.781,-9.132 1.181,-2.806 10.657,-22.018 8.148,-27.148 3.34,2.88 3.573,2.968 4.117,3.531 1.287,1.33 -1.91,10.347 -4.15,16.015 -2.239,5.669 -5.699,11.728 -5.742,16.13 -0.015,1.619 1.435,3.573 1.435,3.573 0,0 -3.687,-2.236 -4.589,-2.969 z" /><path
       inkscape:connector-curvature="0"
       id="path4706"
       style="fill:#6eb4e1;fill-opacity:1;fill-rule:nonzero;stroke:none"
       d="m 477.2534,620.7134 c 0,0 -2.305,-0.672 -5.498,0.742 -4.831,2.143 -12.006,13.832 -17.464,19.549 -3.023,3.167 -4.475,2.503 -4.906,2.324 -1.274,-0.524 -5.142,-3.607 -5.142,-3.607 0,0 2.964,1.49 5.129,0 2.039,-1.404 3.655,-4.111 8.069,-9.389 3.1,-3.704 6.588,-7.952 9.565,-10.585 3.083,-2.724 5.584,-2.022 6.595,-1.682 3.095,2.236 3.652,2.648 3.652,2.648" /><path
       inkscape:connector-curvature="0"
       id="path4710"
       style="fill:none;stroke:#3b87cb;stroke-width:0.23999999;stroke-linecap:butt;stroke-linejoin:miter;stroke-miterlimit:10;stroke-dasharray:none;stroke-opacity:1"
       d="m 477.2534,620.7134 c 0,0 -2.305,-0.672 -5.498,0.742 -4.831,2.143 -12.006,13.832 -17.464,19.549 -3.023,3.167 -4.475,2.503 -4.906,2.324 -1.274,-0.524 -5.142,-3.607 -5.142,-3.607 0,0 2.964,1.49 5.129,0 2.039,-1.404 3.655,-4.111 8.069,-9.389 3.1,-3.704 6.588,-7.952 9.565,-10.585 3.083,-2.724 5.584,-2.022 6.595,-1.682 3.095,2.236 3.652,2.648 3.652,2.648 z" /><path
       inkscape:connector-curvature="0"
       id="path4714"
       style="fill:#f57716;fill-opacity:1;fill-rule:nonzero;stroke:#d71d29;stroke-width:0.23999999;stroke-linecap:butt;stroke-linejoin:miter;stroke-miterlimit:10;stroke-dasharray:none;stroke-opacity:1"
       d="m 464.6401,611.0923 c 0,0 -1.69,-0.873 -4.351,0.576 -4.118,2.244 -11.971,16.188 -17.142,21.916" /><path
       inkscape:connector-curvature="0"
       id="path4718"
       style="fill:#6eb4e1;fill-opacity:1;fill-rule:nonzero;stroke:none"
       d="m 429.4019,617.3677 c -0.291,8.317 -3.86,14.043 -5.897,17.222 -2.143,3.341 -5.531,8.624 -8.494,8.02 -2.433,-0.495 -6.212,-5.295 -8.728,-8.493 l 0,-0.151 c -2.517,3.197 -6.295,7.997 -8.729,8.493 -2.963,0.602 -6.35,-4.681 -8.492,-8.021 -2.038,-3.177 -5.606,-8.902 -5.898,-17.222 -0.179,-5.084 -0.419,-11.933 4.009,-15.098 5.427,-2.079 17.355,3.326 17.222,4.009 -0.071,0.369 0.367,10.512 1.888,10.468 1.52,-0.045 1.958,-9.947 1.888,-10.316 -0.133,-0.684 11.794,-6.089 17.22,-4.01 4.43,3.166 4.189,10.015 4.011,15.099" /><path
       inkscape:connector-curvature="0"
       id="path4722"
       style="fill:none;stroke:#f36730;stroke-width:0.23999999;stroke-linecap:butt;stroke-linejoin:miter;stroke-miterlimit:10;stroke-dasharray:none;stroke-opacity:1"
       d="m 429.4019,617.3677 c -0.291,8.317 -3.86,14.043 -5.897,17.222 -2.143,3.341 -5.531,8.624 -8.494,8.02 -2.433,-0.495 -6.212,-5.295 -8.728,-8.493 l 0,-0.151 c -2.517,3.197 -6.295,7.997 -8.729,8.493 -2.963,0.602 -6.35,-4.681 -8.492,-8.021 -2.038,-3.177 -5.606,-8.902 -5.898,-17.222 -0.179,-5.084 -0.419,-11.933 4.009,-15.098 5.427,-2.079 17.355,3.326 17.222,4.009 -0.071,0.369 0.367,10.512 1.888,10.468 1.52,-0.045 1.958,-9.947 1.888,-10.316 -0.133,-0.684 11.794,-6.089 17.22,-4.01 4.43,3.166 4.189,10.015 4.011,15.099 z" /><path
       inkscape:connector-curvature="0"
       id="path4726"
       style="fill:none;stroke:#f36730;stroke-width:0.47999999;stroke-linecap:round;stroke-linejoin:miter;stroke-miterlimit:10;stroke-dasharray:none;stroke-opacity:1"
       d="m 407.1099,617.7573 c -1.119,-0.853 -2.121,-1.147 -5.037,-1.55 -3.765,-0.518 -7.149,0.542 -9.398,1.624 -4.095,1.966 -6.723,5.451 -8.332,7.532" /><path
       inkscape:connector-curvature="0"
       id="path4730"
       style="fill:none;stroke:#f57716;stroke-width:0.47999999;stroke-linecap:round;stroke-linejoin:miter;stroke-miterlimit:10;stroke-dasharray:none;stroke-opacity:1"
       d="m 383.6655,623.4741 c 1.051,-2.448 2.818,-5.818 5.764,-9.252 3.225,-3.76 6.611,-6.138 9.01,-7.557" /><path
       inkscape:connector-curvature="0"
       id="path4734"
       style="fill:none;stroke:#f57716;stroke-width:0.47999999;stroke-linecap:round;stroke-linejoin:miter;stroke-miterlimit:10;stroke-dasharray:none;stroke-opacity:1"
       d="m 395.0972,602.4517 c 0.599,1.144 1.8,3.075 3.972,4.795 2.084,1.651 4.146,2.378 5.377,2.713" /><path
       inkscape:connector-curvature="0"
       id="path4738"
       style="fill:none;stroke:#f36730;stroke-width:0.47999999;stroke-linecap:round;stroke-linejoin:miter;stroke-miterlimit:10;stroke-dasharray:none;stroke-opacity:1"
       d="m 406.311,619.6011 c 4.46,-5.601 7.746,-6.735 10.045,-6.538 1.122,0.096 2.852,0.581 3.4,-0.146 0.737,-0.981 -1.532,-3.035 -0.721,-4.311 0.573,-0.905 2.319,-0.834 2.575,-0.823 4.466,0.18 7.511,8.111 7.882,9.105" /><path
       inkscape:connector-curvature="0"
       id="path4742"
       style="fill:#d71d29;fill-opacity:1;fill-rule:nonzero;stroke:none"
       d="m 398.2524,635.1362 c 0.32,-0.088 1.518,-0.155 1.249,-0.723 0.074,-0.548 -0.429,-0.777 -0.431,-0.778 -14.163,-9.437 11.304,-22 15.254,-17.327 1.519,1.796 -1.04,7.73 -2.862,12.311 -0.739,1.858 -0.315,2.548 -0.427,3.524 -0.397,3.469 -4.1,5.418 -7.095,4.183 -0.807,-0.332 -1.239,0.227 -1.96,0.532 -0.982,0.414 -1.966,0.136 -2.814,-0.643 -0.226,-0.207 -0.427,-0.445 -0.627,-0.682 -0.107,-0.126 -0.223,-0.255 -0.322,-0.386 0.011,-0.004 0.021,-0.007 0.035,-0.011" /><path
       inkscape:connector-curvature="0"
       id="path4746"
       style="fill:none;stroke:#f36730;stroke-width:0.23999999;stroke-linecap:butt;stroke-linejoin:miter;stroke-miterlimit:10;stroke-dasharray:none;stroke-opacity:1"
       d="m 398.2524,635.1362 c 0.32,-0.088 1.518,-0.155 1.249,-0.723 0.074,-0.548 -0.429,-0.777 -0.431,-0.778 -14.163,-9.437 11.304,-22 15.254,-17.327 1.519,1.796 -1.04,7.73 -2.862,12.311 -0.739,1.858 -0.315,2.548 -0.427,3.524 -0.397,3.469 -4.1,5.418 -7.095,4.183 -0.807,-0.332 -1.239,0.227 -1.96,0.532 -0.982,0.414 -1.966,0.136 -2.814,-0.643 -0.226,-0.207 -0.427,-0.445 -0.627,-0.682 -0.107,-0.126 -0.223,-0.255 -0.322,-0.386 0.011,-0.004 0.021,-0.007 0.035,-0.011 z" /><path
       inkscape:connector-curvature="0"
       id="path4750"
       style="fill:none;stroke:#f36730;stroke-width:0.47999999;stroke-linecap:round;stroke-linejoin:miter;stroke-miterlimit:10;stroke-dasharray:none;stroke-opacity:1"
       d="m 419.5024,608.1353 c 0.786,-0.388 2.306,-1.273 3.503,-3.023 0.804,-1.177 1.169,-2.313 1.344,-3.071" /><text
       transform="matrix(1,0,0,-1,384.6685,690.1216)"
       style="font-variant:normal;font-weight:normal;font-stretch:normal;font-size:16px;font-family:Rockwell;-inkscape-font-specification:Rockwell;writing-mode:lr-tb;fill:#ffffff;fill-opacity:1;fill-rule:nonzero;stroke:none"
       id="text4752"><tspan
         x="0 11.504 22.832001 31.167999 40.495998"
         y="0"
         sodipodi:role="line"
         id="tspan4754">NHLBI</tspan></text>
<text
       transform="matrix(1,0,0,-1,361.085,664.9214)"
       style="font-variant:normal;font-weight:bold;font-stretch:normal;font-size:21px;font-family:Rockwell;-inkscape-font-specification:Rockwell-Bold;writing-mode:lr-tb;fill:#ffffff;fill-opacity:1;fill-rule:nonzero;stroke:none"
       id="text4756"><tspan
         x="0 13.692 31.625999 45.632999 67.514999 79.547997"
         y="0"
         sodipodi:role="line"
         id="tspan4758">TOPMed</tspan></text>
<text
       transform="matrix(1,0,0,-1,370.166,575.1221)"
       style="font-variant:normal;font-weight:normal;font-stretch:normal;font-size:11px;font-family:Rockwell;-inkscape-font-specification:Rockwell;writing-mode:lr-tb;fill:#ffffff;fill-opacity:1;fill-rule:nonzero;stroke:none"
       id="text4760"><tspan
         x="0 8.2609997 14.564 20.867001 24.079 30.382 33.132 39.798 46.101002 52.403999 58.707001 68.222"
         y="0"
         sodipodi:role="line"
         id="tspan4762">whole genome</tspan><tspan
         x="7.744 12.782 19.084999 25.85 32.042999 38.346001 44.648998 50.380001 53.591999 59.895"
         y="13.2"
         sodipodi:role="line"
         id="tspan4764">sequencing</tspan></text>
</g></svg>